<svg viewBox="0 0 512 512" fill="none" xmlns="http://www.w3.org/2000/svg">
	<path d="M64.6464 256.634C64.6186 256.585 64.5936 256.54 64.5713 256.5C64.6067 256.436 64.6492 256.36 64.6988 256.272C64.8726 255.962 65.1333 255.502 65.4799 254.904C66.173 253.707 67.2096 251.954 68.5817 249.737C71.3258 245.303 75.4112 239.011 80.7734 231.583C91.437 216.811 107.145 197.556 127.388 179.497L176.271 228.381C170.977 243.367 170.015 259.545 173.5 275.056C177.008 290.67 184.878 304.967 196.194 316.283C207.51 327.6 221.807 335.47 237.42 338.978C252.931 342.463 269.108 341.502 284.094 336.207L322.087 374.225C301.217 383.236 278.735 387.925 255.998 388.004C196.189 388.003 148.31 355.106 115.354 322.148C98.8794 305.674 86.148 289.197 77.5352 276.84C73.2291 270.661 69.9534 265.513 67.7549 261.912C66.6557 260.111 65.8258 258.696 65.2712 257.733C64.9939 257.251 64.7854 256.882 64.6464 256.634ZM227.882 176.769L189.913 138.775C210.782 129.763 233.264 125.075 256.001 124.997C315.81 124.997 363.69 157.894 396.646 190.852C413.121 207.326 425.852 223.803 434.465 236.16C438.771 242.339 442.047 247.487 444.245 251.089C445.344 252.889 446.174 254.304 446.729 255.267C447.006 255.749 447.215 256.118 447.354 256.366C447.381 256.415 447.406 256.46 447.429 256.5C447.393 256.564 447.351 256.64 447.301 256.728C447.127 257.037 446.866 257.497 446.519 258.095C445.826 259.292 444.788 261.043 443.415 263.26C440.67 267.692 436.583 273.983 431.221 281.411C420.557 296.183 404.855 315.444 384.635 333.526L335.705 284.595C340.999 269.609 341.961 253.431 338.476 237.92C334.968 222.306 327.098 208.009 315.782 196.693C304.466 185.376 290.169 177.506 274.556 173.998C259.045 170.513 242.868 171.474 227.882 176.769Z" vector-effect="non-scaling-stroke" />
	<path d="M312.454 237.662C315.271 246.117 316.152 255.092 315.036 263.925L248.571 197.435C257.397 196.324 266.365 197.205 274.813 200.02C283.579 202.941 291.544 207.863 298.078 214.397C304.611 220.93 309.533 228.896 312.454 237.662ZM199.545 275.314C196.73 266.866 195.849 257.898 196.96 249.072L263.428 315.541C254.602 316.652 245.634 315.771 237.186 312.956C228.42 310.035 220.455 305.113 213.921 298.579C207.388 292.046 202.466 284.08 199.545 275.314ZM391.504 408.293L104.211 120.992L120.496 104.707L407.789 392.008L391.504 408.293Z" vector-effect="non-scaling-stroke" />
</svg>
