<svg viewBox="0 0 512 512" fill="none" xmlns="http://www.w3.org/2000/svg">
	<path d="M322.96 374.391L284.224 335.63C269.244 340.986 253.052 341.978 237.53 338.49C222.009 335.003 207.797 327.179 196.548 315.93C185.299 304.681 177.475 290.468 173.988 274.946C170.5 259.425 171.492 243.231 176.848 228.251L127.408 178.81C86.512 215.171 64 256.5 64 256.5C64 256.5 136 388.504 256 388.504C279.05 388.423 301.838 383.621 322.96 374.391ZM189.04 138.609C210.161 129.379 232.95 124.576 256 124.497C376 124.497 448 256.5 448 256.5C448 256.5 425.464 297.805 384.616 334.214L335.128 284.725C340.484 269.745 341.476 253.551 337.988 238.03C334.501 222.508 326.677 208.295 315.428 197.046C304.179 185.797 289.967 177.973 274.446 174.486C258.924 170.998 242.732 171.99 227.752 177.346L189.04 138.609Z" />
	<path d="M196.6 248.004C195.279 257.227 196.126 266.632 199.071 275.472C202.016 284.312 206.98 292.344 213.568 298.933C220.156 305.521 228.189 310.485 237.028 313.43C245.868 316.376 255.272 317.222 264.496 315.902L196.6 248.004ZM315.4 264.996L247.504 197.074C256.727 195.754 266.131 196.6 274.971 199.546C283.811 202.491 291.843 207.455 298.431 214.043C305.02 220.632 309.983 228.664 312.929 237.504C315.874 246.344 316.72 255.749 315.4 264.972V264.996ZM391.504 409L103.504 120.992L120.496 104L408.496 392.008L391.504 409Z" />
</svg>
