<svg viewBox="0 0 512 512" fill="none" xmlns="http://www.w3.org/2000/svg">
	<path d="M317.754 93.7092L317.756 93.7103C331.119 99.6007 344.93 105.254 358.616 110.855C383.025 120.846 407.038 130.675 427.407 141.4L427.64 140.958L427.407 141.4C446.695 151.553 448.471 170.516 447.172 178.561L447.172 178.562C443.643 200.508 428.996 258.099 425.978 269.578L425.978 269.579C424.284 276.057 418.94 281.489 411.68 284.852L411.44 284.963L411.397 285.224C407.461 308.988 399.505 331.137 388.332 350.62L388.766 350.869L388.332 350.62C371.955 379.196 348.629 402.147 320.844 416.008C302.333 425.236 281.83 430.397 260.377 430.385H260.377C241.541 430.396 223.433 426.427 206.777 419.209L206.579 419.667L206.777 419.208C190.109 411.99 174.882 401.533 161.623 388.581C135.668 363.181 117.208 328.201 109.969 288.487L109.904 288.131L109.544 288.082C96.8764 286.358 86.5188 279.102 84.0215 269.578L84.0214 269.578C81.0037 258.099 66.3573 200.508 62.8277 178.562L62.8277 178.561C61.529 170.516 63.3057 151.553 82.5931 141.4L82.5932 141.4C102.886 130.714 126.813 120.918 151.141 110.956C160.155 107.266 169.224 103.553 178.184 99.7632L178.201 99.7559L178.218 99.7473C193.718 91.7738 211.764 86.4759 232.493 84.0545C241.285 83.0307 250.56 82.5 260.378 82.5L260.378 82.5C279.646 82.4877 298.149 86.1222 315.242 92.861L315.362 92.9083L315.49 92.8917C315.592 92.8784 315.818 92.9129 316.242 93.0675C316.645 93.2141 317.142 93.4353 317.754 93.7092ZM232.436 83.5579C211.656 85.9851 193.55 91.2978 177.989 99.3027L315.426 92.3958C298.274 85.6343 279.709 81.9877 260.378 82C250.542 82 241.247 82.5317 232.436 83.5579ZM169.982 359.566L170.048 359.691L169.597 360.1C172.271 363.282 175.046 366.336 177.946 369.215H177.928L178.807 370.073C190.026 381.028 202.74 389.709 216.464 395.651C230.201 401.594 244.946 404.821 260.378 404.821C277.964 404.821 294.638 400.647 309.947 393.007C325.255 385.38 339.173 374.264 350.934 360.404C367.471 340.922 379.687 315.983 385.5 287.965L385.599 287.485L385.121 287.376C372.887 284.598 360.674 276.222 352.835 259.82C344.99 243.406 341.515 218.924 346.854 183.944L346.872 183.83L346.837 183.719C339.249 159.504 333.122 141.544 328.36 128.231L328.303 128.073L328.162 127.981C322.544 124.32 316.654 121.119 310.503 118.427C295.149 111.699 278.246 108.074 260.379 108.062H260.379C257.65 108.062 255.006 108.123 252.388 108.207L251.033 108.251L252.092 109.098C270.848 124.095 286.581 147.415 288.599 183.715C292.73 258.565 235.603 324.958 169.982 359.566Z" vector-effect="non-scaling-stroke" />
	<path d="M228.93 348.852C228.93 333.199 244.179 320.374 263.181 320.374C282.183 320.374 297.432 333.199 297.432 348.852C297.432 364.505 282.183 377.33 263.181 377.33C244.179 377.33 228.93 364.505 228.93 348.852Z" vector-effect="non-scaling-stroke" />
	<path d="M210.5 260.115C210.5 268.124 204.008 274.615 196 274.615C187.992 274.615 181.5 268.124 181.5 260.115C181.5 252.107 187.992 245.615 196 245.615C204.008 245.615 210.5 252.107 210.5 260.115Z" vector-effect="non-scaling-stroke" />
	<path d="M104.452 225.142C100.333 236.248 99.4415 249.125 101.741 263.837C105.008 284.738 113.542 299.559 127.617 308.939L127.339 309.355L127.617 308.939C139.616 316.936 157.901 319.832 177.762 318.159C197.608 316.486 218.947 310.257 236.999 300.095C249.844 292.864 257.38 289.552 264.524 289.766C271.663 289.98 278.334 293.717 289.427 300.227C299.541 306.161 307.087 310.195 315.24 312.756C323.388 315.315 332.17 316.413 344.757 316.431C368.571 316.466 386.95 310.107 399.395 297.986C411.838 285.867 418.421 267.917 418.499 244.622C418.575 221.85 410.47 204.906 393.146 192.976C375.78 181.017 349.103 174.062 311.971 171.442M104.452 225.142L311.971 171.442M104.452 225.142C108.57 214.04 115.924 204.674 126.603 196.996C147.984 181.625 182.686 173.026 231.334 170.903C244.815 170.315 301.36 170.694 311.971 171.442M104.452 225.142L312.006 170.943L311.971 171.442" vector-effect="non-scaling-stroke" />
</svg>
