<svg viewBox="0 0 512 512" fill="none" xmlns="http://www.w3.org/2000/svg">
	<rect width="512" height="512" rx="64" fill="#eaeaea"/>
	<path d="M427.64 140.958C395.834 124.211 355.099 109.625 317.958 93.2528C316.745 92.7096 315.897 92.3348 315.426 92.3958C298.274 85.6343 279.709 81.9877 260.378 82C250.542 82 241.247 82.5317 232.436 83.5579C211.656 85.9851 193.55 91.2978 177.989 99.3027C144.876 113.307 110.196 126.3 82.3602 140.958C62.8173 151.245 61.0147 170.467 62.334 178.641C65.8684 200.616 80.5222 258.234 83.5378 269.705C86.1057 279.497 96.6959 286.838 109.477 288.577C116.733 328.386 135.24 363.461 161.273 388.938C174.573 401.93 189.851 412.423 206.579 419.667C223.294 426.912 241.471 430.896 260.377 430.885C281.911 430.897 302.49 425.716 321.067 416.456C348.95 402.546 372.345 379.521 388.766 350.869C399.969 331.333 407.944 309.128 411.89 285.305C419.241 281.901 424.719 276.37 426.462 269.705C429.478 258.234 444.132 200.616 447.666 178.641C448.986 170.467 447.183 151.245 427.64 140.958ZM350.553 360.081C338.832 373.893 324.966 384.965 309.724 392.56C294.48 400.167 277.883 404.321 260.378 404.321C245.017 404.321 230.339 401.109 216.663 395.192C202.998 389.276 190.335 380.63 179.156 369.715H179.168C175.964 366.6 172.913 363.267 169.979 359.778C170.05 359.851 170.132 359.935 170.215 360.008C235.923 325.355 293.245 258.814 289.098 183.688C287.072 147.236 271.264 123.787 252.404 108.707C255.019 108.623 257.658 108.562 260.379 108.562C278.178 108.574 295.012 112.184 310.302 118.885C316.428 121.566 322.294 124.753 327.889 128.4C332.649 141.706 338.774 159.66 346.36 183.869C335.664 253.948 360.237 282.237 385.01 287.864C379.213 315.804 367.033 340.665 350.553 360.081Z" fill="#000"/>
	<path d="M263.181 319.874C243.992 319.874 228.43 332.842 228.43 348.852C228.43 364.863 243.992 377.83 263.181 377.83C282.37 377.83 297.932 364.863 297.932 348.852C297.932 332.842 282.37 319.874 263.181 319.874Z" fill="#000"/>
	<path d="M211 260.115C211 268.4 204.284 275.115 196 275.115C187.716 275.115 181 268.4 181 260.115C181 251.831 187.716 245.115 196 245.115C204.284 245.115 211 251.831 211 260.115Z" fill="#d9d9d9"/>
	<path fill-rule="evenodd" clip-rule="evenodd" d="M231.312 170.404C133.966 174.652 92.0106 204.816 101.247 263.914C104.529 284.918 113.121 299.879 127.339 309.356C151.606 325.529 201.01 320.929 237.244 300.531C262.969 286.05 266.916 287.597 289.174 300.658C309.408 312.531 319.524 316.894 344.756 316.931C392.555 317.002 418.843 291.399 418.999 244.624C419.152 198.794 386.324 176.187 312.006 170.943C301.372 170.194 244.807 169.815 231.312 170.404Z" fill="url(#paint0_linear_111_2)" stroke="#000" stroke-width="24"/>
	<defs>
		<linearGradient id="paint0_linear_111_2" x1="100" y1="170.115" x2="406.757" y2="341.66" gradientUnits="userSpaceOnUse">
			<stop stop-color="#FAFA00"/>
			<stop offset="1" stop-color="#0101FF"/>
		</linearGradient>
	</defs>
</svg>
