<svg viewBox="0 0 512 512" fill="none" xmlns="http://www.w3.org/2000/svg">
	<path d="M323.569 81.5364L323.572 81.5375C337.915 87.8599 352.739 93.9279 367.431 99.9414C393.636 110.667 419.418 121.22 441.286 132.734L441.478 132.369L441.286 132.734C462.01 143.643 463.919 164.019 462.522 172.665L462.522 172.666C458.734 196.227 443.009 258.054 439.77 270.376L439.77 270.377C437.947 277.346 432.201 283.184 424.401 286.797L424.161 286.908L424.118 287.169C419.891 312.685 411.349 336.465 399.353 357.384L399.787 357.633L399.353 357.385C381.769 388.067 356.723 412.711 326.888 427.594C307.011 437.503 284.996 443.044 261.96 443.031H261.96C241.734 443.044 222.29 438.782 204.406 431.031C186.508 423.279 170.157 412.051 155.92 398.144C128.052 370.871 108.231 333.313 100.459 290.673L100.394 290.316L100.034 290.267C86.427 288.416 75.2908 280.62 72.6047 270.376L72.6047 270.376C69.3653 258.054 53.6417 196.227 49.8523 172.666L49.8522 172.665C48.4566 164.019 50.3658 143.643 71.0898 132.734L71.0899 132.734C92.8759 121.262 118.564 110.744 144.682 100.05C154.358 96.0885 164.093 92.1026 173.71 88.0351L173.727 88.0278L173.744 88.0192C190.388 79.4573 209.765 73.7688 232.022 71.1691C241.461 70.0698 251.419 69.5 261.961 69.5L261.961 69.5C282.65 69.4868 302.517 73.3894 320.872 80.6252L320.991 80.6725L321.119 80.6559C321.239 80.6404 321.489 80.6807 321.944 80.8466C322.378 81.0044 322.913 81.2425 323.569 81.5364ZM323.774 81.08C322.471 80.4968 321.561 80.0945 321.055 80.1601L463.016 172.745C464.433 163.97 462.498 143.335 441.519 132.292C419.632 120.768 393.808 110.197 367.585 99.4637C352.899 93.4523 338.088 87.3897 323.774 81.08ZM164.937 367.002L164.991 367.105L164.534 367.52C167.424 370.957 170.423 374.257 173.558 377.365H173.54L174.419 378.223C186.46 389.98 200.105 399.297 214.834 405.674C229.575 412.052 245.399 415.514 261.961 415.514C280.834 415.514 298.727 411.036 315.157 402.837C331.585 394.652 346.522 382.722 359.146 367.846C376.894 346.936 390.005 320.17 396.244 290.099L396.344 289.618L395.866 289.509C382.721 286.524 369.601 277.525 361.181 259.908C352.755 242.278 349.025 215.989 354.758 178.433L354.775 178.318L354.741 178.208C346.595 152.213 340.017 132.933 334.906 118.642L334.849 118.484L334.708 118.392C328.679 114.463 322.357 111.028 315.755 108.138C299.278 100.917 281.138 97.0277 261.962 97.0144H261.962C259.033 97.0144 256.195 97.0801 253.384 97.1706L252.029 97.2142L253.088 98.0608C273.232 114.167 290.126 139.211 292.293 178.191C296.729 258.563 235.388 329.848 164.937 367.002Z" vector-effect="non-scaling-stroke" />
	<path d="M228.165 355.468C228.165 338.638 244.557 324.86 264.97 324.86C285.383 324.86 301.775 338.638 301.775 355.468C301.775 372.299 285.383 386.077 264.97 386.077C244.557 386.077 228.165 372.299 228.165 355.468Z" vector-effect="non-scaling-stroke" />
	<path d="M208.688 253C208.688 261.526 201.776 268.438 193.25 268.438C184.724 268.438 177.812 261.526 177.812 253C177.812 244.474 184.724 237.562 193.25 237.562C201.776 237.562 208.688 244.474 208.688 253Z" vector-effect="non-scaling-stroke" />
	<path d="M90.6769 264.846C88.2065 249.11 89.1645 235.336 93.5913 223.454C98.0165 211.576 105.92 201.555 117.397 193.341C140.372 176.898 177.658 167.703 229.915 165.433C244.397 164.804 305.137 165.209 316.537 166.009C356.424 168.811 385.088 176.248 403.75 189.042C422.371 201.806 431.081 219.936 430.999 244.295C430.916 269.21 423.843 288.413 410.468 301.381C397.091 314.35 377.338 321.152 351.751 321.115C338.229 321.095 328.791 319.921 320.034 317.183C311.271 314.443 303.163 310.128 292.299 303.782C280.38 296.82 273.224 292.831 265.568 292.602C257.906 292.374 249.821 295.909 236.021 303.642C216.626 314.511 193.699 321.173 172.376 322.962C151.038 324.752 131.386 321.655 118.487 313.097C103.358 303.06 94.1869 287.202 90.6769 264.846Z" vector-effect="non-scaling-stroke" />
</svg>
