<svg viewBox="0 0 544 544" fill="none" xmlns="http://www.w3.org/2000/svg">
	<rect x="16" y="16" width="512" height="512" rx="64" fill="#eaeaea"/>
	<path d="M458.058 143.54C423.78 125.491 379.879 109.772 339.851 92.1274C338.544 91.5419 337.63 91.138 337.122 91.2038C318.637 83.9167 298.629 79.9867 277.796 80C267.195 80 257.179 80.573 247.682 81.679C225.287 84.2948 205.774 90.0204 189.003 98.6475C153.317 113.74 115.942 127.742 85.9426 143.54C64.8808 154.626 62.9381 175.343 64.36 184.152C68.169 207.835 83.9617 269.931 87.2118 282.294C89.9792 292.847 101.392 300.759 115.167 302.632C122.987 345.535 142.932 383.337 170.989 410.793C185.322 424.795 201.787 436.103 219.815 443.911C237.83 451.718 257.419 456.012 277.795 456C301.003 456.013 323.181 450.43 343.202 440.45C373.252 425.459 398.465 400.644 416.163 369.765C428.236 348.711 436.831 324.78 441.084 299.106C449.006 295.437 454.909 289.476 456.788 282.294C460.038 269.931 475.831 207.835 479.64 184.152C481.062 175.343 479.12 154.626 458.058 143.54ZM374.979 379.693C362.347 394.579 347.404 406.512 330.977 414.697C314.549 422.895 296.661 427.371 277.796 427.371C261.241 427.371 245.422 423.91 230.683 417.533C215.957 411.157 202.309 401.84 190.261 390.076H190.274C186.821 386.719 183.533 383.128 180.371 379.367C180.448 379.446 180.536 379.536 180.626 379.615C251.441 342.268 313.217 270.556 308.748 189.591C306.564 150.306 289.528 125.035 269.202 108.783C272.021 108.692 274.864 108.626 277.797 108.626C296.979 108.64 315.122 112.53 331.6 119.752C338.202 122.641 344.524 126.076 350.554 130.006C355.684 144.346 362.285 163.696 370.461 189.786C358.933 265.312 385.416 295.8 412.115 301.864C405.867 331.976 392.74 358.769 374.979 379.693Z" fill="#000"/>
	<path d="M280.817 336.362C260.136 336.362 243.365 350.337 243.365 367.592C243.365 384.847 260.136 398.822 280.817 398.822C301.498 398.822 318.269 384.847 318.269 367.592C318.269 350.337 301.498 336.362 280.817 336.362Z" fill="#000"/>
	<path fill-rule="evenodd" clip-rule="evenodd" d="M245.603 176.31C140.628 180.87 95.3844 213.25 105.344 276.692C108.884 299.239 118.149 315.3 133.482 325.473C159.65 342.834 212.926 337.896 252 316C279.741 300.455 283.998 302.115 308 316.136C329.819 328.881 340.728 333.566 367.938 333.605C419.483 333.681 447.831 306.196 447.999 255.984C448.163 206.786 412.764 182.518 332.621 176.889C321.153 176.084 260.156 175.678 245.603 176.31Z" fill="url(#paint0_linear_111_2)" stroke="#000" stroke-width="24"/>
	<defs>
		<linearGradient id="paint0_linear_111_2" x1="104" y1="176" x2="434.081" y2="361.426" gradientUnits="userSpaceOnUse">
			<stop stop-color="#fafa00"/>
			<stop offset="1" stop-color="#0101ff"/>
		</linearGradient>
	</defs>
</svg>
