<svg viewBox="0 0 512 512" fill="none" xmlns="http://www.w3.org/2000/svg">
	<path fill-rule="evenodd" clip-rule="evenodd" d="M268.089 207.507C268.356 206.949 268.602 206.426 268.824 205.936C270.129 203.06 270.643 201.337 270.107 200.554C269.798 200.104 269.142 199.966 268.089 200.098C268.089 200.098 263.702 200.082 256.521 200.059C256.431 200.059 256.341 200.058 256.25 200.058C224.835 199.956 141.342 199.723 135.343 200.098C127.943 200.561 112.679 213.064 109.904 218.158C107.129 223.252 82.6149 278.819 78.9146 289.47C75.2143 300.12 82.1523 310.77 88.1652 311.697C92.9465 312.433 158.853 311.998 190.534 311.789H190.535L190.537 311.789C198.695 311.735 204.583 311.697 206.573 311.697C214.953 311.697 221.957 306.18 226.989 299.016C227.789 297.877 228.539 296.696 229.237 295.489C230.256 293.726 231.797 290.567 233.608 286.643C238.411 276.234 245.119 260.443 249.075 251.03C249.081 251.017 249.086 251.003 249.092 250.99C249.127 250.906 249.162 250.823 249.197 250.741C251.121 246.16 252.363 243.163 252.363 243.163C252.475 242.853 252.579 242.555 252.674 242.27C253.912 238.528 253.491 236.988 248.821 237.138C248.769 237.139 248.716 237.141 248.663 237.143H183.909C183.86 237.15 183.812 237.156 183.764 237.163C180.961 237.547 179.321 238.378 177.881 240.199C177.865 240.219 177.85 240.239 177.834 240.259C177.228 241.036 176.656 241.991 176.046 243.163L166.333 266.316C164.44 269.634 164.705 271.197 166.333 273.725C167.49 275.212 168.206 276.288 168.572 277.181C168.598 277.245 168.623 277.309 168.646 277.371C168.967 278.253 168.934 278.964 168.645 279.745C168.645 279.745 168.672 279.745 168.7 279.766C168.763 279.811 168.835 279.956 168.645 280.422C168.645 280.422 168.645 280.422 168.645 280.422C168.416 280.985 167.804 282.019 166.333 283.913C165.885 284.489 165.415 285.059 164.933 285.61C164.637 285.947 164.337 286.277 164.034 286.597C163.459 287.206 162.873 287.78 162.292 288.3C161.377 289.119 160.474 289.805 159.637 290.284C158.44 290.968 157.38 291.231 156.619 290.859C153.507 291.129 151.529 290.021 150.671 288.327C150.035 287.07 150.015 285.491 150.607 283.913C150.866 283.221 151.738 281.155 152.986 278.254C153.014 278.188 153.043 278.121 153.072 278.054C153.103 277.981 153.135 277.907 153.167 277.833C154.821 273.99 157.08 268.801 159.433 263.415C159.554 263.137 159.676 262.858 159.798 262.579C163.548 253.999 167.469 245.074 169.517 240.418C169.599 240.232 169.678 240.052 169.754 239.879C170.513 238.154 170.958 237.143 170.958 237.143C173.97 230.48 176.701 228.46 182.768 228.346C183.136 228.339 183.516 228.339 183.909 228.345H248.663C250.196 228.445 251.539 228.456 252.734 228.334C255.261 228.077 257.13 227.223 258.75 225.343C259.769 224.161 260.69 222.573 261.614 220.473L268.089 207.507ZM269.874 224.116C269.814 224.248 269.753 224.381 269.691 224.516C268.603 226.888 267.295 229.779 265.846 233.014C264.927 235.065 263.951 237.254 262.938 239.536C262.016 241.614 261.063 243.769 260.095 245.968C260.045 246.083 259.994 246.197 259.944 246.312C252.317 263.64 243.787 283.533 241.725 289.47C240.236 293.755 240.469 298.04 241.672 301.692C243.458 307.116 247.382 311.143 250.975 311.697C255.757 312.433 321.663 311.998 353.344 311.789H353.346C361.505 311.735 367.394 311.697 369.383 311.697C379.096 311.697 386.959 304.287 392.047 295.489C395.772 289.048 406.438 263.992 411.885 251.03C411.891 251.017 411.897 251.003 411.902 250.99C411.937 250.906 411.972 250.823 412.007 250.741C413.931 246.16 415.173 243.163 415.173 243.163C427.99 248.487 427.99 248.487 427.989 248.488L427.989 248.49L427.781 248.99C427.646 249.315 427.448 249.791 427.194 250.4C426.687 251.617 425.958 253.362 425.067 255.484C423.287 259.724 420.858 265.477 418.266 271.514C413.295 283.089 407.121 297.148 404.055 302.45C398.094 312.758 386.583 325.588 369.383 325.588C367.406 325.588 361.585 325.627 353.497 325.68C341.775 325.758 325.291 325.867 308.85 325.936C295.022 325.993 281.273 326.023 270.591 325.979C265.256 325.957 260.636 325.917 257.133 325.852C254.226 325.798 250.778 325.721 248.865 325.427C241.359 324.271 235.851 319.207 232.41 314.081C226.049 320.459 217.448 325.588 206.573 325.588C204.596 325.588 198.775 325.627 190.687 325.68C178.965 325.758 162.481 325.867 146.039 325.936C132.212 325.993 118.463 326.023 107.781 325.979C102.446 325.957 97.8255 325.917 94.3231 325.852C91.4156 325.798 87.9682 325.721 86.0552 325.427C76.7159 323.988 70.4702 316.502 67.4516 310.372C64.0369 303.437 62.5631 294.248 65.8089 284.906C67.8826 278.937 75.2169 261.768 82.0459 246.157C88.8172 230.678 95.964 214.733 97.7225 211.506C99.4561 208.324 102.188 205.394 104.309 203.319C106.718 200.961 109.584 198.516 112.564 196.278C115.524 194.055 118.853 191.845 122.206 190.089C125.205 188.519 129.653 186.535 134.478 186.234C138.767 185.965 172.723 185.976 204.516 186.033C220.655 186.062 236.56 186.105 248.43 186.142C254.366 186.16 259.293 186.176 262.736 186.188C264.458 186.194 265.808 186.198 266.729 186.202L267.438 186.204C269.493 186.052 273.388 186.116 277.209 188.523C278.94 189.613 280.258 190.893 281.256 192.243C282.493 191.476 283.753 190.751 285.016 190.089C288.015 188.519 292.463 186.535 297.288 186.234C301.578 185.965 335.534 185.976 367.326 186.033C383.465 186.062 399.37 186.105 411.241 186.142C417.176 186.16 422.103 186.176 425.546 186.188C427.268 186.194 428.619 186.198 429.539 186.202L430.248 186.204C432.303 186.052 436.198 186.116 440.019 188.523C446.295 192.474 447.14 198.924 446.983 202.176C446.845 205.055 445.961 207.535 445.472 208.821C444.883 210.369 444.14 211.991 443.412 213.511L443.362 213.616L436.975 226.405C435.462 229.783 433.293 233.662 429.742 236.764C430.149 239.284 429.889 241.415 429.683 242.638C429.332 244.717 428.677 246.63 428.219 247.895L428.111 248.194L427.989 248.488L415.173 243.163C415.286 242.853 415.389 242.555 415.484 242.27C416.737 238.486 416.291 236.954 411.473 237.143H346.719C346.67 237.15 346.622 237.156 346.574 237.163C343.771 237.547 342.131 238.378 340.691 240.199C340.675 240.219 340.66 240.239 340.644 240.259C340.038 241.036 339.466 241.991 338.856 243.163L329.143 266.316C327.25 269.634 327.515 271.197 329.143 273.725C330.3 275.212 331.016 276.288 331.382 277.181C331.409 277.245 331.433 277.309 331.456 277.371C331.777 278.253 331.745 278.964 331.455 279.745C331.455 279.745 331.482 279.745 331.511 279.766C331.574 279.811 331.645 279.956 331.455 280.422C331.226 280.985 330.614 282.019 329.143 283.913C328.695 284.489 328.225 285.059 327.743 285.61C327.447 285.947 327.147 286.277 326.844 286.597C326.269 287.206 325.684 287.78 325.103 288.3C324.188 289.119 323.284 289.805 322.447 290.284C321.25 290.968 320.19 291.231 319.43 290.859C316.317 291.129 314.339 290.021 313.482 288.327C312.845 287.07 312.826 285.491 313.417 283.913C313.676 283.221 314.548 281.155 315.796 278.254C315.825 278.188 315.853 278.121 315.882 278.054C315.914 277.981 315.945 277.907 315.977 277.832C317.631 273.99 319.89 268.801 322.243 263.415C322.364 263.137 322.486 262.858 322.608 262.579C326.358 253.999 330.279 245.074 332.327 240.418C332.409 240.232 332.488 240.052 332.564 239.879C333.323 238.154 333.768 237.143 333.768 237.143C336.78 230.48 339.512 228.46 345.579 228.346C345.946 228.339 346.326 228.339 346.719 228.345H411.473C416.248 228.655 419.174 228.112 421.561 225.343C422.58 224.161 423.5 222.573 424.424 220.473L430.872 207.563C430.853 212.531 430.849 213.659 430.847 213.915C430.848 213.915 430.848 213.915 430.848 213.915L430.872 207.563L430.899 207.507C431.166 206.949 431.412 206.426 431.634 205.936C433.691 201.404 433.782 199.735 430.899 200.098C430.899 200.098 426.512 200.082 419.331 200.059C419.241 200.059 419.151 200.058 419.06 200.058C387.645 199.956 304.152 199.723 298.153 200.098C294.279 200.341 288.25 203.883 282.986 207.934C281.16 209.339 279.426 210.806 277.906 212.217C277.858 212.262 277.81 212.306 277.763 212.35C275.364 214.592 273.517 216.685 272.714 218.158C272.269 218.975 271.264 221.093 269.874 224.116ZM419.617 198.702C419.619 198.7 419.606 198.746 419.57 198.844C419.597 198.752 419.615 198.703 419.617 198.702ZM318.946 283.278C318.946 283.279 318.946 283.279 318.947 283.28C318.954 283.291 318.958 283.298 318.959 283.299C318.959 283.3 318.955 283.293 318.946 283.278ZM412.322 251.022C412.321 251.023 412.287 251.023 412.223 251.02C412.291 251.019 412.323 251.021 412.322 251.022ZM156.135 283.278C156.136 283.279 156.136 283.279 156.136 283.28C156.145 283.292 156.149 283.299 156.148 283.299C156.148 283.299 156.144 283.292 156.135 283.278ZM256.807 198.702C256.809 198.7 256.796 198.746 256.76 198.844C256.787 198.752 256.805 198.703 256.807 198.702Z" fill="white"/>
</svg>
