<svg viewBox="0 0 512 512" fill="none" xmlns="http://www.w3.org/2000/svg">
	<path d="m268.089 205.507.895.447.003-.007.004-.008-.902-.432Zm.735-1.571.911.413-.911-.413Zm1.283-5.382-.825.566.825-.566Zm-2.018-.456-.004 1 .065.001.064-.008-.125-.993Zm-11.568-.039.003-1-.003 1Zm-.271-.001-.003 1 .003-1Zm-120.907.04.063.999-.063-.999ZM88.1652 309.697l.1522-.989-.1522.989Zm102.3688.092v-1h-.007l.007 1Zm.001 0v1h.007l-.007-1Zm.002 0-.007-1 .007 1Zm36.452-12.773.818.574-.818-.574Zm2.248-3.527-.866-.5.866.5Zm4.371-8.846.908.419-.908-.419Zm15.467-35.613-.922-.388.922.388Zm.017-.04-.922-.387.922.387Zm.105-.249-.922-.388.922.388Zm3.166-7.578.924.383.009-.021.007-.021-.94-.341Zm.311-.893-.95-.314.95.314Zm-3.853-5.132-.032-1 .032 1Zm-.158.005v1h.039l-.039-1Zm-64.754 0v-1h-.065l-.064.009.129.991Zm-.145.02.136.99-.136-.99Zm-5.883 3.036.784.62-.784-.62Zm-.047.06.789.614-.789-.614Zm-1.788 2.904-.887-.462-.019.037-.016.038.922.387Zm-9.713 23.153.868.496.03-.053.024-.056-.922-.387Zm0 7.409-.841.542.024.037.028.036.789-.615Zm2.239 3.456-.925.379.925-.379Zm.074.19.939-.342-.939.342Zm-.001 2.374-.938-.347-.498 1.347h1.436v-1Zm.055.021-.583.811.583-.811Zm-2.367 4.147-.79-.614.79.614Zm-1.4 1.697.752.658-.752-.658Zm-.899.987-.726-.686.726.686Zm-1.742 1.703.667.745-.667-.745Zm-2.655 1.984-.497-.868.497.868Zm-3.018.575.44-.899-.25-.122-.276.024.086.997Zm-5.948-2.532.893-.452-.893.452Zm-.064-4.414.936.351-.936-.351Zm2.379-5.659-.919-.395.919.395Zm.086-.2-.919-.395.919.395Zm.095-.221-.918-.396.918.396Zm6.266-14.418-.917-.4.917.4Zm.365-.836.916.401-.916-.401Zm9.719-22.161.915.403-.915-.403Zm.237-.539-.915-.402.915.402Zm1.204-2.736-.911-.411-.004.008.915.403Zm11.81-8.797.019 1-.019-1Zm1.141-.001-.017 1h.017v-1Zm64.754 0 .064-.998-.032-.002h-.032v1Zm4.071-.011.101.995-.101-.995Zm6.016-2.991.758.653-.758-.653Zm2.864-4.87-.895-.447-.011.022-.01.023.916.402Zm8.077 4.043-.909-.417.909.417Zm.183-.4-.908-.418.908.418Zm-4.028 8.898.912.409-.912-.409Zm-2.908 6.522-.914-.406.914.406Zm-2.843 6.432.915.403-.915-.403Zm-.151.344-.915-.403.915.403Zm-18.219 43.158.944.328-.944-.328Zm-.053 12.222.95-.313-.95.313Zm9.303 10.005.153-.989-.153.989Zm102.369.092v-1h-.007l.007 1Zm.002 0v1h.007l-.007-1Zm38.701-16.3-.866-.5.866.5Zm19.838-44.459-.921-.388.921.388Zm.017-.04.922.388v-.001l-.922-.387Zm.105-.249-.922-.388.922.388Zm15.982-2.251.923.383.001-.003-.924-.38Zm-.208.5.923.384.001-.001-.924-.383Zm-.587 1.41.923.385-.923-.385Zm-2.127 5.084.922.387-.922-.387Zm-6.801 16.03-.919-.394.919.394Zm-14.211 30.936.866.5-.866-.5Zm-50.558 23.23-.006-1 .006 1Zm-44.647.256.004 1-.004-1Zm-38.259.043-.004 1 .004-1Zm-13.458-.127-.018 1 .018-1Zm-8.268-.425-.152.988.152-.988Zm-16.455-11.346.831-.557-.679-1.011-.86.862.708.706Zm-41.723 11.599-.007-1 .007 1Zm-44.648.256.005 1-.005-1Zm-38.258.043-.005 1 .005-1Zm-13.4579-.127-.0186 1 .0186-1Zm-8.2679-.425-.1523.988.1523-.988Zm-18.6036-15.055.8972-.442-.8972.442Zm-1.6427-25.466-.9446-.329.9446.329Zm16.237-38.749.9162.401-.9162-.401Zm15.6766-34.651-.8781-.479.8781.479Zm6.5865-8.187.699.714-.699-.714Zm8.255-7.041.6.8-.6-.8Zm9.642-6.189-.464-.886.464.886Zm12.272-3.855.062.998-.062-.998Zm70.038-.201-.002 1 .002-1Zm43.914.109.003-1-.003 1Zm18.299.06.003-1-.003 1Zm.709.002-.004 1h.039l.039-.003-.074-.997Zm9.771 2.319-.533.846.533-.846Zm4.047 3.72-.805.594.548.742.783-.486-.526-.85Zm3.76-2.154-.464-.886.464.886Zm12.272-3.855.062.998-.062-.998Zm70.038-.201-.001 1 .001-1Zm43.915.109.003-1-.003 1Zm14.305.046-.003 1 .003-1Zm3.993.014.004-1-.004 1Zm.709.002-.004 1h.039l.039-.003-.074-.997Zm9.771 2.319.533-.847-.533.847Zm6.964 13.653.999.048-.999-.048Zm-1.511 6.645.935.356-.935-.356Zm-2.06 4.69.902.432-.902-.432Zm-.05.105.895.447.003-.008.004-.007-.902-.432Zm-6.387 12.789-.895-.447-.009.019-.009.019.913.409Zm-7.233 10.359-.658-.753-.417.365.088.547.987-.159Zm-.059 5.874-.986-.166.986.166Zm-1.464 5.257-.94-.34.94.34Zm-.108.299.924.383.009-.022.008-.021-.941-.34Zm-12.627-5.924.949.315-.949-.315Zm-4.011-5.127v1h.039l-.039-1Zm-64.754 0v-1h-.065l-.064.009.129.991Zm-.145.02-.135-.991.135.991Zm-5.883 3.036.784.62-.784-.62Zm-.047.06.789.614-.789-.614Zm-1.788 2.904-.887-.462-.019.037-.016.038.922.387Zm-9.713 23.153.868.496.03-.053.024-.056-.922-.387Zm0 7.409-.841.542.024.037.028.036.789-.615Zm2.239 3.456-.925.379.925-.379Zm.074.19.939-.342-.939.342Zm-.001 2.374-.937-.347-.499 1.347h1.436v-1Zm.056.021.583-.812-.583.812Zm-.056.656.927.377-.927-.377Zm-2.312 3.491-.79-.614.79.614Zm-1.4 1.697-.752-.659.752.659Zm-.899.987.727.687-.727-.687Zm-1.741 1.703.667.745-.667-.745Zm-2.656 1.984.496.868-.496-.868Zm-3.017.575.439-.899-.249-.122-.277.024.087.997Zm-5.948-2.532-.892.452.892-.452Zm-.065-4.414-.937-.351.937.351Zm2.379-5.659-.919-.395.919.395Zm.086-.2-.919-.395.919.395Zm.095-.222-.918-.395.918.395Zm6.266-14.417-.916-.4.916.4Zm.365-.836.916.401-.916-.401Zm9.719-22.161-.915-.403v.001l.915.402Zm.237-.539-.915-.402.915.402Zm1.204-2.736-.911-.411-.004.008.915.403Zm11.811-8.797-.019-1 .019 1Zm1.14-.001-.017 1h.017v-1Zm64.754 0 .065-.998-.033-.002h-.032v1Zm10.088-3.002.757.653-.757-.653Zm2.863-4.87-.895-.447-.011.022-.01.023.916.402Zm6.448-12.91-.895-.447.895.447Zm-.025 6.352-1-.005-.005.936.934.066.071-.997Zm.001 0-.071.998 1.067.075.004-1.069-1-.004Zm.051-6.408.895.447.004-.007.003-.008-.902-.432Zm.735-1.571.911.413-.911-.413Zm-.735-5.838-.004 1 .065.001.064-.008-.125-.993Zm-11.568-.039.003-1-.003 1Zm-.271-.001-.003 1 .003-1Zm-120.907.04-.062-.998.062.998Zm-15.167 7.836-.61-.792.61.792Zm-5.08 4.283-.681-.733v.001l.681.732Zm-.143.133.683.731-.683-.731Zm-5.049 5.808.878.478-.878-.478Zm146.903-19.456-.599-.801-.005.003.604.798Zm-.047.142-.96-.28 1.9.621-.94-.341Zm-100.624 84.434.842-.539-1.697 1.058.855-.519Zm.001.002.84-.542-.005-.007-.835.549Zm93.375-32.258.733.681.007-.008-.74-.673Zm-.099-.002-.005-1-.049 1.998.054-.998Zm-256.088 32.258.84-.544-1.695 1.063.855-.519Zm.001.002-.841.541h.001l.84-.541Zm100.671-84.578-.601-.8.601.8Zm-.047.142-.96-.28 1.9.621-.94-.341Zm11.153 6.679c-.219.482-.461.999-.726 1.553l1.804.863c.269-.562.518-1.092.744-1.59l-1.822-.826Zm1.369-4.403c-.009-.014.03.032.034.222.004.194-.029.476-.13.873-.201.796-.624 1.878-1.273 3.308l1.822.826c.656-1.447 1.143-2.664 1.39-3.644.23-.91.343-1.934-.193-2.716l-1.65 1.131Zm-1.068-.029c.473-.06.771-.046.946-.007.154.034.146.07.122.036l1.65-1.131c-.332-.485-.823-.743-1.338-.857-.494-.11-1.05-.099-1.63-.026l.25 1.985Zm-11.696-.032c3.59.012 6.482.021 8.476.028.997.004 1.77.007 2.294.009.261 0 .461.001.595.002h.202l.004-1 .004-1H267.89c-.134-.001-.333-.001-.595-.002-.524-.002-1.296-.005-2.294-.009-1.994-.007-4.886-.016-8.477-.028l-.006 2Zm-.271-.001c.091 0 .181.001.271.001l.006-2c-.09 0-.18-.001-.271-.001l-.006 2Zm-120.841.039c5.955-.373 89.388-.141 120.841-.039l.006-2c-31.377-.102-114.93-.336-120.972.042l.125 1.997Zm-24.624 17.539c.619-1.136 2.003-2.786 3.926-4.669 1.903-1.862 4.269-3.889 6.782-5.776s5.156-3.621 7.61-4.906c2.48-1.298 4.67-2.086 6.306-2.188l-.125-1.997c-2.065.13-4.559 1.078-7.108 2.413-2.576 1.349-5.31 3.146-7.884 5.079-2.576 1.934-5.009 4.017-6.979 5.946-1.951 1.908-3.515 3.731-4.284 5.141l1.756.957Zm-30.9228 71.162c1.8341-5.279 8.8675-21.789 15.8132-37.667 6.9496-15.888 13.7486-30.997 15.1096-33.495l-1.756-.957c-1.414 2.596-8.26 17.818-15.1859 33.65C86.91 265.171 79.8362 281.77 77.97 287.141l1.8892.657Zm8.4582 20.91c-2.5496-.393-5.5707-2.956-7.5228-6.92-1.9235-3.907-2.6852-8.954-.9354-13.99l-1.8892-.657c-1.9505 5.614-1.0933 11.217 1.0303 15.53 2.0951 4.255 5.5494 7.48 9.0126 8.014l.3045-1.977Zm102.2096.081c-15.841.105-40.235.266-61.267.308-10.516.022-20.189.014-27.53-.046-3.6706-.03-6.7545-.072-9.0678-.13-2.3481-.059-3.8253-.133-4.3448-.213l-.3045 1.977c.6759.104 2.3042.178 4.5992.235 2.33.059 5.427.101 9.1019.131 7.351.06 17.032.068 27.55.046 21.037-.042 45.436-.203 61.276-.308l-.013-2Zm.008 0h-.001v2h.001v-2Zm-.005 0h-.002l.014 2h.002l-.014-2Zm16.043-.092c-1.994 0-7.887.038-16.043.092l.013 2c8.162-.054 14.045-.092 16.03-.092v-2Zm19.597-12.256c-4.946 7.042-11.686 12.256-19.597 12.256v2c8.85 0 16.116-5.82 21.234-13.107l-1.637-1.149Zm2.201-3.452c-.684 1.182-1.418 2.338-2.201 3.452l1.637 1.149c.818-1.164 1.584-2.369 2.295-3.6l-1.731-1.001Zm4.329-8.765c-1.813 3.927-3.335 7.046-4.329 8.765l1.731 1.001c1.046-1.809 2.604-5.007 4.414-8.928l-1.816-.838Zm15.453-35.582c-3.956 9.415-10.658 25.191-15.453 35.582l1.816.838c4.811-10.426 11.526-26.233 15.481-35.645l-1.844-.775Zm.017-.039c-.005.013-.011.025-.017.039l1.844.775c.005-.012.011-.026.017-.04l-1.844-.774Zm.105-.25c-.035.083-.07.166-.105.25l1.844.774.105-.249-1.844-.775Zm4.088-7.19-.924-.383v.001s0 .001-.001.002c0 .001-.001.003-.002.006-.003.006-.006.014-.011.026-.01.023-.024.057-.043.103-.037.09-.093.225-.167.401-.146.353-.361.87-.637 1.531-.55 1.321-1.341 3.214-2.303 5.503l1.844.775c.962-2.291 1.754-4.186 2.305-5.509.276-.661.492-1.179.638-1.532.074-.177.13-.312.168-.403.018-.045.033-.08.042-.103.005-.011.009-.02.011-.026.001-.003.002-.005.003-.007 0 0 0-.001.001-.001v-.001l-.924-.383Zm-.639-1.207c-.091.274-.191.563-.301.867l1.88.681c.115-.318.222-.624.32-.919l-1.899-.629Zm-2.871-3.819c1.128-.036 1.917.034 2.455.179.525.141.723.327.813.468.1.156.185.439.134.993-.051.553-.228 1.266-.531 2.179l1.899.629c.317-.958.551-1.842.624-2.625.072-.783-.007-1.577-.442-2.255-.444-.693-1.15-1.098-1.978-1.32-.816-.219-1.831-.285-3.038-.247l.064 1.999Zm-.151.006c.051-.002.101-.004.151-.006l-.064-1.999c-.055.002-.11.004-.166.006l.079 1.999Zm-64.802.01c.046-.006.091-.012.137-.018l-.257-1.983c-.051.006-.101.013-.152.02l.272 1.981Zm-5.235 2.666c.646-.816 1.309-1.379 2.103-1.787.806-.414 1.796-.695 3.132-.879l-.272-1.981c-1.468.201-2.699.528-3.774 1.081-1.086.558-1.963 1.321-2.758 2.326l1.569 1.24Zm-.042.054.042-.054-1.569-1.24c-.017.021-.034.043-.051.065l1.578 1.229Zm-1.69 2.752c.598-1.148 1.137-2.043 1.69-2.752l-1.578-1.229c-.659.846-1.263 1.86-1.886 3.057l1.774.924Zm-9.678 23.078 9.713-23.153-1.844-.774-9.714 23.154 1.845.773Zm-.082 6.481c-.787-1.223-1.136-2.055-1.161-2.897-.025-.847.275-1.874 1.189-3.475l-1.737-.991c-.979 1.716-1.493 3.13-1.451 4.525.041 1.402.638 2.616 1.479 3.921l1.681-1.083Zm2.324 3.618c-.422-1.031-1.214-2.199-2.375-3.691l-1.578 1.229c1.153 1.482 1.793 2.464 2.103 3.22l1.85-.758Zm.088.227c-.027-.075-.057-.151-.088-.227l-1.85.758c.021.053.041.104.059.153l1.879-.684Zm-.002 3.063c.367-.992.408-1.948.002-3.063l-1.879.684c.236.649.212 1.115.001 1.685l1.876.694Zm-.299-1.138c-.135-.098-.271-.149-.379-.176-.055-.014-.104-.022-.147-.027-.022-.002-.042-.004-.061-.004-.009-.001-.018-.001-.027-.001-.004-.001-.008-.001-.013-.001H168.646s-.001 0-.001 1 0 1-.001 1h-.023c-.008 0-.017-.001-.025-.001-.017-.001-.035-.002-.054-.004-.037-.004-.078-.011-.122-.022-.088-.022-.196-.063-.303-.141l1.167-1.623Zm.287 1.845c.118-.288.202-.587.196-.883-.006-.335-.137-.713-.483-.962l-1.167 1.623c-.125-.089-.22-.206-.28-.336-.057-.124-.068-.228-.069-.285-.002-.096.023-.089-.049.089l1.852.754Zm.074-.377h-2 2-2 2-2 2Zm-2.523 4.104c1.479-1.903 2.165-3.028 2.449-3.727l-1.852-.754c-.174.427-.712 1.369-2.176 3.254l1.579 1.227Zm-1.437 1.742c.495-.565.977-1.15 1.437-1.742l-1.579-1.227c-.436.561-.893 1.116-1.363 1.652l1.505 1.317Zm-.924 1.016c.312-.33.62-.669.924-1.016l-1.505-1.317c-.287.328-.579.649-.872.96l1.453 1.373Zm-1.802 1.761c.604-.54 1.21-1.134 1.802-1.761l-1.453-1.373c-.559.591-1.125 1.145-1.683 1.644l1.334 1.49Zm-2.826 2.107c.918-.525 1.879-1.259 2.826-2.107l-1.334-1.49c-.882.79-1.729 1.428-2.485 1.861l.993 1.736Zm-3.953.605c.639.312 1.335.324 1.986.19.649-.133 1.315-.422 1.967-.795l-.993-1.736c-.544.311-1.006.496-1.377.572-.368.075-.582.032-.704-.028l-.879 1.797Zm-6.401-2.978c1.095 2.162 3.538 3.37 6.927 3.076l-.173-1.993c-2.837.246-4.349-.762-4.969-1.987l-1.785.904Zm-.109-5.217c-.667 1.781-.679 3.66.109 5.217l1.785-.904c-.485-.956-.536-2.237-.021-3.611l-1.873-.702Zm2.397-5.703c-1.242 2.889-2.127 4.983-2.397 5.703l1.873.702c.249-.664 1.109-2.702 2.362-5.615l-1.838-.79Zm.086-.2c-.029.067-.057.134-.086.2l1.838.79c.028-.066.057-.133.085-.2l-1.837-.79Zm.096-.222-.096.222 1.837.79c.032-.073.064-.147.096-.221l-1.837-.791Zm6.267-14.422c-2.353 5.386-4.612 10.577-6.267 14.422l1.837.791c1.653-3.84 3.91-9.027 6.263-14.413l-1.833-.8Zm.366-.836c-.122.279-.244.558-.366.836l1.833.8c.122-.278.243-.556.365-.835l-1.832-.801Zm9.72-22.164c-2.048 4.657-5.97 13.583-9.72 22.164l1.832.801c3.75-8.579 7.671-17.503 9.718-22.159l-1.83-.806Zm.237-.538c-.076.172-.155.352-.237.539l1.83.805c.082-.187.161-.366.237-.539l-1.83-.805Zm2.119-2.334-.915-.403v.001h-.001c0 .001 0 .001-.001.002 0 .002-.002.005-.004.009-.003.008-.008.02-.015.035-.014.031-.034.078-.061.138-.053.122-.133.302-.236.537-.206.468-.507 1.152-.886 2.015l1.83.805c.38-.863.681-1.546.887-2.015.103-.234.182-.414.236-.536.026-.061.047-.107.06-.138.007-.015.012-.027.016-.035.002-.004.003-.007.004-.009 0-.001.001-.001.001-.002v-.001l-.915-.403Zm11.792-9.797c-3.138.059-5.576.613-7.629 2.14-2.026 1.507-3.548 3.869-5.074 7.246l1.822.823c1.486-3.286 2.836-5.267 4.445-6.464 1.583-1.177 3.544-1.69 6.473-1.745l-.037-2Zm1.175-.001c-.403-.006-.795-.006-1.175.001l.037 2c.355-.007.723-.007 1.105-.001l.033-2Zm68.708-.006c-1.119.114-2.4.106-3.906.008l-.129 1.996c1.561.101 2.965.116 4.237-.014l-.202-1.99Zm5.36-2.649c-1.429 1.658-3.048 2.414-5.36 2.649l.202 1.99c2.743-.28 4.862-1.232 6.673-3.333l-1.515-1.306Zm2.705-4.619c-.903 2.054-1.777 3.542-2.705 4.619l1.515 1.306c1.109-1.287 2.077-2.974 3.021-5.12l-1.831-.805Zm9.901 4.862c.062-.135.124-.268.184-.4l-1.817-.835c-.061.132-.122.266-.184.401l1.817.834Zm-3.841 8.49c1.449-3.233 2.755-6.122 3.841-8.49l-1.817-.834c-1.09 2.376-2.399 5.27-3.849 8.506l1.825.818Zm-2.906 6.519c1.012-2.282 1.988-4.47 2.906-6.519l-1.825-.818c-.919 2.052-1.896 4.242-2.909 6.525l1.828.812Zm-2.842 6.429c.968-2.198 1.92-4.352 2.842-6.429l-1.828-.812c-.922 2.079-1.876 4.236-2.844 6.435l1.83.806Zm-.151.344c.051-.115.101-.23.151-.344l-1.83-.806c-.05.115-.101.229-.151.344l1.83.806Zm-18.19 43.083c2.046-5.889 10.555-25.736 18.19-43.083l-1.83-.806c-7.619 17.309-16.17 37.248-18.249 43.232l1.889.657Zm-.047 11.581c-1.143-3.469-1.361-7.528.047-11.581l-1.889-.657c-1.569 4.518-1.32 9.03-.058 12.864l1.9-.626Zm8.506 9.329c-1.505-.232-3.195-1.219-4.755-2.873-1.547-1.642-2.902-3.875-3.751-6.456l-1.9.626c.936 2.844 2.437 5.336 4.196 7.202 1.748 1.853 3.816 3.156 5.905 3.478l.305-1.977Zm102.209.081c-15.84.105-40.235.266-61.267.308-10.516.022-20.188.014-27.529-.046-3.671-.03-6.755-.072-9.069-.13-2.348-.059-3.825-.133-4.344-.213l-.305 1.977c.676.104 2.304.178 4.599.235 2.33.059 5.427.101 9.102.131 7.352.06 17.032.068 27.55.046 21.037-.042 45.437-.203 61.277-.308l-.014-2Zm16.046-.092c-1.994 0-7.887.038-16.044.092l.014 2c8.161-.054 14.045-.092 16.03-.092v-2Zm21.798-15.708c-5.025 8.689-12.625 15.708-21.798 15.708v2c10.253 0 18.379-7.801 23.529-16.707l-1.731-1.001Zm19.783-44.347c-2.723 6.48-6.749 15.979-10.56 24.661-3.821 8.709-7.395 16.524-9.223 19.686l1.731 1.001c1.897-3.28 5.519-11.213 9.324-19.883 3.816-8.697 7.847-18.207 10.571-24.69l-1.843-.775Zm.017-.04c-.006.013-.013.029-.017.04l1.843.775c.007-.015.011-.025.017-.039l-1.843-.776Zm.104-.249-.105.249 1.844.775.105-.249-1.844-.775Zm4.088-7.19-.924-.383v.003c-.001.001-.002.003-.003.006-.003.006-.006.014-.011.026-.009.023-.024.057-.043.103-.037.09-.093.225-.166.401-.147.353-.362.87-.637 1.531-.551 1.321-1.342 3.214-2.304 5.503l1.844.775c.962-2.291 1.754-4.186 2.306-5.509.275-.661.491-1.179.638-1.532.073-.177.129-.312.167-.403.019-.045.033-.08.043-.103.004-.011.008-.02.01-.026.002-.003.002-.005.003-.007l.001-.001v-.001l-.924-.383Zm13.749 5.687c-.009.021.067-.146.067-.36.001-.251-.091-.449-.182-.578-.079-.112-.162-.181-.198-.209-.041-.033-.077-.056-.096-.067-.037-.023-.068-.038-.076-.043-.013-.006-.023-.011-.028-.013-.011-.005-.019-.008-.021-.01-.004-.001-.007-.003-.009-.003-.007-.003-.017-.007-.029-.012-.026-.011-.077-.033-.177-.074-.2-.083-.601-.25-1.402-.583-1.602-.665-4.806-1.996-11.214-4.658l-.767 1.847c6.408 2.662 9.612 3.993 11.214 4.658.801.333 1.201.499 1.401.582.1.042.15.063.174.073.013.005.016.006.015.006-.001 0-.003-.001-.005-.002s-.01-.004-.02-.009c-.004-.002-.015-.007-.027-.013-.009-.004-.039-.02-.076-.042-.019-.012-.055-.035-.097-.068-.035-.028-.119-.097-.197-.208-.091-.129-.183-.328-.183-.579.001-.213.077-.381.068-.359l1.865.724Zm-.009.02.001-.002-1.849-.761-.001.002 1.849.761Zm-.796 1.915c.254-.609.452-1.086.587-1.411l-1.847-.768c-.134.325-.332.801-.586 1.409l1.846.77Zm-2.128 5.086c.891-2.122 1.621-3.869 2.128-5.086l-1.846-.77c-.507 1.216-1.236 2.961-2.126 5.082l1.844.774Zm-6.805 16.038c2.594-6.04 5.025-11.796 6.805-16.038l-1.844-.774c-1.779 4.239-4.207 9.989-6.798 16.023l1.837.789Zm-14.263 31.041c3.103-5.366 9.305-19.495 14.263-31.041l-1.837-.789c-4.984 11.603-11.129 25.593-14.157 30.829l1.731 1.001Zm-35.538 23.638c17.744 0 29.517-13.226 35.538-23.638l-1.731-1.001c-5.902 10.205-17.151 22.639-33.807 22.639v2Zm-15.879.092c8.09-.053 13.906-.092 15.879-.092v-2c-1.981 0-7.808.039-15.892.092l.013 2Zm-44.65.256c16.443-.069 32.928-.178 44.65-.256l-.013-2c-11.723.078-28.205.187-44.646.256l.009 2Zm-38.267.043c10.687.044 24.439.014 38.267-.043l-.009-2c-13.826.057-27.572.087-38.25.043l-.008 2Zm-13.472-.127c3.509.065 8.135.105 13.472.127l.008-2c-5.333-.022-9.948-.062-13.443-.127l-.037 2Zm-8.402-.437c1.996.308 5.525.383 8.402.437l.037-2c-2.939-.055-6.304-.132-8.134-.414l-.305 1.977Zm-17.133-11.776c3.53 5.259 9.251 10.562 17.133 11.776l.305-1.977c-7.132-1.098-12.427-5.921-15.777-10.914l-1.661 1.115Zm-25.007 11.949c11.217 0 20.058-5.296 26.545-11.801l-1.416-1.412c-6.235 6.252-14.596 11.213-25.129 11.213v2Zm-15.879.092c8.09-.053 13.906-.092 15.879-.092v-2c-1.981 0-7.808.039-15.893.092l.014 2Zm-44.65.256c16.443-.069 32.928-.178 44.65-.256l-.014-2c-11.722.078-28.205.187-44.645.256l.009 2Zm-38.268.043c10.687.044 24.44.014 38.268-.043l-.009-2c-13.827.057-27.572.087-38.25.043l-.009 2Zm-13.4715-.127c3.5096.065 8.1355.105 13.4715.127l.009-2c-5.333-.022-9.9482-.062-13.4433-.127l-.0372 2Zm-8.4016-.437c1.9959.308 5.525.383 8.4016.437l.0372-2c-2.9385-.055-6.304-.132-8.1343-.414l-.3045 1.977Zm-19.3484-15.601c3.0872 6.269 9.548 14.092 19.3484 15.601l.3045-1.977c-8.8782-1.367-14.9087-8.517-17.8586-14.508l-1.7943.884Zm-1.6902-26.237c-3.3465 9.632-1.8242 19.099 1.6902 26.237l1.7943-.884c-3.3152-6.733-4.7404-15.644-1.5953-24.696l-1.8892-.657Zm16.2654-38.821c-6.8212 15.593-14.1757 32.807-16.2654 38.821l1.8892.657c2.0576-5.922 9.3719-23.048 16.2086-38.676l-1.8324-.802Zm15.7147-34.729c-1.7852 3.277-8.9551 19.277-15.7147 34.729l1.8324.802c6.7831-15.506 13.9067-31.395 15.6385-34.574l-1.7562-.957Zm6.7646-8.423c-2.135 2.09-4.9566 5.105-6.7646 8.423l1.7562.957c1.6594-3.045 4.3014-5.889 6.4074-7.951l-1.399-1.429Zm8.354-7.125c-3.011 2.261-5.91 4.734-8.354 7.125l1.399 1.429c2.376-2.324 5.208-4.741 8.156-6.955l-1.201-1.599Zm9.779-6.276c-3.413 1.787-6.789 4.03-9.779 6.276l1.201 1.599c2.93-2.2 6.213-4.379 9.506-6.103l-.928-1.772Zm12.673-3.967c-5.038.315-9.638 2.378-12.673 3.967l.928 1.772c2.962-1.551 7.259-3.455 11.87-3.743l-.125-1.996Zm70.103-.203c-31.759-.057-65.771-.068-70.103.203l.125 1.996c4.247-.266 38.148-.256 69.974-.199l.004-2Zm43.915.109c-11.87-.037-27.776-.08-43.915-.109l-.004 2c16.138.029 32.043.072 43.913.109l.006-2Zm14.306.046c-3.443-.012-8.37-.028-14.306-.046l-.006 2c5.936.018 10.862.034 14.306.046l.006-2Zm3.993.014c-.92-.004-2.271-.008-3.993-.014l-.006 2c1.721.006 3.072.01 3.992.014l.007-2Zm.709.002-.709-.002-.007 2 .709.002.007-2Zm10.301 2.472c-4.078-2.568-8.22-2.629-10.378-2.469l.148 1.994c1.953-.145 5.599-.077 9.164 2.168l1.066-1.693Zm4.318 3.973c-1.07-1.448-2.479-2.815-4.318-3.973l-1.066 1.693c1.624 1.022 2.85 2.216 3.775 3.468l1.609-1.188Zm2.492-2.446c-1.287.674-2.567 1.412-3.823 2.19l1.053 1.7c1.22-.755 2.459-1.469 3.698-2.118l-.928-1.772Zm12.673-3.967c-5.038.315-9.638 2.378-12.673 3.967l.928 1.772c2.963-1.551 7.26-3.455 11.87-3.743l-.125-1.996Zm70.103-.203c-31.759-.057-65.77-.068-70.103.203l.125 1.996c4.248-.266 38.148-.256 69.975-.199l.003-2Zm43.916.109c-11.871-.037-27.777-.08-43.916-.109l-.003 2c16.137.029 32.043.072 43.913.109l.006-2Zm14.306.046c-3.444-.012-8.371-.028-14.306-.046l-.006 2c5.935.018 10.862.034 14.305.046l.007-2Zm3.993.014c-.921-.004-2.272-.008-3.993-.014l-.007 2c1.721.006 3.072.01 3.993.014l.007-2Zm.709.002-.709-.002-.007 2 .708.002.008-2Zm10.3 2.472c-4.078-2.568-8.22-2.629-10.378-2.469l.148 1.994c1.953-.145 5.599-.077 9.165 2.168l1.065-1.693Zm7.43 14.548c.165-3.428-.719-10.322-7.43-14.548l-1.065 1.693c5.84 3.677 6.646 9.682 6.498 12.759l1.997.096Zm-1.575 6.953c.498-1.311 1.429-3.911 1.575-6.953l-1.997-.096c-.131 2.716-.968 5.075-1.448 6.338l1.87.711Zm-2.093 4.766c.731-1.527 1.489-3.179 2.093-4.766l-1.87-.711c-.573 1.508-1.302 3.1-2.027 4.613l1.804.864Zm-.05.105.05-.105-1.804-.864-.05.105 1.804.864ZM430.4 235.517c3.708-3.239 5.949-7.268 7.488-10.703l-1.826-.818c-1.487 3.321-3.584 7.05-6.978 10.015l1.316 1.506Zm.269 5.288c.215-1.278.491-3.529.06-6.2l-1.974.318c.382 2.37.139 4.38-.058 5.549l1.972.333Zm-1.509 5.431c.462-1.278 1.142-3.26 1.509-5.431l-1.972-.333c-.336 1.986-.965 3.831-1.418 5.083l1.881.681Zm-.108.298.108-.298-1.881-.681-.108.298 1.881.681Zm-.139.337.122-.294-1.848-.766-.121.294 1.847.766Zm-14.123-4.784 12.816 5.324.767-1.847-12.816-5.324-.767 1.847Zm-.256-2.131c-.09.274-.191.563-.301.867l1.881.681c.114-.318.221-.624.319-.919l-1.899-.629Zm-3.022-3.813c1.167-.046 1.988.017 2.552.159.554.139.765.329.86.471.102.152.192.431.143.986-.049.555-.227 1.273-.533 2.197l1.899.629c.321-.968.557-1.861.626-2.651.07-.792-.018-1.594-.473-2.273-.462-.691-1.188-1.086-2.033-1.298-.835-.211-1.877-.268-3.119-.219l.078 1.999Zm-64.802.01c.046-.006.091-.012.138-.018l-.258-1.983c-.051.006-.101.013-.151.02l.271 1.981Zm-5.235 2.666c.646-.816 1.309-1.379 2.103-1.787.806-.414 1.797-.695 3.132-.879l-.271-1.981c-1.468.201-2.7.528-3.775 1.081-1.086.558-1.963 1.321-2.757 2.326l1.568 1.24Zm-.042.054c.014-.017.028-.035.042-.054l-1.568-1.24c-.017.021-.034.043-.052.065l1.578 1.229Zm-1.69 2.752c.598-1.148 1.138-2.043 1.69-2.752l-1.578-1.229c-.659.846-1.263 1.86-1.886 3.057l1.774.924Zm-9.678 23.078 9.713-23.153-1.844-.774-9.713 23.154 1.844.773Zm-.081 6.481c-.788-1.223-1.137-2.055-1.162-2.897-.025-.847.276-1.874 1.189-3.475l-1.737-.991c-.979 1.716-1.492 3.13-1.451 4.525.041 1.402.639 2.616 1.479 3.921l1.682-1.083Zm2.323 3.618c-.422-1.031-1.214-2.199-2.375-3.691l-1.578 1.229c1.153 1.482 1.793 2.464 2.103 3.22l1.85-.758Zm.088.227c-.027-.075-.056-.151-.088-.227l-1.85.758c.021.053.041.104.059.154l1.879-.685Zm-.002 3.063c.368-.992.408-1.948.002-3.063l-1.879.684c.236.649.212 1.115.002 1.685l1.875.694Zm-.299-1.138c-.135-.098-.271-.149-.379-.176-.055-.014-.104-.022-.147-.027-.022-.002-.042-.004-.06-.004-.01-.001-.019-.001-.027-.001-.005-.001-.009-.001-.013-.001h-.012l-.001 1c0 1 0 1-.001 1h-.023c-.008 0-.017-.001-.025-.001-.018-.001-.035-.002-.054-.004-.037-.004-.078-.011-.122-.022-.088-.022-.196-.063-.303-.14l1.167-1.624Zm.288 1.845c.117-.288.201-.587.195-.883-.006-.334-.137-.713-.483-.962l-1.167 1.624c-.124-.09-.22-.208-.28-.337-.057-.124-.068-.228-.069-.285-.002-.096.024-.089-.049.089l1.853.754Zm-2.45 3.727c1.479-1.903 2.165-3.028 2.45-3.727l-1.853-.754c-.174.427-.711 1.369-2.176 3.254l1.579 1.227Zm-1.437 1.742c.496-.565.978-1.15 1.437-1.742l-1.579-1.227c-.436.561-.893 1.116-1.362 1.652l1.504 1.317Zm-.924 1.016c.312-.33.621-.669.924-1.016l-1.504-1.317c-.288.328-.579.649-.873.96l1.453 1.373Zm-1.801 1.761c.604-.54 1.209-1.134 1.801-1.761l-1.453-1.373c-.559.591-1.125 1.145-1.682 1.644l1.334 1.49Zm-2.827 2.107c.918-.525 1.879-1.259 2.827-2.107l-1.334-1.49c-.883.79-1.729 1.428-2.486 1.861l.993 1.736Zm-3.953.605c.639.312 1.335.324 1.986.19.649-.133 1.315-.422 1.967-.795l-.993-1.736c-.544.311-1.006.496-1.376.572-.369.075-.583.032-.705-.028l-.879 1.797Zm-6.4-2.978c1.094 2.162 3.537 3.37 6.926 3.076l-.173-1.993c-2.837.246-4.349-.762-4.969-1.987l-1.784.904Zm-.11-5.217c-.667 1.781-.679 3.66.11 5.217l1.784-.904c-.485-.956-.536-2.237-.021-3.611l-1.873-.702Zm2.397-5.703c-1.242 2.889-2.127 4.983-2.397 5.703l1.873.702c.249-.664 1.109-2.702 2.362-5.615l-1.838-.79Zm.086-.2c-.028.067-.057.133-.086.2l1.838.79c.028-.066.057-.133.086-.2l-1.838-.79Zm.096-.222-.096.222 1.838.79c.031-.073.063-.147.095-.221l-1.837-.791Zm6.268-14.422c-2.353 5.386-4.613 10.577-6.268 14.422l1.837.791c1.653-3.84 3.911-9.027 6.263-14.413l-1.832-.8Zm.365-.836c-.122.279-.244.558-.365.836l1.832.8c.122-.278.243-.556.365-.835l-1.832-.801Zm9.72-22.163c-2.048 4.656-5.97 13.582-9.72 22.163l1.832.801c3.75-8.579 7.671-17.503 9.719-22.159l-1.831-.805Zm.237-.539c-.077.175-.154.349-.237.538l1.831.806c.081-.184.162-.369.237-.539l-1.831-.805Zm2.119-2.334-.915-.403v.001c-.001.001-.001.001-.001.002-.001.002-.003.005-.004.009-.004.008-.009.02-.016.035-.013.031-.034.078-.061.138-.053.122-.133.302-.236.537-.206.468-.507 1.152-.886 2.015l1.831.805c.379-.863.68-1.546.886-2.015.103-.234.182-.414.236-.536.027-.061.047-.107.061-.138.006-.015.012-.027.015-.035.002-.004.003-.007.004-.009 0-.001.001-.001.001-.002v-.001l-.915-.403Zm11.792-9.797c-3.138.059-5.576.613-7.629 2.14-2.026 1.507-3.548 3.869-5.074 7.246l1.822.823c1.486-3.286 2.836-5.267 4.446-6.464 1.582-1.177 3.543-1.69 6.473-1.745l-.038-2Zm1.175-.001c-.403-.006-.795-.006-1.175.001l.038 2c.354-.007.722-.007 1.104-.001l.033-2Zm74.068-2.655c-1.066 1.237-2.224 1.954-3.653 2.344-1.466.399-3.259.466-5.612.313l-.13 1.996c2.422.157 4.479.107 6.267-.38 1.825-.497 3.323-1.436 4.643-2.967l-1.515-1.306Zm2.705-4.619c-.903 2.054-1.776 3.542-2.705 4.619l1.515 1.306c1.109-1.287 2.077-2.974 3.021-5.12l-1.831-.805Zm8.339-6.151c.002-.257.006-1.386.025-6.354l-2-.007c-.019 4.969-.023 6.096-.025 6.351l2 .01Zm-.928-1.002h-.001l-.142 1.994.001.001.142-1.995Zm-1.047-5.359-.024 6.352 2 .008.024-6.353-2-.007Zm.133-.498-.028.055 1.789.893.028-.055-1.789-.893Zm.719-1.538c-.219.482-.462.999-.727 1.553l1.804.863c.269-.562.518-1.092.744-1.59l-1.821-.826Zm.3-4.432c.671-.085.964-.017 1.06.029.026.012.016.012.007-.001-.003-.006.021.029.032.148.022.266-.041.734-.283 1.488-.235.734-.608 1.647-1.116 2.768l1.821.826c.52-1.145.929-2.14 1.2-2.983.263-.821.428-1.598.37-2.27-.064-.746-.416-1.417-1.161-1.777-.633-.306-1.409-.31-2.18-.213l.25 1.985Zm-11.696-.032c3.59.012 6.482.021 8.477.028.997.004 1.769.007 2.293.009.262 0 .461.001.595.002h.202l.004-1 .004-1h-.203c-.134-.001-.333-.001-.595-.002-.523-.002-1.296-.005-2.293-.009-1.995-.007-4.887-.016-8.478-.028l-.006 2Zm-.271-.001c.091 0 .181.001.271.001l.006-2c-.09 0-.18-.001-.27-.001l-.007 2Zm-120.841.039c5.955-.373 89.388-.141 120.841-.039l.007-2c-31.378-.102-114.931-.336-120.973.042l.125 1.997Zm-14.62 7.63c2.601-2.003 5.378-3.868 7.968-5.258 2.617-1.405 4.937-2.265 6.652-2.372l-.125-1.997c-2.159.135-4.791 1.167-7.473 2.607-2.71 1.454-5.579 3.385-8.242 5.435l1.22 1.585Zm-5.01 4.223c1.496-1.389 3.207-2.836 5.01-4.223l-1.22-1.585c-1.849 1.423-3.607 2.909-5.151 4.342l1.361 1.466Zm-.14.131c.046-.044.093-.087.14-.131l-1.361-1.465c-.048.045-.097.09-.145.134l1.366 1.462Zm-4.854 5.555c.721-1.322 2.465-3.323 4.854-5.555l-1.366-1.462c-2.409 2.252-4.359 4.437-5.244 6.06l1.756.957Zm-2.809 5.897c1.395-3.034 2.384-5.116 2.809-5.897l-1.756-.957c-.465.855-1.486 3.008-2.87 6.019l1.817.835Zm149.433-25.031c-.067.05-.234.164-.484.193-.309.036-.611-.075-.824-.288-.171-.172-.232-.357-.253-.434-.026-.091-.033-.166-.036-.205-.005-.08.001-.143.003-.165.003-.03.007-.054.009-.068.008-.046.018-.081.018-.083.005-.018.008-.027.006-.021-.002.008-.01.031-.025.072l1.88.682c.021-.057.038-.106.05-.146.006-.017.014-.043.022-.072.002-.008.013-.047.021-.096 0 0 .021-.105.012-.235-.003-.04-.01-.115-.035-.205-.022-.077-.083-.263-.254-.435-.212-.213-.514-.324-.824-.288-.249.029-.417.143-.484.193l1.198 1.601Zm.314-.378c.011-.036.018-.057.02-.066.002-.005.001 0-.003.011-.002.004-.008.021-.019.043-.004.01-.016.037-.034.07-.009.016-.027.048-.053.087-.014.019-.035.049-.065.083-.026.031-.078.088-.155.147l-1.208-1.595c-.134.102-.208.213-.22.231-.027.039-.045.072-.054.088-.019.034-.031.062-.036.073-.012.026-.021.048-.024.058-.009.024-.017.047-.024.066-.013.039-.028.088-.045.144l1.92.56Zm-102.427 84.693s.001.001.002.003.003.005.006.009l1.671-1.098c.002.003.004.005.005.007.001.001.001.002.001.001l-1.685 1.078Zm.003.004c.002.003.002.003 0 .001 0-.001-.002-.004-.005-.009-.002-.002-.005-.007-.008-.014-.002-.003-.005-.009-.009-.015-.003-.005-.011-.02-.02-.038l1.789-.894c-.015-.03-.029-.054-.029-.055-.004-.007-.008-.013-.01-.016-.004-.007-.007-.012-.01-.016-.005-.009-.011-.018-.017-.027l-1.681 1.083Zm-.042-.075c-.004-.009-.018-.037-.033-.074-.007-.016-.024-.059-.039-.115-.007-.028-.02-.08-.027-.147-.006-.051-.02-.2.031-.381.059-.213.243-.552.663-.684.338-.106.611-.001.691.034.176.075.286.185.293.19.055.052.092.1.096.105.021.025.036.047.038.05.005.007.009.013.011.016.007.011.012.019.012.019.003.004.003.004 0 0l-1.709 1.038c.006.011.013.022.02.033.002.003.009.014.017.026.002.003.007.01.012.017.002.004.017.025.038.051.004.004.041.052.096.104.007.006.117.116.293.191.081.034.353.14.691.034.42-.132.604-.471.663-.684.051-.182.037-.331.031-.381-.007-.067-.02-.119-.027-.147-.015-.056-.032-.099-.039-.115-.015-.038-.029-.066-.033-.074l-1.789.894Zm93.526-33.405c.121-.13.245-.194.295-.219.062-.029.114-.047.143-.056.059-.018.107-.027.126-.03.043-.007.077-.01.087-.011.027-.002.046-.002.051-.002.008-.001.014-.001.016-.001h.004H412.303c-.007 0-.015 0-.026-.001l-.108 1.997c.041.002.079.004.112.004.014 0 .035.001.058 0 .009 0 .032-.001.061-.003.011-.001.046-.004.09-.011.019-.004.067-.012.126-.03.03-.009.082-.027.143-.057.05-.024.175-.089.296-.218l-1.465-1.362Zm.638 1.679c.013-.001.023-.001.03 0h.01-.005c-.003-.001-.01-.001-.02-.002-.004 0-.033-.002-.07-.008-.007-.001-.075-.01-.158-.037-.012-.004-.18-.052-.343-.191-.086-.074-.287-.272-.338-.61-.059-.385.113-.674.249-.823l1.479 1.346c.135-.149.307-.439.249-.823-.051-.338-.252-.536-.339-.61-.163-.14-.331-.188-.343-.192-.083-.027-.152-.036-.16-.037-.039-.006-.071-.009-.079-.009-.024-.002-.047-.003-.061-.003-.032-.001-.069-.002-.111-.001l.01 2Zm-256.932 31.802-.001-.001 1.682-1.082c-.001-.002-.002-.004-.002-.005l-1.679 1.088Zm0-.001c.002.003.002.003 0 0-.001-.001-.004-.006-.009-.014-.001-.002-.008-.013-.016-.028-.002-.004-.014-.026-.028-.056-.004-.008-.026-.054-.046-.116-.007-.02-.037-.112-.046-.234-.004-.057-.011-.2.043-.373.061-.195.225-.486.583-.629l.743 1.856c.357-.143.522-.434.583-.63.054-.172.047-.315.043-.372-.009-.122-.04-.214-.046-.234-.02-.062-.042-.108-.046-.117-.014-.029-.026-.052-.029-.056-.008-.015-.015-.027-.017-.03-.005-.009-.01-.017-.013-.021-.005-.009-.012-.019-.018-.029l-1.681 1.083Zm.481-1.45c.346-.139.64-.04.733-.005.115.045.194.101.228.125.071.052.119.102.132.116.035.036.06.068.065.075.017.021.029.039.032.043.008.011.014.021.016.023.004.006.007.011.008.012.001.003.001.003-.001-.001l-1.71 1.038c.007.01.013.021.019.031.003.004.008.011.013.019.002.003.009.013.017.025.003.004.015.022.032.044.006.007.03.038.066.075.013.014.061.064.132.116.033.024.113.08.228.124.093.036.386.135.733-.004l-.743-1.856Zm101.631-82.87c-.067.05-.237.166-.49.194-.316.036-.619-.081-.829-.297-.167-.173-.226-.358-.247-.433-.024-.09-.031-.163-.033-.202-.005-.079.001-.141.003-.163.003-.029.007-.053.009-.066.008-.046.018-.081.018-.083.005-.017.008-.026.006-.02-.002.007-.01.031-.025.072l1.88.682c.021-.057.038-.106.05-.146.006-.017.014-.043.022-.072.002-.007.012-.046.02-.094.001-.001.021-.104.013-.232-.002-.039-.009-.113-.033-.203-.021-.075-.08-.26-.247-.433-.21-.216-.513-.333-.829-.297-.254.028-.424.144-.49.194l1.202 1.599Zm.312-.377c.01-.036.017-.057.02-.065.002-.006 0-.001-.004.01-.001.004-.008.021-.018.044-.004.01-.016.036-.035.07-.008.016-.027.048-.053.087-.014.019-.036.049-.065.084-.027.03-.079.088-.157.147l-1.202-1.599c-.135.102-.21.214-.223.232-.026.039-.045.072-.054.088-.019.034-.031.063-.036.074-.012.026-.021.048-.025.058-.009.024-.017.047-.023.065-.013.04-.029.089-.045.145l1.92.56Zm9.474 7.937-6.475 12.965 1.789.894 6.476-12.966-1.79-.893Zm-83.285 31.082h64.754v-2h-64.754v2Zm64.754-10.798h-64.754v2h64.754v-2Zm104.683 83.444h-.002v2h.002v-2Zm75.359-61.416.207-.5-1.847-.767-.208.5 1.848.767Zm9.165-22.521 6.387-12.789-1.79-.894-6.387 12.789 1.79.894Zm-91.151 11.291h64.754v-2h-64.754v2Zm64.754-10.798h-64.754v2h64.754v-2Zm18.504-20.229-6.448 12.91 1.789.894 6.448-12.911-1.789-.893Z" vector-effect="non-scaling-stroke"/>
</svg>