<svg viewBox="0 0 512 512" fill="none" xmlns="http://www.w3.org/2000/svg">
	<rect width="512" height="512" rx="64" fill="#ACA562"/>
	<path fill-rule="evenodd" clip-rule="evenodd" d="M283.524 512C259.257 512 234.991 512 210.725 512C212.597 505.499 214.216 498.884 215.578 492.158C213.258 488.319 210.629 484.599 207.692 480.996C206.921 478.349 207.327 475.868 208.905 473.556C212.086 468.648 215.726 464.101 219.825 459.914C221.987 454.049 224.616 448.469 227.711 443.172C235.727 438.86 243.816 434.933 251.978 431.391C250.859 428.134 249.646 424.827 248.338 421.47C245.708 421.057 243.08 420.642 240.451 420.229C222.167 423.932 204.978 420.832 188.886 410.928C179.314 401.145 170.619 390.604 162.799 379.305C159.538 368.099 155.291 357.35 150.06 347.061C147.229 345.408 144.398 343.753 141.567 342.1C139.734 344.36 138.117 346.84 136.713 349.541C135.777 346.273 135.575 342.967 136.107 339.62C134.686 342.524 133.27 345.419 131.86 348.301C130.476 345.919 130.273 343.438 131.253 340.86C134.858 335.343 138.296 329.762 141.567 324.118C135.309 325.511 128.838 325.924 122.154 325.358C118.439 319.163 117.63 312.549 119.727 305.516C117.991 304.939 116.575 303.905 115.48 302.416C112.892 305.334 109.657 306.574 105.774 306.136C102.777 306.335 100.149 305.507 97.8874 303.656C94.4235 294.341 95.2324 285.454 100.314 276.993C98.8233 270.47 96.8012 264.062 94.2475 257.771C93.0342 256.53 91.8209 255.29 90.6076 254.05C85.9481 257.053 81.0948 259.74 76.0479 262.111C74.7613 265.505 73.7502 269.019 73.0146 272.652C70.588 274.305 68.1613 274.305 65.7347 272.652C63.4218 261.918 63.4218 251.171 65.7347 240.409C66.2992 238.634 67.3103 237.188 68.768 236.068C75.0525 230.583 81.9279 226.036 89.3942 222.427C98.8827 223.186 107.376 220.706 114.874 214.986C124.029 213.589 132.926 214.416 141.567 217.466C152.387 222.718 161.891 229.952 170.079 239.168C171.842 235.699 173.056 231.979 173.719 228.007C177.744 224.745 180.575 220.612 182.212 215.606C186.122 212.024 190.368 208.924 194.952 206.305C208.703 205.065 222.454 203.824 236.205 202.584C237.627 202.065 238.84 201.238 239.845 200.104C233.612 194.162 229.164 187.134 226.498 179.022C227.105 178.401 227.711 177.781 228.318 177.161C231.406 180.423 233.833 184.143 235.598 188.323C237.282 187.016 239.102 186.809 241.058 187.703C245.872 188.723 250.321 190.583 254.404 193.283C254.808 193.076 255.213 192.87 255.618 192.663C254.677 189.428 253.464 186.328 251.978 183.362C252.26 181.586 253.07 180.966 254.404 181.502C256.222 184.579 258.042 187.68 259.864 190.803C262.911 184.891 263.517 178.69 261.684 172.201C262.685 171.102 263.898 170.689 265.324 170.961C266.304 176.875 266.708 182.663 266.537 188.323C267.515 180.365 269.942 172.924 273.817 166C276.452 172.213 279.082 178.414 281.704 184.602C283.639 182.215 283.842 179.735 282.31 177.161C283.311 176.063 284.525 175.65 285.95 175.921C285.752 178.844 285.954 181.738 286.557 184.602C287.831 178.622 291.269 174.902 296.87 173.441C295.789 177.256 294.778 180.977 293.837 184.602C296.772 182.017 300.21 180.777 304.15 180.882C303.423 184.191 301.401 186.465 298.083 187.703C298.69 188.323 299.297 188.943 299.903 189.563C303.261 187.182 306.9 185.528 310.823 184.602C314.555 186.083 318.398 186.91 322.349 187.082C322.349 188.323 322.349 189.563 322.349 190.803C308.876 190.577 307.662 193.263 318.71 198.864C320.568 201.387 322.186 204.074 323.563 206.925C333.344 213.671 341.636 221.939 348.436 231.728C352.253 241.166 355.691 250.675 358.749 260.251C367.586 246.875 378.912 236.333 392.721 228.627C394.339 228.421 395.957 228.214 397.575 228.007C409.839 232.003 421.972 236.343 433.974 241.029C437.849 244.99 441.691 248.916 445.5 252.81C447.451 268.06 448.261 283.355 447.927 298.695C443.741 302.076 441.314 300.836 440.647 294.975C435.902 292.312 431.049 289.832 426.087 287.534C423.673 289.169 421.246 290.823 418.808 292.495C416.209 304.163 412.77 315.532 408.494 326.599C409.812 330.011 411.632 333.112 413.954 335.9C415.881 343.52 414.061 349.927 408.494 355.122C404.272 355.495 400.228 356.529 396.361 358.222C389.943 358.067 386.504 354.76 386.048 348.301C382.094 355.031 377.443 361.232 372.095 366.903C370.347 367.9 368.527 368.727 366.635 369.384C362.5 367.651 358.254 367.031 353.896 367.523C350.115 373.801 346.475 380.207 342.976 386.746C345.617 389.546 348.852 391.406 352.682 392.326C348.256 394.619 343.808 394.412 339.336 391.706C338.932 392.119 338.527 392.533 338.123 392.946C339.635 395.207 340.445 397.687 340.549 400.387C339.336 400.387 338.123 400.387 336.909 400.387C337.09 399.082 336.889 397.842 336.303 396.667C335.547 402.163 334.333 402.576 332.663 397.907C317.921 407.591 302.351 415.652 285.95 422.09C278.996 422.887 272.322 421.854 265.931 418.989C264.381 423.45 263.977 427.998 264.717 432.631C269.353 436.653 274.207 440.373 279.277 443.792C281.618 452.85 285.46 461.117 290.803 468.595C289.294 471.803 287.272 474.696 284.737 477.276C284.333 479.343 283.928 481.409 283.524 483.477C283.082 492.908 283.082 502.415 283.524 512ZM236.205 190.803C236.277 190.129 236.681 189.716 237.418 189.563C241.616 191.587 245.661 193.861 249.551 196.384C248.44 196.848 247.428 197.468 246.518 198.244C242.553 196.455 239.115 193.975 236.205 190.803ZM105.167 285.054C107.671 285.379 109.289 286.826 110.02 289.394C109.246 291.511 109.246 293.784 110.02 296.215C107.634 296.511 105.409 296.098 103.347 294.975C102.806 291.462 103.413 288.155 105.167 285.054ZM125.794 312.337C131.202 315.978 131.202 318.044 125.794 318.538C125.794 316.47 125.794 314.404 125.794 312.337ZM403.641 338.38C406.281 339.884 406.685 341.952 404.854 344.581C401.871 345.605 398.838 346.432 395.755 347.061C394.47 346.9 393.459 346.28 392.721 345.201C397.758 345.213 401.398 342.94 403.641 338.38ZM222.858 493.398C223.755 493.235 224.564 493.443 225.285 494.018C223.608 499.853 222.799 499.647 222.858 493.398Z" fill="black"/>
</svg>
