<svg viewBox="0 0 512 512" fill="none" xmlns="http://www.w3.org/2000/svg">
	<path d="M139.015 222.678V367.989C97.3985 365.285 64.5 331.093 64.5 289.322V143.339C64.5 99.8032 100.237 64.5 144.335 64.5H292.151C336.117 64.5 371.773 99.5937 371.984 142.951C370.554 142.876 369.114 142.839 367.665 142.839H219.849C175.211 142.839 139.015 178.578 139.015 222.678ZM219.849 447.5C175.883 447.5 140.227 412.406 140.016 369.049C141.446 369.124 142.886 369.161 144.335 369.161H292.151C336.789 369.161 372.985 333.422 372.985 289.322V144.011C414.602 146.715 447.5 180.907 447.5 222.678V368.661C447.5 412.197 411.763 447.5 367.665 447.5H219.849Z" vector-effect="non-scaling-stroke" />
	<path d="M217.286 244.818L218.168 244.644L217.555 243.986L175.543 198.97L231.807 224.594L232.616 224.963L232.511 224.08L225.265 163.213L255.567 216.675L256.002 217.442L256.437 216.675L286.739 163.213L279.493 224.08L279.388 224.963L280.197 224.594L336.461 198.97L294.449 243.986L293.835 244.644L294.718 244.818L355.445 256.804L294.718 268.791L293.835 268.965L294.449 269.623L336.461 314.638L280.197 289.014L279.388 288.646L279.493 289.529L286.739 350.396L256.437 296.934L256.002 296.167L255.567 296.934L225.265 350.396L232.511 289.529L232.616 288.646L231.807 289.014L175.543 314.638L217.555 269.623L218.168 268.965L217.286 268.791L156.559 256.804L217.286 244.818Z" vector-effect="non-scaling-stroke" />
</svg>
