<svg viewBox="0 0 512 512" fill="none" xmlns="http://www.w3.org/2000/svg">
	<rect width="512" height="512" fill="#101010"/>
	<path d="M260.587 197.006L109.817 131.449C116.913 123.181 124.7 115.523 133.087 108.563L272.66 169.251L274.071 169.865L273.29 168.539L214.518 68.7641C225.093 66.4505 235.994 65.0071 247.141 64.5126L299.368 153.176L300.149 154.502L300.297 152.97L308.139 71.5254C318.288 74.3888 328.097 78.0644 337.491 82.4777L330.424 155.87L330.276 157.401L331.296 156.249L375.598 106.174C383.505 112.477 390.904 119.391 397.723 126.844L353.964 176.305L352.944 177.457L354.447 177.124L423.2 161.882C428.275 170.828 432.653 180.221 436.262 189.988L360.995 206.674L359.492 207.007L360.904 207.621L447.8 245.404C448.014 249.119 448.122 252.863 448.122 256.632C448.122 263.867 447.723 271.009 446.945 278.037L348.839 235.379L347.428 234.765L348.209 236.091L419.653 357.379C413.88 366.746 407.327 375.58 400.084 383.792L322.129 251.451L321.348 250.125L321.201 251.657L302.76 443.171C292.749 445.683 282.426 447.41 271.861 448.283L291.074 248.754L291.221 247.223L290.201 248.375L144.276 413.314C136.037 407.438 128.28 400.929 121.078 393.857L267.532 228.321L268.552 227.168L267.05 227.501L64.144 272.484C63.7174 267.257 63.5 261.97 63.5 256.632C63.5 251.537 63.6981 246.489 64.0869 241.495L260.496 197.952L261.998 197.619L260.587 197.006Z" vector-effect="non-scaling-stroke" />
</svg>
