<svg viewBox="0 0 512 512" fill="none" xmlns="http://www.w3.org/2000/svg">
	<rect width="512" height="512" rx="64" fill="#BCFF5E"/>
	<path fill-rule="evenodd" clip-rule="evenodd" d="M138.711 369.314C140.31 369.407 141.921 369.455 143.544 369.455H291.745C336.228 369.455 372.289 333.841 372.289 289.909V143.686C414.522 146.155 448 180.762 448 223.091V369.455C448 413.386 411.939 449 367.456 449H219.255C174.772 449 138.711 413.386 138.711 369.455V369.314ZM138.711 369.314C96.4781 366.845 63 332.238 63 289.909L63 143.545C63 99.6137 99.0607 64 143.544 64H291.745C336.228 64 372.289 99.6137 372.289 143.545V143.686C370.69 143.593 369.079 143.545 367.456 143.545H219.255C174.772 143.545 138.711 179.159 138.711 223.091V369.314Z" fill="#20133A"/>
	<path d="M153.211 257.306L216.588 244.797L172.747 197.821L231.452 224.556L223.892 161.056L255.502 216.825L287.112 161.056L279.552 224.556L338.257 197.821L294.416 244.797L357.793 257.306L294.416 269.816L338.257 316.792L279.552 290.056L287.112 353.556L255.502 297.788L223.892 353.556L231.452 290.056L172.747 316.792L216.588 269.816L153.211 257.306Z" fill="#20133A"/>
</svg>
