<svg viewBox="0 0 512 512" fill="none" xmlns="http://www.w3.org/2000/svg">
	<rect width="512" height="512" rx="64" fill="#D6E500"/>
	<path d="M400.691 384.507L322.387 251.573L303.913 443.438C293.58 446.051 282.916 447.829 271.995 448.698L291.265 248.575L145.042 413.85C136.515 407.8 128.501 401.073 121.079 393.749L267.847 227.858L64.382 272.965C63.923 267.538 63.6888 262.046 63.6888 256.5C63.6888 251.267 63.8973 246.083 64.3064 240.956L261.077 197.333L109.687 131.507C116.985 122.942 125.02 115.024 133.693 107.851L273.548 168.661L214.427 68.2927C225.335 65.865 236.591 64.3616 248.109 63.8684L300.488 152.791L308.387 70.751C318.883 73.6768 329.019 77.4683 338.711 82.0437L331.61 155.786L376.227 105.356C384.412 111.848 392.057 118.991 399.084 126.707L355.027 176.504L424.141 161.182C429.4 170.412 433.919 180.118 437.617 190.22L361.792 207.031L448.97 244.937C449.196 248.762 449.311 252.618 449.311 256.5C449.311 263.985 448.885 271.371 448.055 278.633L349.328 235.706L420.925 357.253C414.979 366.936 408.201 376.054 400.691 384.507Z" fill="#192828"/>
</svg>
