<svg viewBox="0 0 512 512" fill="none" xmlns="http://www.w3.org/2000/svg">
		<path d="M305.824 64.3702C304.704 64.6415 302.702 65.3876 301.345 66.032C298.427 67.4564 295.475 70.4069 294.558 72.8826C294.219 73.7644 293.914 74.5783 293.88 74.6461C293.812 74.714 292.115 73.8661 290.113 72.8148C288.111 71.7295 285.159 70.373 283.565 69.7964C281.325 68.9486 280.273 68.3381 279.086 67.1172C278.034 66.0998 277.016 65.4215 276.032 65.1502C270.773 63.7258 258.829 64.3363 245.562 66.7103C244.17 66.9816 242.101 67.2529 240.981 67.3885C238.232 67.6599 231.276 69.6608 227.273 71.3226C222.047 73.4931 221.199 73.9 216.584 76.6471C212.648 78.9871 211.664 79.8011 207.016 84.3455C202.435 88.89 201.688 89.7718 200.127 92.6545C198.295 96.0459 196.972 99.8782 196.361 103.507C195.784 106.932 195.784 106.966 193.952 108.933C191.237 111.85 187.2 117.615 185.265 121.312C184.281 123.177 182.755 126.704 181.872 129.18C180.312 133.521 180.21 133.69 179.056 134.063C176.681 134.844 171.354 137.828 169.352 139.558C165.517 142.813 161.717 147.222 160.53 149.8C155.576 160.584 157.442 174.455 164.907 182.323C166.264 183.748 168.334 185.477 169.555 186.223L171.761 187.512L171.659 191.039C171.625 192.972 171.523 200.501 171.455 207.725L171.286 220.883L169.691 223.291C168.843 224.614 167.655 226.683 167.112 227.87C165.959 230.311 165.992 231.634 167.248 233.228L167.96 234.144L166.501 237.23C165.721 238.96 164.635 241.401 164.126 242.724C163.617 244.013 162.701 246.251 162.158 247.675C161.581 249.1 160.496 251.508 159.749 253.034C157.17 258.155 154.49 265.582 152.624 272.907C150.655 280.606 148.111 291.798 147.296 296.308C146.346 301.633 146.041 307.839 146.007 324.457C145.973 330.358 146.041 331.07 146.753 332.8C148.043 336.055 150.214 338.904 152.284 340.159L154.116 341.244L154.32 344.229C154.456 345.856 154.558 348.705 154.592 350.537L154.625 353.894L155.983 355.183C157.306 356.438 157.442 356.777 158.731 361.83C159.478 364.781 160.462 368.002 160.869 369.054C161.276 370.071 161.955 372.004 162.362 373.361C163.278 376.379 166.569 382.958 169.487 387.706C172.1 391.912 177.156 398.762 178.072 399.339C178.954 399.881 178.886 400.153 177.801 400.424C177.258 400.526 175.188 401.306 173.118 402.12C163.312 405.952 161.344 407.546 157.815 414.668C155.474 419.382 155.27 422.604 157.069 426.131C159.41 430.743 164.126 433.626 172.134 435.356C179.056 436.882 184.824 436.78 192.12 435.016C193.239 434.779 195.547 434.304 197.209 433.999C199.992 433.49 203.046 432.609 211.936 429.726C216.686 428.166 222.115 425.487 226.899 422.299C232.43 418.568 234.873 416.194 235.212 414.227L235.45 412.803H239.488C243.186 412.803 244.476 413.006 253.943 415.007C259.643 416.228 264.393 417.245 264.461 417.313C264.529 417.381 264.122 418.331 263.545 419.45C261.204 424.062 260.39 431.354 261.916 434.474C262.867 436.407 267.176 440.985 269.755 442.715C274.641 446.038 277.05 446.717 286.449 447.429C296.051 448.141 298.528 448.175 302.532 447.599C310.303 446.445 314.476 444.987 316.953 442.477C319.023 440.409 323.909 433.151 324.452 431.32C325.232 428.742 325.47 424.096 324.961 421.926C324.554 420.196 322.721 415.041 321.839 413.142C321.602 412.667 321.432 412.158 321.398 412.023C321.398 411.853 322.45 411.277 323.706 410.734C324.961 410.191 326.827 409.242 327.811 408.564C328.795 407.919 330.899 406.766 332.46 406.054C338.567 403.171 344.37 398.898 348.883 393.947C350.376 392.285 352.819 389.639 354.312 388.046C357.365 384.756 362.082 377.973 363.236 375.158C363.677 374.141 364.084 372.682 364.186 371.936C364.457 370.105 363.507 366.544 362.218 364.577L361.2 362.949L361.81 361.355C362.252 360.066 362.455 358.032 362.625 351.758C362.828 345.314 363.032 343.279 363.609 341.075C364.389 338.056 364.559 331.714 363.948 326.322C363.778 324.728 363.507 320.624 363.303 317.165C363.134 313.706 362.828 308.212 362.625 304.956C362.455 301.7 362.15 295.799 361.946 291.899C361.777 287.965 361.471 283.082 361.268 281.047C361.098 278.978 360.793 275.553 360.589 273.416C360.419 271.28 360.046 267.447 359.741 264.972C359.3 260.902 358.892 258.426 357.06 248.659C356.789 247.268 356.381 245.2 356.178 244.081C355.974 242.961 355.499 240.757 355.092 239.163C354.719 237.569 354.278 235.399 354.176 234.347C353.938 232.211 353.124 230.854 351.563 230.006C350.647 229.464 350.579 229.26 350.036 225.394C349.697 223.189 349.188 220.205 348.883 218.815C347.899 214.304 347.084 209.183 347.118 207.623C347.118 206.775 346.847 205.588 346.541 204.944C346.202 204.333 345.795 202.434 345.591 200.705C345.422 199.009 344.98 196.092 344.607 194.227C344.268 192.362 343.895 189.92 343.759 188.801C343.284 184.188 341.519 172.692 340.875 170.148C340.502 168.656 340.06 165.909 339.857 164.043C339.348 159.194 337.074 148.002 335.276 141.694C334.055 137.353 333.206 135.25 331.069 131.011C329.61 128.095 328.117 124.805 327.743 123.652C326.691 120.43 324.995 117.446 322.213 113.952C321.5 113.071 321.5 113.071 322.111 112.189C322.484 111.714 322.925 111.307 323.163 111.307C323.4 111.307 324.995 111.918 326.725 112.698C331.204 114.631 334.496 115.377 339.891 115.58C343.759 115.75 344.947 115.682 347.559 115.106C352.92 113.919 359.808 110.188 363.202 106.661L365 104.762L368.31 98.7717C369.912 95.8733 368.305 92.2466 365.082 91.4867L365 91.4675L361.335 90.5857C356.178 89.3309 348.272 85.9056 344.472 83.2603C342.809 82.1072 340.332 80.3776 338.975 79.4619C334.122 76.0366 329.304 74.3409 323.061 73.7644L320.109 73.4931L319.702 72.0687C319.091 70.0677 317.7 67.7955 316.41 66.6763C313.628 64.3363 309.488 63.4206 305.824 64.3702Z" vector-effect="non-scaling-stroke" />
		<path d="M252.45 113.681L252.241 114.136L252.242 114.136L252.45 113.681ZM271.18 119.413L271.088 119.904L271.091 119.905L271.18 119.413ZM295.441 122.668L295.494 122.171L295.49 122.171L295.441 122.668ZM313.798 120.735L314.037 121.174L314.041 121.172L313.798 120.735ZM327.099 143.865L327.579 143.727L327.579 143.724L327.099 143.865ZM331.408 165.23L331.905 165.178L331.905 165.172L331.408 165.23ZM332.596 172.352L332.107 172.46L332.108 172.461L332.596 172.352ZM335.446 190.836L335.943 190.779L335.942 190.773L335.446 190.836ZM336.294 195.923L335.804 196.023L335.806 196.031L335.808 196.038L336.294 195.923ZM337.176 201.688L337.674 201.643L337.673 201.634L337.176 201.688ZM338.025 206.945L338.508 206.816L338.506 206.808L338.503 206.801L338.025 206.945ZM338.33 209.929L338.819 210.032L338.821 210.022L338.823 210.011L338.33 209.929ZM338.635 212.473L338.165 212.642L338.166 212.645L338.635 212.473ZM337.923 228.344L337.976 228.842L337.978 228.841L337.923 228.344ZM322.755 231.058L322.609 230.58L322.608 230.58L322.755 231.058ZM306.129 236.28L306.331 236.738L306.34 236.734L306.129 236.28ZM300.666 238.349L300.811 238.828L300.815 238.827L300.666 238.349ZM205.489 175.472L205.932 175.704L205.933 175.702L205.489 175.472ZM208.848 161.5L209.348 161.515L209.348 161.515L208.848 161.5ZM208.067 152.513L207.588 152.656L207.59 152.661L208.067 152.513ZM205.794 146.578L206.247 146.366L206.242 146.357L205.794 146.578ZM201.145 140.473L201.497 140.117L201.496 140.116L201.145 140.473ZM196.191 136.404L195.961 136.847L195.971 136.852L195.98 136.857L196.191 136.404ZM193.647 134.844L193.321 135.223L193.329 135.23L193.338 135.237L193.647 134.844ZM191.203 133.521L191.383 133.054L191.377 133.052L191.203 133.521ZM198.974 118.158L198.632 118.523L198.633 118.524L198.974 118.158ZM203.487 120.634L203.345 121.113L203.349 121.114L203.487 120.634ZM207.491 122.194L207.687 121.734L207.681 121.731L207.491 122.194ZM224.219 124.195L224.137 123.701L224.13 123.702L224.219 124.195ZM228.189 123.516L228.273 124.009L228.278 124.008L228.189 123.516ZM239.793 119.107L240.017 119.555L239.793 119.107ZM249.124 114.224L249.405 114.638L249.414 114.632L249.422 114.626L249.124 114.224ZM221.538 181.441L221.106 181.693L221.112 181.702L221.538 181.441ZM225.44 184.053L225.217 184.5L225.218 184.501L225.44 184.053ZM237.588 191.649L237.888 191.249L237.887 191.249L237.588 191.649ZM242.508 195.109L242.785 194.693L242.777 194.687L242.508 195.109ZM246.41 198.093L246.07 198.46L246.077 198.466L246.41 198.093ZM249.396 200.671L249.716 200.286L249.71 200.282L249.396 200.671ZM181.5 210L181.094 209.708L181.094 209.708L181.5 210ZM194.5 196.5L194.117 196.178L194.116 196.18L194.5 196.5ZM199.5 191.039L199.878 191.367L199.884 191.359L199.5 191.039ZM208 182L208.297 182.403L208.303 182.398L208 182ZM213.5 178.5L213.353 178.022L213.346 178.024L213.5 178.5ZM262.358 210.641L262.064 211.046L262.066 211.048L262.358 210.641ZM272.707 220.68L272.302 220.973L272.302 220.974L272.707 220.68ZM275.455 224.071L275.085 224.408L275.09 224.413L275.455 224.071ZM284.175 239.163L284.642 238.982L284.641 238.981L284.175 239.163ZM287.874 249.032L288.359 248.911L288.354 248.892L288.348 248.874L287.874 249.032ZM286.042 250.66L285.806 250.219L285.801 250.222L286.042 250.66ZM268.635 257.137L268.747 257.625L268.748 257.625L268.635 257.137ZM260.322 259.24L260.188 258.758L260.185 258.759L260.322 259.24ZM245.901 261.411L245.846 260.914L245.844 260.914L245.901 261.411ZM227.408 261.139L227.313 261.63L227.314 261.63L227.408 261.139ZM219.536 259.884L219.595 259.388L219.585 259.387L219.536 259.884ZM214.718 258.969L214.547 259.439L214.556 259.442L214.565 259.445L214.718 258.969ZM209.696 260.156L210.107 260.441L210.109 260.437L209.696 260.156ZM209.425 264.395L208.98 264.623L208.984 264.63L209.425 264.395ZM205.692 264.972L205.906 264.52L205.906 264.519L205.692 264.972ZM197.481 262.089L197.328 262.565L197.333 262.567L197.481 262.089ZM193.409 259.986L193.129 260.401L193.134 260.404L193.409 259.986ZM189.235 257.477L189.008 257.922L189.012 257.924L189.235 257.477ZM178.954 251.609L178.636 251.995L178.637 251.996L178.954 251.609ZM174.882 248.828L175.141 248.401L175.138 248.399L174.882 248.828ZM172.066 246.929L171.619 247.153L171.643 247.2L171.676 247.242L172.066 246.929ZM192.086 251.847L192.292 251.391L192.286 251.389L192.086 251.847ZM226.119 246.76L226.42 247.159L226.42 247.159L226.119 246.76ZM237.045 241.333L237.42 241.664L237.42 241.664L237.045 241.333ZM248.955 222.986L248.499 222.78L248.498 222.782L248.955 222.986ZM254.893 212.201L254.475 211.926L254.473 211.929L254.893 212.201ZM257.234 208.369L256.789 208.14L256.787 208.145L257.234 208.369ZM258.727 207.962L259.039 207.572L259.034 207.567L258.727 207.962ZM295.984 292.069L295.507 292.22L295.508 292.222L295.984 292.069ZM303.652 311.739L303.198 311.948L303.199 311.95L303.652 311.739ZM313.017 330.019L312.581 330.264L312.582 330.266L313.017 330.019ZM318.344 338.226L318.617 337.807L318.608 337.801L318.599 337.795L318.344 338.226ZM322.416 338.87L322.422 338.37H322.416V338.87ZM325.47 338.904L325.873 338.608L325.725 338.407L325.475 338.404L325.47 338.904ZM327.336 341.448L327.743 341.157L327.739 341.152L327.336 341.448ZM333.376 348.061L333.101 348.479L333.125 348.494L333.149 348.507L333.376 348.061ZM207.728 274.942L208.21 275.074L208.214 275.062L208.216 275.051L207.728 274.942ZM206.065 282.234L206.553 282.345L206.553 282.343L206.065 282.234ZM200.263 311.4L200.757 311.477L200.757 311.476L200.263 311.4ZM197.718 348.604H197.218V348.653L197.228 348.701L197.718 348.604ZM157.951 325L157.453 324.954L157.453 324.955L157.951 325ZM160.5 314L160.027 313.839L160.026 313.839L160.5 314ZM165.5 292L165.004 291.935L165.004 291.94L165.5 292ZM306.163 404.121L305.775 403.805L305.769 403.813L305.763 403.821L306.163 404.121ZM307.758 401.238L307.308 401.021L307.303 401.03L307.299 401.039L307.758 401.238ZM309.692 397.541L310.121 397.799L310.123 397.795L309.692 397.541ZM313.424 386.485L312.94 386.361L312.94 386.363L313.424 386.485ZM316.648 368.816L317.145 368.867L317.145 368.866L316.648 368.816ZM317.259 363.797L317.753 363.87L317.759 363.834V363.797H317.259ZM322.246 362.983L322.321 363.478L322.322 363.477L322.246 362.983ZM205.183 361.22L205.278 360.729L205.277 360.728L205.183 361.22ZM231.48 363.831L231.47 364.331L231.474 364.331L231.48 363.831ZM244.374 364.475L244.302 364.97L244.304 364.97L244.374 364.475ZM280.681 365.561L280.698 366.06L280.699 366.06L280.681 365.561ZM180.074 357.557L180.032 357.059L180.03 357.059L180.074 357.557ZM197.141 356.573L197.154 357.073L197.16 357.073L197.141 356.573ZM189.202 408.055L189.351 407.578L189.349 407.577L189.202 408.055ZM193.613 409.886L193.841 409.441L193.831 409.436L193.613 409.886ZM210.748 414.363L210.719 413.864L210.717 413.864L210.748 414.363ZM279.323 419.993L279.224 420.483L279.253 420.488L279.281 420.491L279.323 419.993ZM287.636 419.993L287.692 420.489L287.696 420.489L287.636 419.993ZM301.955 418.568L301.831 418.084L301.825 418.085L301.955 418.568ZM312.508 415.889L312.563 416.386L312.597 416.382L312.629 416.374L312.508 415.889ZM243.39 178.423L242.941 178.644L242.942 178.645L243.39 178.423ZM247.903 184.901L247.549 185.254L247.551 185.255L247.903 184.901ZM264.733 193.684L264.842 193.196L264.84 193.196L264.733 193.684ZM277.593 194.77L277.68 195.262L277.682 195.262L277.593 194.77ZM287.297 191.751L287.102 191.291L287.096 191.293L287.297 191.751ZM300.768 176.931L301.219 177.146L301.221 177.143L300.768 176.931ZM303.482 161.975L303.982 161.989L303.982 161.988L303.482 161.975ZM303.313 154.141L303.804 154.045L303.801 154.035L303.313 154.141ZM298.427 142.61L298.006 142.88L298.007 142.882L298.427 142.61ZM291.267 135.149L291.501 134.707L291.486 134.699L291.47 134.692L291.267 135.149ZM288.926 133.487L289.26 133.115L289.259 133.114L288.926 133.487ZM282.988 130.469L282.862 130.952L282.862 130.952L282.988 130.469ZM278.407 170.487L278.173 170.045L278.173 170.045L278.407 170.487ZM283.463 162.924L283.962 162.956L283.962 162.955L283.463 162.924ZM183.908 167.978L183.808 167.488L183.807 167.488L183.908 167.978ZM190.593 160.143L191.093 160.152V160.143H190.593ZM187.437 154.242L187.736 153.841L187.733 153.839L187.437 154.242ZM276.234 154.626L276.151 155.119L276.234 154.626ZM182.047 168.219L182.063 168.718L182.047 168.219ZM182.478 153.462L182.433 152.964L182.478 153.462ZM180.516 154.421L180.183 154.048L180.516 154.421ZM282.673 157.733L283.129 157.529L282.673 157.733ZM278.147 154.95L278.23 154.457L278.147 154.95ZM264.666 131.277L264.503 130.804L264.666 131.277ZM265.616 166.574L266.045 166.316L265.616 166.574ZM272.19 129.766L272.185 129.266L272.19 129.766ZM265.201 131.093L265.364 131.566L265.201 131.093ZM179.891 154.978L179.559 154.604L179.891 154.978ZM178.655 189.363L178.822 188.892L178.655 189.363ZM252.242 114.136C256.661 116.156 265.422 118.847 271.088 119.904L271.271 118.921C265.673 117.876 256.992 115.208 252.657 113.226L252.242 114.136ZM271.091 119.905C273.156 120.277 276.273 120.886 278.032 121.258L278.239 120.28C276.469 119.906 273.343 119.294 271.268 118.921L271.091 119.905ZM278.032 121.258C279.827 121.638 283.38 122.081 285.9 122.285L285.98 121.288C283.478 121.085 279.973 120.647 278.239 120.28L278.032 121.258ZM285.9 122.285C288.406 122.488 292.677 122.895 295.391 123.166L295.49 122.171C292.775 121.899 288.496 121.492 285.98 121.288L285.9 122.285ZM295.388 123.166C303.695 124.05 309.93 123.42 314.037 121.174L313.558 120.297C309.725 122.392 303.745 123.05 295.494 122.171L295.388 123.166ZM314.041 121.172C314.316 121.018 314.632 120.759 314.959 120.456C315.292 120.146 315.664 119.764 316.055 119.342C316.836 118.499 317.712 117.476 318.538 116.507C319.369 115.532 320.146 114.615 320.741 113.968C321.041 113.642 321.28 113.401 321.448 113.257C321.489 113.222 321.522 113.196 321.548 113.178C321.575 113.159 321.587 113.153 321.585 113.154C321.584 113.154 321.575 113.159 321.559 113.164C321.544 113.168 321.515 113.176 321.476 113.178C321.387 113.183 321.245 113.158 321.133 113.037L321.867 112.358C321.73 112.209 321.552 112.172 321.419 112.18C321.301 112.187 321.205 112.226 321.146 112.255C321.025 112.314 320.905 112.406 320.801 112.495C320.582 112.681 320.308 112.961 320.005 113.291C319.393 113.956 318.601 114.891 317.777 115.858C316.949 116.83 316.086 117.837 315.321 118.663C314.939 119.075 314.586 119.437 314.278 119.723C313.963 120.016 313.72 120.206 313.554 120.299L314.041 121.172ZM322.784 134.594C324.674 138.337 325.747 141.022 326.619 144.005L327.579 143.724C326.686 140.671 325.588 137.929 323.677 134.143L322.784 134.594ZM326.618 144.002C328.07 149.064 330.338 160.398 330.911 165.289L331.905 165.172C331.324 160.227 329.046 148.84 327.579 143.727L326.618 144.002ZM330.911 165.283C331.117 167.238 331.663 170.445 332.107 172.46L333.084 172.245C332.646 170.258 332.106 167.089 331.905 165.178L330.911 165.283ZM332.108 172.461C332.814 175.624 334 183.301 334.95 190.898L335.942 190.773C334.992 183.176 333.802 175.457 333.083 172.243L332.108 172.461ZM334.949 190.892C335.121 192.405 335.532 194.694 335.804 196.023L336.784 195.822C336.514 194.506 336.11 192.25 335.943 190.779L334.949 190.892ZM335.808 196.038C336.105 197.295 336.476 199.88 336.679 201.742L337.673 201.634C337.469 199.765 337.094 197.128 336.781 195.807L335.808 196.038ZM336.678 201.733C336.849 203.607 337.225 206.021 337.546 207.088L338.503 206.801C338.213 205.833 337.843 203.5 337.674 201.643L336.678 201.733ZM337.541 207.074C337.669 207.553 337.767 208.119 337.82 208.64C337.874 209.172 337.876 209.61 337.837 209.847L338.823 210.011C338.885 209.638 338.871 209.092 338.815 208.539C338.757 207.974 338.651 207.354 338.508 206.816L337.541 207.074ZM337.841 209.826C337.679 210.594 337.842 211.745 338.165 212.642L339.106 212.303C338.818 211.505 338.709 210.553 338.819 210.032L337.841 209.826ZM338.166 212.645C338.76 214.261 339.619 218.095 340.26 221.559C340.579 223.284 340.842 224.899 340.988 226.079C341.061 226.671 341.104 227.14 341.111 227.454C341.115 227.616 341.109 227.71 341.102 227.752C341.098 227.777 341.099 227.747 341.127 227.697C341.153 227.648 341.272 227.471 341.519 227.471V228.471C341.803 228.471 341.952 228.271 342.004 228.176C342.057 228.08 342.078 227.98 342.089 227.916C342.112 227.778 342.116 227.607 342.111 227.429C342.102 227.065 342.055 226.556 341.98 225.956C341.831 224.748 341.565 223.112 341.243 221.377C340.604 217.923 339.732 214.008 339.105 212.3L338.166 212.645ZM341.519 227.471C341.447 227.471 341.286 227.485 341.097 227.503C340.892 227.523 340.618 227.55 340.293 227.584C339.642 227.652 338.784 227.746 337.868 227.847L337.978 228.841C338.894 228.74 339.749 228.647 340.397 228.579C340.72 228.545 340.991 228.518 341.191 228.499C341.291 228.489 341.371 228.482 341.431 228.477C341.498 228.472 341.522 228.471 341.519 228.471V227.471ZM337.869 227.847C331.851 228.493 326.08 229.514 322.609 230.58L322.902 231.536C326.284 230.498 331.983 229.485 337.976 228.842L337.869 227.847ZM322.608 230.58C320.749 231.154 316.852 232.272 313.935 233.086L314.203 234.049C317.122 233.235 321.03 232.114 322.903 231.535L322.608 230.58ZM313.935 233.086C311.008 233.902 307.414 235.131 305.918 235.827L306.34 236.734C307.762 236.073 311.294 234.86 314.203 234.049L313.935 233.086ZM305.927 235.823C304.483 236.461 302.024 237.403 300.518 237.872L300.815 238.827C302.363 238.345 304.857 237.388 306.331 236.738L305.927 235.823ZM300.521 237.87C299.032 238.321 297.831 238.877 296.992 239.526C296.155 240.175 295.619 240.966 295.619 241.876H296.619C296.619 241.396 296.898 240.864 297.605 240.317C298.31 239.771 299.382 239.259 300.811 238.828L300.521 237.87ZM295.619 241.876C295.619 241.814 295.632 241.77 295.638 241.752C295.645 241.732 295.651 241.721 295.651 241.721C295.651 241.72 295.649 241.723 295.644 241.732C295.638 241.741 295.63 241.753 295.619 241.768C295.574 241.832 295.498 241.924 295.388 242.046C295.171 242.288 294.853 242.611 294.463 242.99C293.684 243.745 292.638 244.7 291.581 245.631C290.524 246.562 289.461 247.464 288.649 248.114C288.241 248.44 287.904 248.697 287.664 248.862C287.542 248.947 287.46 248.997 287.414 249.02C287.388 249.034 287.396 249.026 287.428 249.018C287.443 249.015 287.49 249.004 287.555 249.009C287.621 249.013 287.745 249.038 287.853 249.146L287.147 249.854C287.263 249.97 287.4 250 287.482 250.006C287.563 250.012 287.63 249.999 287.669 249.989C287.748 249.969 287.819 249.936 287.869 249.911C287.975 249.857 288.1 249.777 288.232 249.686C288.501 249.5 288.861 249.225 289.274 248.895C290.103 248.231 291.178 247.318 292.242 246.381C293.306 245.444 294.364 244.478 295.159 243.708C295.555 243.323 295.892 242.982 296.132 242.714C296.251 242.582 296.355 242.458 296.432 242.351C296.47 242.299 296.509 242.239 296.54 242.178C296.563 242.133 296.619 242.019 296.619 241.876H295.619ZM171.833 187.471L178.487 189.834L178.822 188.892L172.167 186.529L171.833 187.471ZM182.279 190.488C186.755 190.494 191.588 188.852 195.829 186.198C200.071 183.543 203.762 179.85 205.932 175.704L205.046 175.241C202.974 179.2 199.42 182.771 195.298 185.35C191.176 187.931 186.525 189.494 182.28 189.488L182.279 190.488ZM205.933 175.702C207.246 173.163 208.056 171.298 208.558 169.214C209.058 167.135 209.246 164.862 209.348 161.515L208.348 161.485C208.246 164.819 208.061 167.006 207.586 168.98C207.112 170.948 206.344 172.729 205.044 175.243L205.933 175.702ZM209.348 161.515C209.432 158.644 209.468 157.1 209.363 155.907C209.256 154.691 209.003 153.839 208.545 152.364L207.59 152.661C208.048 154.137 208.27 154.896 208.367 155.995C208.465 157.116 208.433 158.59 208.348 161.485L209.348 161.515ZM208.546 152.369C208.03 150.649 207.003 147.981 206.247 146.366L205.341 146.79C206.078 148.363 207.087 150.985 207.588 152.656L208.546 152.369ZM206.242 146.357C205.643 145.14 205.151 144.261 204.454 143.338C203.761 142.422 202.874 141.477 201.497 140.117L200.794 140.829C202.166 142.183 203.009 143.086 203.656 143.942C204.299 144.791 204.758 145.607 205.346 146.799L206.242 146.357ZM201.496 140.116C200.521 139.159 199.527 138.251 198.644 137.519C197.773 136.798 196.975 136.218 196.403 135.95L195.98 136.857C196.425 137.064 197.137 137.569 198.006 138.289C198.862 138.999 199.836 139.888 200.795 140.83L201.496 140.116ZM196.421 135.96C195.519 135.492 194.396 134.796 193.955 134.45L193.338 135.237C193.847 135.637 195.031 136.365 195.961 136.847L196.421 135.96ZM193.972 134.464C193.434 134.003 192.287 133.402 191.383 133.054L191.024 133.988C191.884 134.318 192.909 134.87 193.321 135.223L193.972 134.464ZM191.377 133.052C191.196 132.985 190.907 132.941 190.594 132.907C190.261 132.871 189.841 132.841 189.362 132.82C188.403 132.778 187.189 132.771 185.926 132.821C184.664 132.871 183.343 132.98 182.173 133.173C181.019 133.364 179.953 133.645 179.243 134.071L179.757 134.929C180.297 134.605 181.204 134.347 182.336 134.16C183.452 133.976 184.729 133.87 185.966 133.82C187.201 133.771 188.387 133.779 189.318 133.819C189.784 133.84 190.181 133.868 190.486 133.901C190.812 133.936 190.982 133.972 191.03 133.99L191.377 133.052ZM191.884 112.82C191.77 112.957 191.625 112.987 191.556 112.993C191.487 112.999 191.437 112.987 191.421 112.984C191.386 112.975 191.371 112.966 191.391 112.976C191.422 112.991 191.483 113.025 191.58 113.086C191.769 113.206 192.039 113.393 192.37 113.632C193.03 114.108 193.903 114.77 194.791 115.457C196.58 116.841 198.382 118.289 198.632 118.523L199.316 117.793C199.023 117.518 197.173 116.035 195.403 114.666C194.512 113.977 193.629 113.307 192.956 112.821C192.621 112.579 192.33 112.378 192.115 112.241C192.01 112.175 191.908 112.114 191.821 112.073C191.782 112.054 191.72 112.027 191.649 112.01C191.615 112.002 191.55 111.989 191.469 111.996C191.389 112.003 191.235 112.037 191.116 112.18L191.884 112.82ZM198.633 118.524C199.682 119.5 201.789 120.654 203.345 121.113L203.628 120.154C202.198 119.732 200.234 118.647 199.314 117.792L198.633 118.524ZM203.349 121.114C203.79 121.24 205.555 121.938 207.3 122.656L207.681 121.731C205.965 121.025 204.133 120.298 203.624 120.153L203.349 121.114ZM207.294 122.653C212.13 124.725 219.321 125.586 224.308 124.687L224.13 123.702C219.344 124.566 212.352 123.732 207.687 121.734L207.294 122.653ZM224.301 124.688C225.32 124.518 227.087 124.212 228.273 124.009L228.104 123.023C226.915 123.227 225.153 123.532 224.137 123.701L224.301 124.688ZM228.278 124.008C230.961 123.521 235.66 121.732 240.017 119.555L239.57 118.66C235.24 120.824 230.642 122.562 228.099 123.024L228.278 124.008ZM240.017 119.555C241.778 118.674 244.218 117.489 245.436 116.914L245.009 116.01C243.783 116.588 241.337 117.777 239.57 118.66L240.017 119.555ZM245.436 116.914C246.684 116.325 248.437 115.294 249.405 114.638L248.844 113.81C247.912 114.442 246.204 115.446 245.009 116.01L245.436 116.914ZM249.422 114.626C249.875 114.29 250.301 113.989 250.621 113.773C250.782 113.665 250.912 113.581 251.003 113.524C251.05 113.496 251.081 113.478 251.097 113.469C251.106 113.465 251.104 113.466 251.094 113.471C251.089 113.473 251.075 113.478 251.055 113.484C251.042 113.488 250.992 113.503 250.923 113.503V112.503C250.85 112.503 250.793 112.519 250.773 112.525C250.746 112.533 250.724 112.542 250.709 112.548C250.679 112.56 250.651 112.574 250.63 112.586C250.585 112.609 250.534 112.639 250.48 112.672C250.371 112.739 250.228 112.832 250.062 112.945C249.729 113.17 249.29 113.479 248.827 113.822L249.422 114.626ZM250.923 113.503C250.856 113.503 250.804 113.488 250.804 113.488C250.791 113.485 250.781 113.482 250.779 113.481C250.775 113.48 250.775 113.48 250.784 113.483C250.8 113.489 250.827 113.5 250.866 113.517C250.943 113.549 251.053 113.598 251.19 113.659C251.463 113.781 251.835 113.949 252.241 114.136L252.658 113.227C252.25 113.04 251.875 112.869 251.597 112.745C251.459 112.684 251.342 112.632 251.257 112.596C251.214 112.578 251.176 112.563 251.145 112.551C251.131 112.545 251.112 112.538 251.094 112.532C251.085 112.529 251.07 112.524 251.052 112.519C251.047 112.518 250.992 112.503 250.923 112.503V113.503ZM221.112 181.702C221.359 182.106 221.854 182.53 222.51 182.971C223.184 183.424 224.087 183.935 225.217 184.5L225.664 183.605C224.554 183.051 223.693 182.562 223.068 182.141C222.427 181.71 222.091 181.387 221.965 181.181L221.112 181.702ZM225.218 184.501C229.02 186.384 233.405 189.148 237.288 192.05L237.887 191.249C233.966 188.318 229.529 185.52 225.662 183.605L225.218 184.501ZM237.288 192.05C238.786 193.173 241.003 194.741 242.239 195.53L242.777 194.687C241.57 193.917 239.375 192.365 237.888 191.249L237.288 192.05ZM242.23 195.525C243.441 196.331 245.181 197.637 246.07 198.46L246.749 197.726C245.806 196.853 244.018 195.514 242.785 194.693L242.23 195.525ZM246.077 198.466C247.028 199.315 248.359 200.475 249.081 201.059L249.71 200.282C249.008 199.714 247.692 198.567 246.743 197.72L246.077 198.466ZM249.076 201.055C249.701 201.576 251.636 202.933 253.461 204.276C254.384 204.955 255.288 205.637 256.01 206.225C256.371 206.519 256.681 206.786 256.924 207.014C257.174 207.25 257.325 207.419 257.391 207.522L258.23 206.978C258.094 206.768 257.868 206.529 257.609 206.286C257.343 206.035 257.012 205.752 256.641 205.45C255.9 204.846 254.98 204.152 254.054 203.47C252.179 202.091 250.312 200.783 249.716 200.286L249.076 201.055ZM171.959 220.483C172.166 220.639 172.157 220.865 172.141 220.947C172.133 220.989 172.121 221.018 172.115 221.031C172.109 221.046 172.104 221.054 172.103 221.056C172.102 221.057 172.107 221.049 172.124 221.027C172.141 221.006 172.163 220.98 172.193 220.946C172.316 220.809 172.519 220.606 172.8 220.334C173.352 219.799 174.181 219.02 175.15 218.061C177.093 216.137 179.643 213.444 181.906 210.292L181.094 209.708C178.878 212.796 176.372 215.444 174.446 217.35C173.481 218.306 172.672 219.066 172.104 219.615C171.826 219.885 171.598 220.112 171.447 220.28C171.376 220.36 171.301 220.45 171.248 220.537C171.225 220.575 171.18 220.654 171.16 220.756C171.138 220.868 171.135 221.115 171.359 221.283L171.959 220.483ZM181.906 210.292C184.422 206.787 186.618 204.669 188.702 202.809C190.785 200.951 192.801 199.315 194.884 196.82L194.116 196.18C192.093 198.602 190.154 200.173 188.036 202.063C185.919 203.952 183.667 206.125 181.094 209.708L181.906 210.292ZM194.883 196.822C195.585 195.986 196.546 194.953 197.479 193.959C198.405 192.973 199.309 192.021 199.877 191.367L199.123 190.711C198.571 191.346 197.687 192.277 196.75 193.275C195.82 194.265 194.84 195.318 194.117 196.178L194.883 196.822ZM199.884 191.359C204.513 185.814 205.777 184.258 208.297 182.403L207.703 181.597C205.065 183.54 203.717 185.208 199.116 190.719L199.884 191.359ZM208.303 182.398C211.199 180.192 211.553 179.654 213.654 178.976L213.346 178.024C211.036 178.77 210.501 179.467 207.697 181.602L208.303 182.398ZM213.647 178.978C214.079 178.845 214.72 178.859 215.502 179.016C216.271 179.17 217.117 179.448 217.925 179.784C218.732 180.119 219.487 180.506 220.071 180.868C220.364 181.049 220.607 181.22 220.79 181.371C220.982 181.53 221.075 181.639 221.106 181.693L221.97 181.19C221.849 180.981 221.645 180.78 221.426 180.6C221.198 180.412 220.916 180.215 220.598 180.018C219.963 179.624 219.159 179.214 218.309 178.86C217.459 178.507 216.549 178.205 215.699 178.035C214.863 177.868 214.024 177.816 213.353 178.022L213.647 178.978ZM262.066 211.048C265.388 213.429 270.37 218.31 272.302 220.973L273.111 220.386C271.108 217.624 266.046 212.67 262.649 210.235L262.066 211.048ZM272.302 220.974C273.127 222.108 274.394 223.648 275.085 224.408L275.825 223.735C275.159 223.002 273.915 221.49 273.111 220.386L272.302 220.974ZM275.09 224.413C278.016 227.537 281.381 233.374 283.71 239.345L284.641 238.981C282.287 232.946 278.866 226.981 275.82 223.729L275.09 224.413ZM283.709 239.344C285.169 243.11 287.099 248.288 287.4 249.19L288.348 248.874C288.038 247.945 286.1 242.745 284.642 238.982L283.709 239.344ZM287.389 249.153C287.37 249.079 287.457 249.112 287.209 249.334C286.969 249.549 286.532 249.831 285.806 250.219L286.277 251.101C287.01 250.709 287.54 250.38 287.877 250.078C288.207 249.783 288.48 249.392 288.359 248.911L287.389 249.153ZM285.801 250.222C282.148 252.232 273.166 255.574 268.522 256.65L268.748 257.625C273.469 256.53 282.539 253.158 286.283 251.098L285.801 250.222ZM268.523 256.65C266.005 257.228 262.265 258.18 260.188 258.758L260.456 259.722C262.518 259.147 266.243 258.2 268.747 257.625L268.523 256.65ZM260.185 258.759C258.168 259.33 255.348 259.899 253.996 260.031L254.093 261.026C255.523 260.887 258.404 260.303 260.458 259.721L260.185 258.759ZM253.996 260.031C252.601 260.167 248.931 260.575 245.846 260.914L245.955 261.908C249.046 261.568 252.706 261.162 254.093 261.026L253.996 260.031ZM245.844 260.914C237.87 261.826 233.275 261.755 227.502 260.648L227.314 261.63C233.214 262.762 237.916 262.827 245.958 261.907L245.844 260.914ZM227.504 260.649C224.88 260.138 221.339 259.593 219.595 259.388L219.478 260.381C221.195 260.583 224.711 261.124 227.313 261.63L227.504 260.649ZM219.585 259.387C217.882 259.22 215.78 258.785 214.871 258.493L214.565 259.445C215.556 259.763 217.73 260.21 219.487 260.382L219.585 259.387ZM214.889 258.499C213.71 258.07 212.623 257.944 211.659 258.173C210.684 258.404 209.887 258.987 209.283 259.874L210.109 260.437C210.591 259.731 211.186 259.313 211.89 259.146C212.606 258.976 213.486 259.053 214.547 259.439L214.889 258.499ZM209.285 259.871C208.261 261.35 208.186 263.074 208.98 264.623L209.87 264.167C209.239 262.936 209.299 261.607 210.107 260.44L209.285 259.871ZM208.984 264.63C209.106 264.86 209.223 265.133 209.309 265.378C209.352 265.5 209.385 265.61 209.406 265.7C209.417 265.745 209.424 265.781 209.429 265.81C209.431 265.824 209.432 265.835 209.433 265.843C209.434 265.851 209.434 265.854 209.434 265.853H210.434C210.434 265.624 210.346 265.315 210.253 265.048C210.152 264.76 210.015 264.439 209.866 264.16L208.984 264.63ZM209.434 265.853C209.434 265.844 209.439 265.794 209.482 265.744C209.519 265.701 209.549 265.7 209.519 265.708C209.443 265.727 209.254 265.733 208.908 265.661C208.237 265.52 207.22 265.143 205.906 264.52L205.478 265.423C206.811 266.055 207.914 266.475 208.703 266.639C209.086 266.72 209.461 266.755 209.767 266.677C209.928 266.636 210.103 266.554 210.238 266.398C210.379 266.236 210.434 266.041 210.434 265.853H209.434ZM205.906 264.519C204.003 263.62 202.884 263.238 197.629 261.611L197.333 262.567C202.597 264.196 203.649 264.559 205.479 265.424L205.906 264.519ZM197.634 261.613C196.744 261.327 194.955 260.404 193.684 259.568L193.134 260.404C194.442 261.264 196.317 262.24 197.328 262.565L197.634 261.613ZM193.689 259.572C192.424 258.718 190.504 257.551 189.459 257.029L189.012 257.924C190.003 258.419 191.883 259.559 193.129 260.401L193.689 259.572ZM189.463 257.031C186.939 255.745 184.707 254.553 182.942 253.549C181.167 252.539 179.896 251.735 179.271 251.223L178.637 251.996C179.336 252.569 180.677 253.41 182.448 254.418C184.23 255.432 186.476 256.631 189.008 257.922L189.463 257.031ZM179.273 251.224C178.465 250.557 176.61 249.288 175.141 248.401L174.624 249.256C176.073 250.132 177.882 251.373 178.636 251.995L179.273 251.224ZM175.138 248.399C174.435 247.98 173.773 247.554 173.273 247.212C173.022 247.041 172.815 246.893 172.664 246.779C172.588 246.722 172.53 246.676 172.489 246.642C172.438 246.599 172.439 246.595 172.457 246.617L171.676 247.242C171.727 247.306 171.797 247.367 171.847 247.408C171.906 247.458 171.979 247.515 172.062 247.578C172.23 247.704 172.45 247.861 172.709 248.037C173.226 248.391 173.905 248.829 174.627 249.258L175.138 248.399ZM172.513 246.706C172.461 246.602 172.38 246.532 172.368 246.521C172.335 246.492 172.298 246.462 172.263 246.436C172.192 246.381 172.098 246.316 171.99 246.243C171.772 246.096 171.473 245.903 171.125 245.682C170.421 245.234 169.523 244.674 168.624 244.1C167.728 243.528 166.858 242.958 166.234 242.508C165.92 242.281 165.684 242.096 165.542 241.963C165.507 241.931 165.482 241.905 165.464 241.885C165.444 241.864 165.439 241.856 165.442 241.859C165.443 241.861 165.449 241.871 165.456 241.886C165.463 241.901 165.474 241.929 165.481 241.967C165.497 242.052 165.494 242.2 165.384 242.332L164.616 241.692C164.485 241.849 164.475 242.03 164.499 242.155C164.52 242.265 164.569 242.351 164.602 242.403C164.671 242.509 164.768 242.609 164.86 242.694C165.05 242.872 165.328 243.087 165.649 243.319C166.298 243.787 167.189 244.37 168.086 244.943C168.978 245.513 169.903 246.089 170.589 246.526C170.936 246.746 171.225 246.933 171.43 247.071C171.533 247.141 171.609 247.194 171.658 247.232C171.684 247.251 171.695 247.261 171.698 247.264C171.721 247.285 171.662 247.24 171.619 247.153L172.513 246.706ZM166.806 238.461C167.199 238.626 168.877 239.531 171.241 240.835C173.586 242.129 176.566 243.792 179.528 245.449C182.489 247.105 185.433 248.755 187.703 250.02C188.839 250.652 189.807 251.189 190.525 251.583C191.229 251.969 191.723 252.234 191.885 252.305L192.286 251.389C192.177 251.341 191.736 251.106 191.006 250.706C190.29 250.314 189.325 249.779 188.19 249.146C185.92 247.882 182.978 246.233 180.016 244.576C177.054 242.919 174.072 241.255 171.724 239.959C169.396 238.675 167.65 237.73 167.194 237.539L166.806 238.461ZM191.879 252.302C202.014 256.9 216.39 254.712 226.42 247.159L225.818 246.36C216.031 253.73 202.041 255.814 192.292 251.392L191.879 252.302ZM226.42 247.159C227.457 246.377 228.089 245.95 228.599 245.712C229.08 245.488 229.462 245.428 230.021 245.428V244.428C229.359 244.428 228.824 244.504 228.177 244.806C227.559 245.094 226.85 245.582 225.818 246.36L226.42 247.159ZM230.021 245.428C231.198 245.428 232.593 244.995 233.901 244.326C235.214 243.655 236.489 242.72 237.42 241.664L236.67 241.003C235.836 241.948 234.668 242.811 233.445 243.436C232.216 244.065 230.982 244.428 230.021 244.428V245.428ZM237.42 241.664C242.405 235.999 246.505 229.683 249.411 223.19L248.498 222.782C245.636 229.177 241.592 235.409 236.669 241.003L237.42 241.664ZM249.41 223.192C251.3 219.011 252.441 216.896 255.312 212.474L254.473 211.929C251.576 216.392 250.41 218.551 248.499 222.78L249.41 223.192ZM255.31 212.477C256.294 210.984 257.361 209.233 257.681 208.593L256.787 208.145C256.496 208.727 255.459 210.434 254.475 211.926L255.31 212.477ZM257.678 208.598L258.255 207.479L257.366 207.021L256.79 208.14L257.678 208.598ZM257.504 207.645L258.42 208.357L259.034 207.567L258.118 206.855L257.504 207.645ZM258.415 208.353C258.935 208.769 260.578 209.966 262.064 211.046L262.652 210.237C261.152 209.147 259.537 207.969 259.039 207.572L258.415 208.353ZM292.787 275.193C292.351 275.612 291.913 276.01 291.678 276.598C291.439 277.196 291.429 277.921 291.61 278.974C291.969 281.065 293.156 284.8 295.507 292.22L296.46 291.918C294.094 284.449 292.94 280.808 292.595 278.804C292.424 277.809 292.471 277.307 292.607 276.969C292.746 276.621 292.999 276.376 293.48 275.913L292.787 275.193ZM295.508 292.222C298.025 300.041 299.525 303.96 303.198 311.948L304.106 311.53C300.45 303.579 298.964 299.697 296.46 291.916L295.508 292.222ZM303.199 311.95C307.377 320.948 307.689 321.57 312.581 330.264L313.453 329.773C308.573 321.103 308.274 320.504 304.106 311.528L303.199 311.95ZM312.582 330.266C314.144 333.013 315.295 334.966 316.152 336.289C316.58 336.95 316.94 337.463 317.247 337.844C317.544 338.213 317.822 338.498 318.09 338.656L318.599 337.795C318.494 337.733 318.309 337.569 318.025 337.217C317.751 336.875 317.411 336.394 316.991 335.745C316.151 334.449 315.012 332.518 313.452 329.772L312.582 330.266ZM318.071 338.645C318.993 339.246 320.058 339.37 322.416 339.37V338.37C320.024 338.37 319.256 338.224 318.617 337.807L318.071 338.645ZM322.411 339.37L325.464 339.404L325.475 338.404L322.422 338.37L322.411 339.37ZM325.067 339.2L326.933 341.743L327.739 341.152L325.873 338.608L325.067 339.2ZM326.929 341.738C327.44 342.454 328.366 343.73 329.465 345.027C330.558 346.315 331.851 347.657 333.101 348.479L333.65 347.643C332.525 346.903 331.307 345.652 330.228 344.38C329.156 343.116 328.25 341.866 327.743 341.157L326.929 341.738ZM333.149 348.507L349.504 356.816L349.957 355.924L333.602 347.615L333.149 348.507ZM210.017 265.87C209.483 267.857 208.827 269.93 208.286 271.587C208.015 272.417 207.776 273.136 207.592 273.694C207.415 274.234 207.281 274.65 207.24 274.834L208.216 275.051C208.243 274.929 208.355 274.575 208.542 274.006C208.723 273.455 208.966 272.727 209.237 271.897C209.779 270.236 210.442 268.143 210.983 266.13L210.017 265.87ZM207.246 274.811C207.14 275.198 206.389 278.506 205.578 282.124L206.553 282.343C207.37 278.704 208.113 275.432 208.21 275.074L207.246 274.811ZM205.578 282.123C203.643 290.641 200.62 305.813 199.769 311.324L200.757 311.476C201.603 305.998 204.62 290.852 206.553 282.345L205.578 282.123ZM199.769 311.323C198.815 317.455 197.218 338.846 197.218 345.619H198.218C198.218 338.894 199.811 317.554 200.757 311.477L199.769 311.323ZM197.218 345.619V348.604H198.218V345.619H197.218ZM197.228 348.701L198.866 356.901L199.846 356.705L198.209 348.506L197.228 348.701ZM155.123 341.19C155.047 340.494 155.153 339.643 155.389 338.602C155.625 337.564 155.979 336.384 156.374 335.03C157.16 332.334 158.088 329.013 158.449 325.045L157.453 324.955C157.101 328.821 156.197 332.063 155.414 334.75C155.024 336.087 154.659 337.305 154.414 338.381C154.17 339.454 154.034 340.434 154.128 341.298L155.123 341.19ZM158.449 325.046C158.951 319.551 160.293 316.168 160.974 314.161L160.026 313.839C159.35 315.834 157.968 319.325 157.453 324.954L158.449 325.046ZM160.973 314.161C163.458 306.847 164.6 303.634 165.996 292.06L165.004 291.94C163.618 303.427 162.496 306.57 160.027 313.839L160.973 314.161ZM165.996 292.065C166.152 290.865 166.569 287.489 166.996 284.23C167.208 282.613 167.419 281.047 167.596 279.838C167.685 279.233 167.765 278.721 167.832 278.337C167.865 278.144 167.894 277.988 167.92 277.87C167.932 277.811 167.943 277.764 167.952 277.73C167.962 277.692 167.967 277.679 167.966 277.682L167.034 277.318C166.998 277.409 166.968 277.537 166.942 277.661C166.913 277.797 166.881 277.967 166.846 278.165C166.777 278.562 166.696 279.085 166.607 279.693C166.428 280.91 166.216 282.482 166.004 284.1C165.584 287.311 165.153 290.795 165.004 291.935L165.996 292.065ZM298.853 418.215C298.942 418.303 298.972 418.399 298.984 418.449C298.996 418.501 298.996 418.543 298.995 418.563C298.995 418.586 298.993 418.603 298.991 418.611C298.99 418.62 298.989 418.625 298.988 418.627C298.988 418.627 298.993 418.608 299.011 418.561C299.044 418.471 299.103 418.333 299.188 418.146C299.357 417.777 299.612 417.254 299.929 416.621C300.564 415.357 301.441 413.676 302.353 411.961C303.265 410.246 304.212 408.5 304.987 407.108C305.774 405.696 306.36 404.692 306.563 404.421L305.763 403.821C305.508 404.16 304.882 405.242 304.114 406.621C303.334 408.021 302.385 409.772 301.47 411.491C300.556 413.21 299.676 414.899 299.036 416.172C298.716 416.808 298.455 417.345 298.278 417.732C298.191 417.923 298.12 418.087 298.074 418.211C298.052 418.27 298.029 418.336 298.015 418.398C298.008 418.426 297.997 418.477 297.996 418.535C297.995 418.565 297.996 418.615 298.009 418.673C298.022 418.729 298.055 418.831 298.147 418.922L298.853 418.215ZM306.551 404.436C307.037 403.839 307.771 402.465 308.217 401.437L307.299 401.039C306.862 402.046 306.172 403.317 305.775 403.805L306.551 404.436ZM308.208 401.456C308.683 400.472 309.523 398.795 310.121 397.799L309.263 397.284C308.639 398.323 307.783 400.037 307.308 401.021L308.208 401.456ZM310.123 397.795C311.623 395.25 311.976 394.234 313.909 386.608L312.94 386.363C311.004 393.998 310.679 394.881 309.261 397.288L310.123 397.795ZM313.909 386.61C315.882 378.923 316.464 375.609 317.145 368.867L316.15 368.766C315.474 375.454 314.902 378.719 312.94 386.361L313.909 386.61ZM317.145 368.866C317.28 367.516 317.432 366.266 317.551 365.354C317.61 364.897 317.661 364.526 317.696 364.269C317.714 364.14 317.729 364.04 317.738 363.972C317.743 363.939 317.747 363.913 317.749 363.895C317.751 363.887 317.752 363.88 317.752 363.876C317.753 363.874 317.753 363.872 317.753 363.871C317.753 363.871 317.753 363.87 317.753 363.87C317.753 363.87 317.753 363.87 317.753 363.87C317.753 363.87 317.753 363.87 317.753 363.87C317.753 363.87 317.753 363.87 317.259 363.797C316.764 363.724 316.764 363.724 316.764 363.724C316.764 363.724 316.764 363.724 316.764 363.724C316.764 363.724 316.764 363.725 316.764 363.725C316.764 363.725 316.764 363.726 316.764 363.726C316.763 363.727 316.763 363.729 316.763 363.731C316.762 363.736 316.761 363.743 316.76 363.752C316.757 363.769 316.753 363.796 316.749 363.83C316.739 363.899 316.724 364.001 316.706 364.131C316.67 364.391 316.619 364.765 316.559 365.225C316.44 366.144 316.287 367.404 316.15 368.766L317.145 368.866ZM317.759 363.797C317.759 363.956 317.678 364.059 317.635 364.101C317.596 364.139 317.566 364.151 317.575 364.147C317.592 364.139 317.649 364.118 317.767 364.091C317.996 364.039 318.343 363.987 318.798 363.929C319.69 363.815 320.957 363.682 322.321 363.478L322.172 362.489C320.821 362.691 319.595 362.819 318.671 362.937C318.218 362.995 317.827 363.052 317.545 363.116C317.408 363.147 317.266 363.187 317.148 363.243C317.09 363.27 317.008 363.315 316.934 363.387C316.857 363.463 316.759 363.601 316.759 363.797H317.759ZM322.322 363.477C332.731 361.879 341.074 359.872 349.893 356.843L349.568 355.897C340.812 358.904 332.528 360.899 322.171 362.489L322.322 363.477ZM349.883 356.846C350.324 356.705 353.282 355.577 356.189 354.481C357.65 353.93 359.106 353.383 360.243 352.967C360.812 352.758 361.298 352.583 361.665 352.456C361.849 352.392 362 352.342 362.115 352.305C362.172 352.287 362.218 352.273 362.254 352.263C362.292 352.253 362.307 352.249 362.307 352.25L362.128 351.266C361.987 351.291 361.691 351.389 361.338 351.511C360.963 351.641 360.469 351.819 359.899 352.028C358.757 352.446 357.297 352.994 355.836 353.545C352.898 354.653 349.986 355.763 349.579 355.894L349.883 356.846ZM198.915 357.014C198.915 358.212 199.534 359.222 200.605 360.004C201.663 360.777 203.186 361.347 205.089 361.711L205.277 360.728C203.448 360.379 202.087 359.848 201.194 359.196C200.314 358.554 199.915 357.818 199.915 357.014H198.915ZM205.089 361.711C214.995 363.616 219.943 364.093 231.47 364.331L231.49 363.331C220.011 363.094 215.12 362.622 205.278 360.729L205.089 361.711ZM231.474 364.331C236.7 364.399 242.472 364.704 244.302 364.97L244.446 363.98C242.543 363.704 236.711 363.399 231.487 363.331L231.474 364.331ZM244.304 364.97C252.999 366.197 266.299 366.569 280.698 366.06L280.663 365.061C266.288 365.569 253.054 365.195 244.444 363.98L244.304 364.97ZM280.699 366.06C284.949 365.907 293.925 365.335 301.917 364.802C305.915 364.535 309.67 364.278 312.469 364.087C313.869 363.992 315.03 363.913 315.863 363.858C316.279 363.831 316.613 363.81 316.854 363.795C316.974 363.788 317.07 363.782 317.141 363.779C317.176 363.777 317.204 363.776 317.226 363.775C317.236 363.774 317.244 363.774 317.251 363.774C317.257 363.774 317.259 363.774 317.259 363.774V362.774C317.058 362.774 315.182 362.9 312.402 363.089C309.601 363.28 305.847 363.537 301.85 363.804C293.852 364.338 284.895 364.909 280.663 365.061L280.699 366.06ZM157.815 357.557C157.792 358.056 157.792 358.056 157.793 358.056C157.793 358.056 157.793 358.056 157.793 358.056C157.793 358.056 157.794 358.056 157.794 358.056C157.796 358.056 157.798 358.057 157.8 358.057C157.805 358.057 157.813 358.057 157.823 358.058C157.843 358.059 157.872 358.06 157.911 358.062C157.988 358.065 158.102 358.07 158.247 358.077C158.539 358.09 158.957 358.108 159.465 358.131C160.482 358.175 161.861 358.234 163.308 358.294C166.195 358.412 169.373 358.532 170.471 358.532V357.532C169.399 357.532 166.248 357.414 163.349 357.295C161.904 357.235 160.526 357.176 159.509 357.132C159.001 357.109 158.583 357.091 158.292 357.078C158.147 357.071 158.033 357.066 157.956 357.063C157.917 357.061 157.888 357.06 157.868 357.059C157.858 357.058 157.85 357.058 157.845 357.058C157.843 357.058 157.841 357.058 157.84 357.057C157.839 357.057 157.838 357.057 157.838 357.057C157.838 357.057 157.838 357.057 157.838 357.057C157.838 357.057 157.838 357.057 157.815 357.557ZM170.471 358.532C172.695 358.532 177.019 358.327 180.118 358.055L180.03 357.059C176.954 357.329 172.659 357.532 170.471 357.532V358.532ZM180.116 358.055C185.775 357.581 192.958 357.175 197.154 357.073L197.129 356.073C192.91 356.175 185.706 356.583 180.032 357.059L180.116 358.055ZM197.16 357.073C198.104 357.039 198.612 357.052 198.879 357.106C199.011 357.132 199.007 357.156 198.973 357.122C198.916 357.067 198.915 357.003 198.915 357.014H199.915C199.915 356.822 199.863 356.593 199.671 356.406C199.502 356.241 199.28 356.167 199.077 356.126C198.674 356.044 198.045 356.04 197.123 356.074L197.16 357.073ZM189.052 408.532C190.205 408.894 192.148 409.73 193.394 410.336L193.831 409.436C192.567 408.822 190.573 407.962 189.351 407.578L189.052 408.532ZM193.384 410.331C200.421 413.95 205.127 415.208 210.779 414.862L210.717 413.864C205.307 414.195 200.784 413.012 193.841 409.441L193.384 410.331ZM210.777 414.862C215.452 414.59 221.473 414.047 226.341 413.611C228.778 413.393 230.925 413.202 232.475 413.085C233.251 413.026 233.871 412.986 234.301 412.97C234.517 412.962 234.675 412.96 234.777 412.964C234.802 412.965 234.821 412.966 234.835 412.968C234.85 412.969 234.855 412.97 234.854 412.97C234.854 412.97 234.849 412.969 234.842 412.967C234.835 412.965 234.821 412.962 234.804 412.955C234.793 412.951 234.672 412.909 234.584 412.777L235.416 412.223C235.322 412.081 235.188 412.031 235.156 412.019C235.104 412 235.056 411.99 235.024 411.984C234.957 411.973 234.884 411.968 234.816 411.965C234.675 411.96 234.487 411.962 234.264 411.97C233.813 411.987 233.177 412.028 232.399 412.087C230.841 412.206 228.687 412.398 226.252 412.615C221.378 413.052 215.375 413.593 210.719 413.864L210.777 414.862ZM178.631 399.822C178.616 399.825 178.642 399.814 178.733 399.839C178.82 399.863 178.939 399.912 179.092 399.996C179.397 400.164 179.776 400.437 180.217 400.801C181.096 401.525 182.152 402.546 183.246 403.621C184.332 404.689 185.456 405.808 186.451 406.702C186.949 407.15 187.423 407.549 187.851 407.862C188.271 408.167 188.684 408.418 189.054 408.533L189.349 407.577C189.143 407.513 188.839 407.344 188.441 407.054C188.051 406.77 187.606 406.396 187.119 405.959C186.146 405.083 185.043 403.985 183.947 402.908C182.858 401.838 181.772 400.786 180.853 400.029C180.394 399.651 179.96 399.332 179.574 399.12C179.381 399.013 179.185 398.925 178.994 398.874C178.806 398.823 178.587 398.797 178.369 398.856L178.631 399.822ZM264.401 417.49L279.224 420.483L279.422 419.502L264.599 416.51L264.401 417.49ZM279.281 420.491C282.935 420.798 284.903 420.799 287.692 420.489L287.581 419.496C284.873 419.796 282.973 419.798 279.365 419.494L279.281 420.491ZM287.696 420.489C289.642 420.254 292.812 420.086 294.66 420.086V419.086C292.777 419.086 289.567 419.256 287.577 419.496L287.696 420.489ZM294.66 420.086C297.457 420.086 299.027 419.875 302.086 419.051L301.825 418.085C298.844 418.889 297.361 419.086 294.66 419.086V420.086ZM302.08 419.052C304.914 418.323 307.475 417.662 309.366 417.179C310.312 416.937 311.088 416.74 311.647 416.602C311.927 416.533 312.151 416.479 312.313 416.441C312.394 416.422 312.458 416.408 312.505 416.398C312.559 416.386 312.572 416.385 312.563 416.386L312.453 415.392C312.378 415.4 312.238 415.432 312.086 415.467C311.917 415.506 311.688 415.562 311.407 415.631C310.844 415.771 310.065 415.968 309.118 416.21C307.226 416.693 304.664 417.355 301.831 418.084L302.08 419.052ZM312.629 416.374C312.661 416.366 312.686 416.356 312.692 416.354C312.702 416.35 312.711 416.346 312.718 416.344C312.731 416.338 312.744 416.332 312.756 416.327C312.78 416.315 312.81 416.3 312.845 416.283C312.916 416.249 313.015 416.2 313.135 416.139C313.386 416.013 313.706 415.852 314.117 415.646C314.921 415.243 315.983 414.714 317.054 414.204C318.127 413.692 319.2 413.202 320.027 412.872C320.443 412.706 320.782 412.587 321.021 412.525C321.143 412.494 321.216 412.483 321.25 412.481C321.267 412.481 321.253 412.483 321.22 412.476C321.19 412.469 321.1 412.442 321.02 412.35L321.776 411.695C321.669 411.571 321.536 411.523 321.448 411.502C321.359 411.481 321.273 411.479 321.205 411.482C321.068 411.489 320.917 411.519 320.769 411.557C320.469 411.636 320.084 411.773 319.657 411.943C318.798 412.285 317.701 412.787 316.623 413.301C315.544 413.816 314.475 414.348 313.668 414.752C313.274 414.95 312.918 415.129 312.687 415.245C312.566 415.306 312.472 415.353 312.406 415.385C312.372 415.402 312.348 415.413 312.333 415.42C312.325 415.424 312.322 415.425 312.323 415.425C312.323 415.425 312.327 415.423 312.334 415.42C312.336 415.42 312.357 415.411 312.387 415.404L312.629 416.374ZM241.419 153.382C239.881 158.352 239.204 162.536 239.447 166.554C239.689 170.574 240.85 174.396 242.941 178.644L243.839 178.202C241.79 174.04 240.678 170.349 240.445 166.493C240.212 162.635 240.859 158.577 242.375 153.678L241.419 153.382ZM242.942 178.645C243.758 180.293 244.348 181.389 245.02 182.354C245.694 183.323 246.439 184.145 247.549 185.254L248.256 184.547C247.161 183.452 246.464 182.68 245.84 181.783C245.214 180.883 244.651 179.843 243.838 178.201L242.942 178.645ZM247.551 185.255C252.377 190.045 257.114 192.527 264.626 194.173L264.84 193.196C257.49 191.586 252.93 189.185 248.255 184.546L247.551 185.255ZM264.624 194.172C267.006 194.703 269.624 195.088 271.961 195.285C274.284 195.48 276.375 195.494 277.68 195.262L277.505 194.277C276.334 194.486 274.352 194.483 272.045 194.288C269.75 194.095 267.176 193.717 264.842 193.196L264.624 194.172ZM277.682 195.262C279.962 194.847 284.987 193.309 287.498 192.209L287.096 191.293C284.653 192.364 279.702 193.878 277.503 194.278L277.682 195.262ZM287.493 192.211C289.748 191.253 292.453 188.993 294.937 186.254C297.431 183.505 299.752 180.217 301.219 177.146L300.317 176.715C298.9 179.681 296.64 182.888 294.197 185.582C291.744 188.286 289.156 190.418 287.102 191.291L287.493 192.211ZM301.221 177.143C303.028 173.288 303.778 169.173 303.982 161.989L302.983 161.96C302.78 169.089 302.037 173.045 300.315 176.719L301.221 177.143ZM303.982 161.988C304.033 160.1 304.042 158.396 304.012 157.029C303.982 155.676 303.915 154.618 303.804 154.046L302.822 154.236C302.915 154.714 302.982 155.691 303.012 157.051C303.042 158.398 303.033 160.085 302.983 161.961L303.982 161.988ZM303.801 154.035C303.469 152.497 302.674 150.258 301.75 148.078C300.825 145.897 299.751 143.729 298.846 142.337L298.007 142.882C298.866 144.203 299.914 146.309 300.829 148.469C301.746 150.63 302.512 152.8 302.824 154.246L303.801 154.035ZM298.847 142.339C297.908 140.879 296.528 139.217 295.169 137.807C293.822 136.41 292.443 135.205 291.501 134.707L291.033 135.591C291.822 136.008 293.107 137.109 294.449 138.501C295.778 139.881 297.113 141.491 298.006 142.88L298.847 142.339ZM291.47 134.692C290.933 134.453 289.928 133.716 289.26 133.115L288.591 133.859C289.281 134.479 290.38 135.302 291.064 135.606L291.47 134.692ZM289.259 133.114C287.594 131.627 285.653 130.645 283.114 129.985L282.862 130.952C285.277 131.581 287.068 132.498 288.593 133.86L289.259 133.114ZM283.114 129.985C282.191 129.744 280.446 129.558 278.468 129.435C276.474 129.311 274.198 129.248 272.185 129.266L272.195 130.266C274.183 130.248 276.435 130.31 278.406 130.433C280.392 130.556 282.045 130.739 282.862 130.952L283.114 129.985ZM265.188 166.833C266.486 168.984 268.753 170.58 271.219 171.356C273.684 172.132 276.414 172.109 278.641 170.929L278.173 170.045C276.238 171.07 273.797 171.119 271.519 170.402C269.242 169.686 267.194 168.223 266.045 166.316L265.188 166.833ZM278.641 170.929C280.441 169.978 281.726 168.989 282.585 167.709C283.445 166.426 283.84 164.904 283.962 162.956L282.964 162.893C282.848 164.743 282.48 166.07 281.754 167.152C281.026 168.238 279.902 169.131 278.173 170.045L278.641 170.929ZM283.962 162.955C284.089 160.899 283.807 159.044 283.129 157.529L282.216 157.937C282.814 159.272 283.084 160.959 282.964 162.893L283.962 162.955ZM182.063 168.718C182.663 168.699 183.308 168.613 184.01 168.467L183.807 167.488C183.145 167.625 182.56 167.702 182.031 167.719L182.063 168.718ZM184.009 168.467C186.171 168.024 187.93 167.034 189.158 165.593C190.387 164.151 191.057 162.289 191.093 160.152L190.093 160.135C190.061 162.067 189.458 163.699 188.397 164.944C187.334 166.191 185.785 167.083 183.808 167.488L184.009 168.467ZM191.093 160.143C191.093 159.127 190.661 157.863 190.054 156.728C189.444 155.589 188.613 154.494 187.736 153.841L187.139 154.643C187.856 155.178 188.603 156.135 189.172 157.2C189.744 158.269 190.093 159.363 190.093 160.143H191.093ZM187.733 153.839C187.462 153.641 187.098 153.488 186.709 153.367C186.312 153.245 185.855 153.146 185.377 153.074C184.423 152.929 183.347 152.881 182.433 152.964L182.523 153.96C183.346 153.885 184.34 153.928 185.227 154.062C185.669 154.129 186.075 154.218 186.413 154.323C186.759 154.43 187.002 154.543 187.142 154.646L187.733 153.839ZM180.224 155.351L180.848 154.795L180.183 154.048L179.559 154.604L180.224 155.351ZM264.828 131.75L265.364 131.566L265.039 130.62L264.503 130.804L264.828 131.75ZM276.151 155.119L278.064 155.443L278.23 154.457L276.318 154.133L276.151 155.119ZM265.538 164.089C265.538 158.46 270.6 154.181 276.151 155.119L276.318 154.133C270.156 153.092 264.538 157.841 264.538 164.089H265.538ZM182.031 167.719C180.839 167.757 179.92 167.141 179.214 166.133C178.499 165.113 178.037 163.732 177.795 162.383L176.811 162.56C177.067 163.988 177.567 165.525 178.395 166.707C179.231 167.9 180.435 168.77 182.063 168.718L182.031 167.719ZM182.433 152.964C181.538 153.044 180.783 153.514 180.183 154.048L180.848 154.795C181.366 154.333 181.927 154.013 182.523 153.96L182.433 152.964ZM283.129 157.529C282.25 155.564 280.121 154.776 278.23 154.457L278.064 155.443C279.89 155.751 281.556 156.461 282.216 157.937L283.129 157.529ZM242.366 153.703C246.176 143.383 254.424 135.323 264.828 131.75L264.503 130.804C253.815 134.475 245.342 142.755 241.428 153.357L242.366 153.703ZM266.045 166.316C265.664 165.686 265.538 164.914 265.538 164.089H264.538C264.538 164.998 264.674 165.98 265.188 166.833L266.045 166.316ZM272.185 129.266C269.727 129.289 267.33 129.834 265.039 130.62L265.364 131.566C267.59 130.802 269.876 130.288 272.195 130.266L272.185 129.266ZM177.795 162.383C177.327 159.776 178.247 157.113 180.224 155.351L179.559 154.604C177.322 156.598 176.281 159.61 176.811 162.56L177.795 162.383ZM178.487 189.834C179.705 190.267 180.987 190.488 182.28 190.488V189.488C181.101 189.488 179.932 189.286 178.822 188.892L178.487 189.834ZM305.824 64.3702L306.059 65.3421L306.067 65.3402L306.075 65.3382L305.824 64.3702ZM301.345 66.032L300.916 65.1286L300.906 65.1333L301.345 66.032ZM294.558 72.8826L295.492 73.2418L295.496 73.2297L294.558 72.8826ZM293.88 74.6461L294.587 75.3534L294.702 75.2387L294.774 75.0935L293.88 74.6461ZM290.113 72.8148L289.637 73.694L289.649 73.7001L290.113 72.8148ZM283.565 69.7964L283.211 70.7317L283.218 70.7343L283.225 70.7369L283.565 69.7964ZM279.086 67.1172L279.803 66.42L279.792 66.409L279.781 66.3984L279.086 67.1172ZM276.032 65.1502L276.298 64.1862L276.293 64.185L276.032 65.1502ZM245.562 66.7103L245.385 65.7259L245.378 65.7273L245.37 65.7288L245.562 66.7103ZM240.981 67.3885L241.079 68.3837L241.09 68.3826L241.101 68.3813L240.981 67.3885ZM227.273 71.3226L226.889 70.399L226.889 70.3991L227.273 71.3226ZM216.584 76.6471L217.095 77.5066L217.096 77.5063L216.584 76.6471ZM207.016 84.3455L206.316 83.6305L206.311 83.6356L207.016 84.3455ZM200.127 92.6545L199.248 92.1783L199.248 92.1791L200.127 92.6545ZM196.361 103.507L197.347 103.673L197.347 103.673L196.361 103.507ZM193.952 108.933L193.22 108.252L193.22 108.252L193.952 108.933ZM185.265 121.312L186.15 121.778L186.152 121.775L185.265 121.312ZM181.872 129.18L182.813 129.518L182.814 129.516L181.872 129.18ZM179.056 134.063L178.748 133.112L178.744 133.113L179.056 134.063ZM169.352 139.558L169.999 140.32L170.005 140.314L169.352 139.558ZM160.53 149.8L159.621 149.381L159.621 149.382L160.53 149.8ZM164.907 182.323L164.181 183.011L164.183 183.013L164.907 182.323ZM169.555 186.223L169.034 187.077L169.042 187.082L169.051 187.087L169.555 186.223ZM171.761 187.512L172.76 187.541L172.778 186.948L172.265 186.649L171.761 187.512ZM171.659 191.039L170.659 191.01L170.659 191.021L171.659 191.039ZM171.455 207.725L172.455 207.738L172.455 207.734L171.455 207.725ZM171.286 220.883L172.119 221.436L172.282 221.19L172.286 220.896L171.286 220.883ZM169.691 223.291L168.857 222.739L168.853 222.745L168.849 222.751L169.691 223.291ZM167.112 227.87L168.016 228.297L168.022 228.286L167.112 227.87ZM167.248 233.228L168.037 232.614L168.034 232.609L167.248 233.228ZM167.96 234.144L168.865 234.571L169.127 234.015L168.75 233.53L167.96 234.144ZM166.501 237.23L165.597 236.802L165.594 236.811L165.59 236.819L166.501 237.23ZM164.126 242.724L165.056 243.091L165.06 243.083L164.126 242.724ZM162.158 247.675L163.085 248.051L163.089 248.041L163.093 248.032L162.158 247.675ZM159.749 253.034L160.642 253.484L160.647 253.473L159.749 253.034ZM152.624 272.907L153.592 273.155L153.593 273.154L152.624 272.907ZM147.296 296.308L146.312 296.13L146.312 296.132L147.296 296.308ZM146.007 324.457L147.007 324.463L147.007 324.459L146.007 324.457ZM146.753 332.8L147.683 332.431L147.678 332.419L146.753 332.8ZM152.284 340.159L151.766 341.014L151.775 341.019L152.284 340.159ZM154.116 341.244L155.114 341.176L155.078 340.652L154.626 340.384L154.116 341.244ZM154.32 344.229L153.322 344.297L153.323 344.304L153.324 344.312L154.32 344.229ZM154.592 350.537L155.592 350.527L155.591 350.518L154.592 350.537ZM154.625 353.894L153.626 353.904L153.63 354.328L153.937 354.619L154.625 353.894ZM155.983 355.183L155.294 355.908L155.295 355.908L155.983 355.183ZM158.731 361.83L159.701 361.585L159.7 361.583L158.731 361.83ZM160.869 369.054L159.936 369.415L159.94 369.425L160.869 369.054ZM162.362 373.361L161.404 373.648L161.405 373.651L162.362 373.361ZM169.487 387.706L168.635 388.23L168.638 388.234L169.487 387.706ZM178.072 399.339L177.539 400.185L177.548 400.191L178.072 399.339ZM177.801 400.424L177.985 401.407L178.014 401.402L178.043 401.394L177.801 400.424ZM173.118 402.12L173.482 403.051L173.484 403.05L173.118 402.12ZM157.815 414.668L158.711 415.113L158.711 415.112L157.815 414.668ZM157.069 426.131L157.96 425.678L157.959 425.677L157.069 426.131ZM172.134 435.356L172.349 434.379L172.345 434.378L172.134 435.356ZM192.12 435.016L191.912 434.038L191.898 434.041L191.885 434.044L192.12 435.016ZM197.209 433.999L197.029 433.015L197.029 433.015L197.209 433.999ZM211.936 429.726L212.244 430.677L212.248 430.676L211.936 429.726ZM226.899 422.299L227.454 423.131L227.458 423.128L226.899 422.299ZM235.212 414.227L236.198 414.397L236.199 414.392L235.212 414.227ZM235.45 412.803V411.803H234.603L234.464 412.638L235.45 412.803ZM253.943 415.007L254.152 414.029L254.149 414.029L253.943 415.007ZM263.545 419.45L262.656 418.992L262.653 418.997L263.545 419.45ZM261.916 434.474L261.018 434.913L261.019 434.915L261.916 434.474ZM269.755 442.715L270.317 441.888L270.312 441.884L269.755 442.715ZM286.449 447.429L286.373 448.426L286.375 448.426L286.449 447.429ZM302.532 447.599L302.675 448.588L302.679 448.588L302.532 447.599ZM316.953 442.477L316.246 441.77L316.241 441.775L316.953 442.477ZM324.452 431.32L323.495 431.03L323.493 431.036L324.452 431.32ZM324.961 421.926L325.935 421.697L325.934 421.696L324.961 421.926ZM321.839 413.142L322.746 412.721L322.74 412.707L322.734 412.694L321.839 413.142ZM321.398 412.023H320.398V412.146L320.428 412.265L321.398 412.023ZM327.811 408.564L327.263 407.727L327.253 407.733L327.244 407.74L327.811 408.564ZM332.46 406.054L332.875 406.964L332.887 406.958L332.46 406.054ZM348.883 393.947L349.622 394.62L349.626 394.615L348.883 393.947ZM354.312 388.046L355.041 388.729L355.045 388.726L354.312 388.046ZM363.236 375.158L362.318 374.76L362.314 374.77L362.31 374.779L363.236 375.158ZM364.186 371.936L363.196 371.79L363.195 371.801L364.186 371.936ZM362.218 364.577L361.37 365.107L361.375 365.116L361.381 365.125L362.218 364.577ZM361.2 362.949L360.266 362.591L360.088 363.057L360.352 363.479L361.2 362.949ZM361.81 361.355L362.744 361.713L362.751 361.696L362.757 361.679L361.81 361.355ZM362.625 351.758L361.625 351.726L361.625 351.731L362.625 351.758ZM363.609 341.075L364.576 341.328L364.577 341.325L363.609 341.075ZM363.948 326.322L362.954 326.428L362.954 326.435L363.948 326.322ZM363.303 317.165L362.305 317.214L362.305 317.224L363.303 317.165ZM362.625 304.956L361.626 305.008L361.627 305.019L362.625 304.956ZM361.946 291.899L360.947 291.942L360.948 291.951L361.946 291.899ZM361.268 281.047L360.271 281.129L360.272 281.137L360.273 281.146L361.268 281.047ZM360.589 273.416L359.592 273.495L359.593 273.503L359.593 273.511L360.589 273.416ZM359.741 264.972L358.746 265.079L358.747 265.087L358.748 265.094L359.741 264.972ZM357.06 248.659L358.043 248.475L358.042 248.467L357.06 248.659ZM355.092 239.163L354.118 239.391L354.121 239.401L354.123 239.411L355.092 239.163ZM354.176 234.347L355.171 234.251L355.171 234.244L355.17 234.237L354.176 234.347ZM351.563 230.006L351.054 230.867L351.07 230.876L351.086 230.885L351.563 230.006ZM350.036 225.394L351.027 225.255L351.025 225.242L350.036 225.394ZM348.883 218.815L347.906 219.028L347.906 219.029L348.883 218.815ZM347.118 207.623L348.118 207.645L348.118 207.634V207.623H347.118ZM346.541 204.944L347.445 204.516L347.431 204.486L347.415 204.458L346.541 204.944ZM345.591 200.705L344.596 200.804L344.597 200.813L344.598 200.821L345.591 200.705ZM344.607 194.227L343.623 194.406L343.625 194.415L343.627 194.423L344.607 194.227ZM343.759 188.801L342.764 188.903L342.765 188.912L342.766 188.921L343.759 188.801ZM340.875 170.148L339.905 170.391L339.905 170.394L340.875 170.148ZM339.857 164.043L338.862 164.148L338.863 164.152L339.857 164.043ZM335.276 141.694L334.313 141.965L334.314 141.968L335.276 141.694ZM331.069 131.011L330.174 131.459L330.176 131.461L331.069 131.011ZM327.743 123.652L328.695 123.344L328.694 123.342L327.743 123.652ZM322.213 113.952L322.995 113.329L322.99 113.324L322.213 113.952ZM322.111 112.189L321.325 111.571L321.306 111.595L321.289 111.62L322.111 112.189ZM326.725 112.698L326.314 113.609L326.322 113.613L326.329 113.616L326.725 112.698ZM339.891 115.58L339.935 114.581L339.928 114.581L339.891 115.58ZM347.559 115.106L347.775 116.082L347.775 116.082L347.559 115.106ZM363.202 106.661L363.922 107.354L363.928 107.349L363.202 106.661ZM365 104.762L365.726 105.449L365.814 105.357L365.875 105.245L365 104.762ZM365 91.4675L364.766 92.4397L364.771 92.4408L365 91.4675ZM361.335 90.5857L361.099 91.5574L361.101 91.558L361.335 90.5857ZM344.472 83.2603L345.043 82.4396L345.041 82.4386L344.472 83.2603ZM338.975 79.4619L338.398 80.2789L338.407 80.285L338.415 80.2909L338.975 79.4619ZM323.061 73.7644L323.153 72.7686L323.152 72.7686L323.061 73.7644ZM320.109 73.4931L319.147 73.7679L319.335 74.4262L320.017 74.4889L320.109 73.4931ZM319.702 72.0687L320.663 71.7938L320.661 71.7853L320.658 71.7767L319.702 72.0687ZM316.41 66.6763L317.066 65.9211L317.06 65.916L317.054 65.911L316.41 66.6763ZM368.31 98.7717L369.186 99.2554L369.186 99.2554L368.31 98.7717ZM365.082 91.4867L364.852 92.46L365.082 91.4867ZM305.588 63.3983C304.383 63.6902 302.315 64.4643 300.916 65.1286L301.774 66.9353C303.089 66.311 305.024 65.5928 306.059 65.3421L305.588 63.3983ZM300.906 65.1333C299.332 65.9017 297.775 67.0662 296.491 68.3582C295.216 69.6419 294.146 71.1164 293.621 72.5356L295.496 73.2297C295.887 72.1731 296.751 70.9345 297.91 69.7679C299.061 68.6096 300.439 67.5867 301.783 66.9306L300.906 65.1333ZM293.625 72.5235C293.455 72.966 293.293 73.3924 293.17 73.7129C293.109 73.8741 293.058 74.0073 293.02 74.1038C292.97 74.2335 292.967 74.2356 292.985 74.1987L294.774 75.0935C294.81 75.0228 294.858 74.8976 294.885 74.8281C294.924 74.7254 294.977 74.5872 295.039 74.4263C295.162 74.1024 295.323 73.681 295.492 73.2417L293.625 72.5235ZM293.173 73.9389C293.433 73.6791 293.735 73.6565 293.802 73.6521C293.905 73.6451 293.984 73.6571 294.011 73.6616C294.071 73.6715 294.106 73.6844 294.094 73.6804C294.08 73.6759 294.033 73.6585 293.941 73.6185C293.764 73.5419 293.5 73.4179 293.162 73.2523C292.491 72.9233 291.576 72.4534 290.578 71.9294L289.649 73.7001C290.653 74.2275 291.587 74.7071 292.282 75.048C292.627 75.2173 292.925 75.3583 293.148 75.4544C293.255 75.5008 293.367 75.5467 293.467 75.5797C293.512 75.5944 293.592 75.6196 293.686 75.635C293.729 75.6422 293.821 75.6553 293.936 75.6476C294.013 75.6424 294.323 75.6174 294.587 75.3534L293.173 73.9389ZM290.59 71.9356C288.556 70.8332 285.558 69.4537 283.905 68.856L283.225 70.7369C284.761 71.2923 287.667 72.6259 289.637 73.6939L290.59 71.9356ZM283.919 68.8612C281.754 68.0418 280.85 67.4972 279.803 66.42L278.369 67.8145C279.696 69.1791 280.896 69.8554 283.211 70.7317L283.919 68.8612ZM279.781 66.3984C278.672 65.3255 277.511 64.5206 276.298 64.1862L275.766 66.1142C276.521 66.3225 277.396 66.8741 278.391 67.836L279.781 66.3984ZM276.293 64.185C273.502 63.4291 269.068 63.2349 263.749 63.5072C258.398 63.781 252.053 64.5329 245.385 65.7259L245.738 67.6946C252.338 66.5137 258.598 65.7733 263.851 65.5045C269.135 65.2341 273.302 65.447 275.771 66.1154L276.293 64.185ZM245.37 65.7288C244.018 65.9925 241.98 66.2602 240.861 66.3958L241.101 68.3813C242.221 68.2456 244.323 67.9707 245.753 67.6918L245.37 65.7288ZM240.883 66.3934C239.41 66.5387 236.908 67.1302 234.321 67.873C231.717 68.6211 228.938 69.5487 226.889 70.399L227.656 72.2462C229.611 71.4347 232.312 70.5309 234.874 69.7953C237.453 69.0543 239.803 68.5096 241.079 68.3837L240.883 66.3934ZM226.889 70.3991C221.625 72.5857 220.733 73.0135 216.073 75.7878L217.096 77.5063C221.665 74.7865 222.469 74.4005 227.656 72.2461L226.889 70.3991ZM216.073 75.7875C214.094 76.9644 212.815 77.7818 211.439 78.8913C210.077 79.9901 208.636 81.3632 206.316 83.6305L207.715 85.0606C210.044 82.7834 211.419 81.4773 212.695 80.448C213.958 79.4294 215.139 78.6698 217.095 77.5066L216.073 75.7875ZM206.311 83.6356C204.028 85.9003 202.661 87.2915 201.67 88.4842C200.657 89.7031 200.045 90.707 199.248 92.1783L201.007 93.1306C201.771 91.7193 202.312 90.8409 203.208 89.7622C204.126 88.6572 205.422 87.3352 207.72 85.0555L206.311 83.6356ZM199.248 92.1791C197.365 95.664 196.004 99.6005 195.375 103.341L197.347 103.673C197.939 100.156 199.225 96.4277 201.007 93.1298L199.248 92.1791ZM195.375 103.341C195.076 105.115 194.95 105.824 194.712 106.363C194.493 106.861 194.168 107.234 193.22 108.252L194.684 109.615C195.568 108.665 196.159 108.038 196.542 107.171C196.907 106.345 197.069 105.325 197.347 103.673L195.375 103.341ZM193.22 108.252C190.441 111.238 186.352 117.078 184.379 120.848L186.152 121.775C188.047 118.153 192.034 112.462 194.684 109.614L193.22 108.252ZM184.381 120.845C183.371 122.76 181.826 126.332 180.93 128.844L182.814 129.516C183.683 127.077 185.192 123.594 186.15 121.778L184.381 120.845ZM180.931 128.842C180.133 131.061 179.753 132.076 179.446 132.61C179.312 132.841 179.233 132.904 179.193 132.932C179.132 132.974 179.04 133.018 178.748 133.112L179.364 135.015C179.649 134.923 180.002 134.805 180.334 134.575C180.686 134.33 180.947 134.01 181.177 133.61C181.599 132.88 182.05 131.64 182.813 129.518L180.931 128.842ZM178.744 133.113C177.459 133.535 175.463 134.517 173.573 135.583C171.682 136.65 169.778 137.868 168.698 138.801L170.005 140.314C170.928 139.517 172.688 138.379 174.555 137.325C176.423 136.272 178.278 135.372 179.368 135.014L178.744 133.113ZM168.704 138.795C166.746 140.459 164.8 142.412 163.191 144.28C161.595 146.132 160.275 147.963 159.621 149.381L161.438 150.218C161.972 149.059 163.145 147.397 164.706 145.586C166.252 143.791 168.124 141.912 169.999 140.32L168.704 138.795ZM159.621 149.382C154.517 160.493 156.402 174.812 164.181 183.011L165.632 181.635C158.482 174.098 156.634 160.676 161.438 150.217L159.621 149.382ZM164.183 183.013C165.582 184.481 167.718 186.273 169.034 187.077L170.077 185.37C168.949 184.681 166.946 183.014 165.631 181.633L164.183 183.013ZM169.051 187.087L171.256 188.375L172.265 186.649L170.06 185.36L169.051 187.087ZM170.761 187.483L170.659 191.01L172.659 191.068L172.76 187.541L170.761 187.483ZM170.659 191.021C170.625 192.958 170.523 200.49 170.455 207.715L172.455 207.734C172.523 200.512 172.625 192.986 172.659 191.057L170.659 191.021ZM170.456 207.712L170.286 220.87L172.286 220.896L172.455 207.738L170.456 207.712ZM170.452 220.331L168.857 222.739L170.525 223.843L172.119 221.436L170.452 220.331ZM168.849 222.751C167.988 224.094 166.773 226.207 166.203 227.454L168.022 228.286C168.537 227.159 169.697 225.134 170.533 223.831L168.849 222.751ZM166.208 227.442C165.61 228.708 165.25 229.821 165.277 230.892C165.305 232.008 165.748 232.94 166.462 233.847L168.034 232.609C167.492 231.922 167.29 231.396 167.276 230.841C167.261 230.242 167.461 229.473 168.016 228.297L166.208 227.442ZM166.459 233.842L167.171 234.758L168.75 233.53L168.037 232.614L166.459 233.842ZM167.056 233.716L165.597 236.802L167.405 237.657L168.865 234.571L167.056 233.716ZM165.59 236.819C164.813 238.541 163.714 241.011 163.193 242.365L165.06 243.083C165.556 241.792 166.629 239.378 167.413 237.641L165.59 236.819ZM163.196 242.357C162.697 243.622 161.768 245.89 161.224 247.319L163.093 248.032C163.634 246.612 164.538 244.404 165.056 243.091L163.196 242.357ZM161.231 247.3C160.665 248.699 159.589 251.086 158.851 252.594L160.647 253.473C161.402 251.93 162.498 249.5 163.085 248.051L161.231 247.3ZM158.856 252.584C156.237 257.785 153.534 265.283 151.654 272.661L153.593 273.154C155.446 265.881 158.103 258.525 160.642 253.484L158.856 252.584ZM151.655 272.66C149.684 280.368 147.133 291.586 146.312 296.13L148.28 296.486C149.089 292.009 151.627 280.844 153.592 273.155L151.655 272.66ZM146.312 296.132C145.344 301.557 145.041 307.85 145.007 324.455L147.007 324.459C147.041 307.828 147.348 301.708 148.281 296.484L146.312 296.132ZM145.007 324.451C144.99 327.385 144.997 329.092 145.104 330.282C145.217 331.536 145.444 332.246 145.829 333.181L147.678 332.419C147.35 331.624 147.187 331.112 147.096 330.103C147 329.029 146.99 327.43 147.007 324.463L145.007 324.451ZM145.824 333.168C147.163 336.549 149.449 339.609 151.766 341.014L152.803 339.304C150.98 338.199 148.923 335.562 147.683 332.431L145.824 333.168ZM151.775 341.019L153.607 342.105L154.626 340.384L152.794 339.299L151.775 341.019ZM153.119 341.312L153.322 344.297L155.318 344.161L155.114 341.176L153.119 341.312ZM153.324 344.312C153.457 345.907 153.558 348.73 153.592 350.555L155.591 350.518C155.557 348.681 155.455 345.806 155.317 344.146L153.324 344.312ZM153.592 350.547L153.626 353.904L155.625 353.884L155.591 350.527L153.592 350.547ZM153.937 354.619L155.294 355.908L156.671 354.458L155.314 353.169L153.937 354.619ZM155.295 355.908C155.909 356.491 156.161 356.776 156.445 357.464C156.772 358.255 157.109 359.518 157.762 362.077L159.7 361.583C159.064 359.089 158.688 357.656 158.294 356.7C157.857 355.642 157.38 355.129 156.671 354.457L155.295 355.908ZM157.762 362.075C158.511 365.038 159.507 368.306 159.936 369.415L161.801 368.693C161.416 367.698 160.444 364.523 159.701 361.585L157.762 362.075ZM159.94 369.425C160.336 370.414 161.005 372.319 161.404 373.648L163.32 373.073C162.904 371.69 162.216 369.729 161.797 368.682L159.94 369.425ZM161.405 373.651C162.359 376.794 165.704 383.461 168.635 388.23L170.339 387.183C167.434 382.456 164.197 375.964 163.319 373.07L161.405 373.651ZM168.638 388.234C169.963 390.367 171.897 393.154 173.611 395.477C174.469 396.64 175.279 397.696 175.937 398.502C176.265 398.904 176.562 399.252 176.812 399.524C177.034 399.764 177.296 400.032 177.539 400.185L178.605 398.493C178.619 398.501 178.523 398.429 178.283 398.168C178.071 397.938 177.802 397.624 177.486 397.237C176.857 396.465 176.068 395.437 175.221 394.29C173.525 391.992 171.625 389.251 170.337 387.179L168.638 388.234ZM177.548 400.191C177.642 400.248 177.711 400.295 177.761 400.332C177.813 400.371 177.831 400.39 177.83 400.388C177.828 400.386 177.817 400.375 177.801 400.353C177.786 400.331 177.762 400.293 177.74 400.24C177.69 400.124 177.653 399.945 177.704 399.741C177.753 399.546 177.857 399.427 177.914 399.373C177.968 399.323 178.002 399.31 177.981 399.321C177.934 399.344 177.809 399.391 177.558 399.454L178.043 401.394C178.335 401.321 178.626 401.233 178.87 401.112C179.061 401.017 179.509 400.766 179.644 400.226C179.795 399.625 179.446 399.186 179.279 399.01C179.087 398.808 178.835 398.634 178.596 398.487L177.548 400.191ZM177.616 399.441C177.244 399.511 176.5 399.768 175.688 400.066C174.833 400.379 173.79 400.781 172.752 401.189L173.484 403.05C174.516 402.645 175.543 402.249 176.376 401.944C177.252 401.623 177.814 401.439 177.985 401.407L177.616 399.441ZM172.754 401.188C167.862 403.1 164.776 404.506 162.479 406.387C160.149 408.295 158.698 410.634 156.919 414.224L158.711 415.112C160.461 411.58 161.758 409.562 163.746 407.934C165.767 406.279 168.568 404.972 173.482 403.051L172.754 401.188ZM156.919 414.223C155.717 416.643 155.022 418.762 154.891 420.78C154.759 422.82 155.209 424.686 156.178 426.585L157.959 425.677C157.13 424.049 156.782 422.54 156.887 420.909C156.994 419.256 157.571 417.407 158.711 415.113L156.919 414.223ZM156.177 426.584C158.718 431.59 163.794 434.577 171.923 436.333L172.345 434.378C164.459 432.675 160.102 429.897 157.96 425.678L156.177 426.584ZM171.919 436.332C178.998 437.893 184.921 437.785 192.355 435.988L191.885 434.044C184.728 435.775 179.114 435.87 172.349 434.379L171.919 436.332ZM192.327 435.995C193.444 435.758 195.741 435.285 197.39 434.983L197.029 433.015C195.353 433.323 193.035 433.8 191.912 434.038L192.327 435.995ZM197.389 434.983C200.249 434.46 203.368 433.555 212.244 430.677L211.627 428.775C202.723 431.662 199.734 432.521 197.029 433.015L197.389 434.983ZM212.248 430.676C217.093 429.085 222.603 426.363 227.454 423.131L226.345 421.466C221.627 424.61 216.279 427.247 211.624 428.776L212.248 430.676ZM227.458 423.128C230.239 421.252 232.291 419.687 233.699 418.319C235.09 416.968 235.974 415.698 236.198 414.397L234.227 414.057C234.112 414.723 233.604 415.623 232.306 416.884C231.026 418.127 229.091 419.614 226.34 421.47L227.458 423.128ZM236.199 414.392L236.436 412.967L234.464 412.638L234.226 414.063L236.199 414.392ZM235.45 413.803H239.488V411.803H235.45V413.803ZM239.488 413.803C243.068 413.803 244.26 413.983 253.736 415.986L254.149 414.029C244.691 412.03 243.305 411.803 239.488 411.803V413.803ZM253.733 415.985C256.584 416.596 259.195 417.155 261.102 417.57C262.055 417.777 262.83 417.948 263.369 418.071C263.639 418.133 263.845 418.181 263.982 418.215C264.053 418.233 264.096 418.244 264.118 418.251C264.131 418.254 264.124 418.253 264.107 418.247C264.1 418.244 264.074 418.235 264.04 418.219C264.022 418.211 263.991 418.196 263.953 418.174C263.924 418.157 263.842 418.108 263.754 418.021L265.168 416.606C265.08 416.518 264.996 416.467 264.965 416.449C264.925 416.425 264.89 416.409 264.87 416.4C264.829 416.381 264.794 416.368 264.775 416.362C264.736 416.348 264.698 416.336 264.671 416.329C264.613 416.312 264.542 416.294 264.465 416.274C264.308 416.235 264.087 416.183 263.813 416.121C263.264 415.996 262.482 415.823 261.527 415.616C259.616 415.2 257.002 414.64 254.152 414.029L253.733 415.985ZM263.754 418.021C263.486 417.752 263.473 417.437 263.47 417.391C263.465 417.298 263.476 417.23 263.479 417.214C263.485 417.176 263.49 417.168 263.477 417.21C263.453 417.283 263.404 417.411 263.326 417.593C263.172 417.951 262.937 418.446 262.656 418.992L264.434 419.908C264.73 419.334 264.987 418.795 265.164 418.381C265.251 418.178 265.328 417.986 265.379 417.827C265.403 417.752 265.434 417.65 265.452 417.543C265.46 417.492 265.473 417.397 265.467 417.281C265.463 417.213 265.445 416.883 265.168 416.606L263.754 418.021ZM262.653 418.997C261.417 421.433 260.602 424.531 260.286 427.413C259.976 430.25 260.126 433.09 261.018 434.913L262.815 434.034C262.18 432.737 261.974 430.371 262.274 427.63C262.57 424.933 263.332 422.079 264.437 419.902L262.653 418.997ZM261.019 434.915C261.568 436.032 262.982 437.758 264.499 439.358C266.036 440.98 267.817 442.62 269.198 443.545L270.312 441.884C269.113 441.081 267.451 439.566 265.951 437.983C264.431 436.379 263.215 434.848 262.814 434.033L261.019 434.915ZM269.192 443.542C271.679 445.233 273.604 446.298 276.138 447.014C278.634 447.718 281.678 448.07 286.373 448.426L286.524 446.432C281.821 446.075 278.961 445.732 276.681 445.089C274.439 444.456 272.717 443.52 270.317 441.888L269.192 443.542ZM286.375 448.426C295.976 449.138 298.552 449.182 302.675 448.588L302.39 446.609C298.505 447.168 296.127 447.144 286.523 446.432L286.375 448.426ZM302.679 448.588C310.449 447.435 314.933 445.948 317.665 443.18L316.241 441.775C314.019 444.026 310.156 445.456 302.386 446.609L302.679 448.588ZM317.66 443.185C318.771 442.074 320.557 439.669 322.105 437.368C322.887 436.204 323.626 435.043 324.206 434.049C324.766 433.091 325.236 432.195 325.411 431.604L323.493 431.036C323.397 431.361 323.053 432.058 322.479 433.04C321.926 433.988 321.211 435.113 320.445 436.252C318.897 438.554 317.205 440.812 316.246 441.77L317.66 443.185ZM325.409 431.61C325.831 430.215 326.093 428.321 326.189 426.523C326.284 424.737 326.221 422.921 325.935 421.697L323.987 422.154C324.209 423.101 324.283 424.693 324.191 426.417C324.1 428.13 323.853 429.848 323.495 431.03L325.409 431.61ZM325.934 421.696C325.509 419.89 323.652 414.671 322.746 412.721L320.932 413.563C321.791 415.411 323.598 420.502 323.988 422.155L325.934 421.696ZM322.734 412.694C322.635 412.497 322.546 412.285 322.479 412.104C322.445 412.014 322.418 411.936 322.398 411.876C322.376 411.81 322.368 411.779 322.368 411.78L320.428 412.265C320.481 412.477 320.677 413.055 320.945 413.589L322.734 412.694ZM322.398 412.023C322.398 412.26 322.311 412.427 322.273 412.492C322.23 412.566 322.187 412.612 322.173 412.627C322.144 412.659 322.134 412.661 322.172 412.634C322.241 412.583 322.371 412.501 322.566 412.393C322.95 412.18 323.495 411.914 324.102 411.652L323.309 409.816C322.66 410.096 322.052 410.391 321.596 410.644C321.371 410.769 321.159 410.897 320.992 411.019C320.912 411.077 320.811 411.157 320.719 411.254C320.673 411.303 320.607 411.379 320.548 411.481C320.494 411.573 320.398 411.764 320.398 412.023H322.398ZM324.102 411.652C325.384 411.098 327.318 410.118 328.379 409.387L327.244 407.74C326.337 408.365 324.538 409.285 323.309 409.816L324.102 411.652ZM328.359 409.4C329.293 408.788 331.351 407.659 332.875 406.964L332.045 405.144C330.447 405.873 328.297 407.05 327.263 407.727L328.359 409.4ZM332.887 406.958C339.111 404.02 345.02 399.669 349.622 394.62L348.144 393.273C343.72 398.127 338.024 402.322 332.033 405.15L332.887 406.958ZM349.626 394.615C351.113 392.96 353.551 390.32 355.041 388.729L353.582 387.362C352.086 388.959 349.638 391.609 348.139 393.278L349.626 394.615ZM355.045 388.726C356.616 387.033 358.589 384.472 360.308 381.994C362.014 379.534 363.539 377.056 364.161 375.537L362.31 374.779C361.779 376.075 360.369 378.396 358.664 380.854C356.973 383.293 355.061 385.769 353.579 387.365L355.045 388.726ZM364.153 375.556C364.625 374.467 365.061 372.921 365.176 372.072L363.195 371.801C363.107 372.444 362.728 373.814 362.318 374.76L364.153 375.556ZM365.175 372.083C365.34 370.966 365.13 369.462 364.753 368.049C364.371 366.618 363.775 365.129 363.054 364.029L361.381 365.125C361.95 365.993 362.474 367.267 362.821 368.566C363.173 369.884 363.302 371.075 363.196 371.79L365.175 372.083ZM363.065 364.047L362.048 362.419L360.352 363.479L361.37 365.107L363.065 364.047ZM362.133 363.307L362.744 361.713L360.877 360.997L360.266 362.591L362.133 363.307ZM362.757 361.679C363.258 360.213 363.456 358 363.624 351.785L361.625 351.731C361.454 358.063 361.245 359.92 360.864 361.031L362.757 361.679ZM363.624 351.789C363.828 345.337 364.032 343.409 364.576 341.328L362.641 340.821C362.032 343.149 361.829 345.291 361.625 351.726L363.624 351.789ZM364.577 341.325C365.402 338.135 365.558 331.654 364.942 326.209L362.954 326.435C363.559 331.775 363.377 337.977 362.641 340.824L364.577 341.325ZM364.943 326.216C364.776 324.651 364.506 320.573 364.302 317.106L362.305 317.224C362.508 320.676 362.781 324.805 362.954 326.428L364.943 326.216ZM364.302 317.116C364.132 313.653 363.827 308.154 363.623 304.894L361.627 305.019C361.83 308.27 362.135 313.759 362.305 317.214L364.302 317.116ZM363.623 304.904C363.454 301.65 363.148 295.747 362.945 291.847L360.948 291.951C361.151 295.852 361.456 301.751 361.626 305.008L363.623 304.904ZM362.945 291.856C362.775 287.917 362.469 283.011 362.263 280.947L360.273 281.146C360.473 283.152 360.778 288.013 360.947 291.942L362.945 291.856ZM362.264 280.965C362.094 278.891 361.788 275.462 361.584 273.321L359.593 273.511C359.797 275.644 360.102 279.065 360.271 281.129L362.264 280.965ZM361.586 273.337C361.415 271.188 361.041 267.342 360.733 264.849L358.748 265.094C359.051 267.553 359.423 271.371 359.592 273.495L361.586 273.337ZM360.735 264.864C360.289 260.751 359.875 258.242 358.043 248.475L356.077 248.843C357.91 258.611 358.31 261.052 358.746 265.079L360.735 264.864ZM358.042 248.467C357.769 247.071 357.364 245.012 357.162 243.902L355.194 244.26C355.399 245.387 355.808 247.465 356.079 248.851L358.042 248.467ZM357.162 243.902C356.954 242.758 356.474 240.531 356.061 238.916L354.123 239.411C354.525 240.983 354.995 243.164 355.194 244.26L357.162 243.902ZM356.066 238.935C355.692 237.339 355.266 235.228 355.171 234.251L353.181 234.444C353.29 235.569 353.746 237.799 354.118 239.391L356.066 238.935ZM355.17 234.237C355.04 233.07 354.746 232.047 354.223 231.178C353.694 230.299 352.963 229.628 352.04 229.127L351.086 230.885C351.725 231.232 352.181 231.664 352.509 232.209C352.843 232.764 353.074 233.488 353.182 234.458L355.17 234.237ZM352.073 229.146C351.848 229.012 351.785 228.961 351.75 228.922C351.729 228.9 351.678 228.842 351.609 228.632C351.446 228.139 351.305 227.237 351.027 225.255L349.046 225.533C349.31 227.417 349.475 228.55 349.71 229.261C349.84 229.653 350.012 229.989 350.279 230.278C350.531 230.551 350.821 230.729 351.054 230.867L352.073 229.146ZM351.025 225.242C350.685 223.036 350.172 220.024 349.859 218.6L347.906 219.029C348.204 220.386 348.709 223.343 349.048 225.546L351.025 225.242ZM349.86 218.601C349.372 216.365 348.926 213.976 348.606 211.956C348.282 209.902 348.103 208.32 348.118 207.645L346.118 207.601C346.099 208.486 346.311 210.245 346.631 212.268C346.956 214.327 347.409 216.754 347.906 219.028L349.86 218.601ZM348.118 207.623C348.118 206.634 347.817 205.3 347.445 204.516L345.638 205.372C345.877 205.876 346.118 206.916 346.118 207.623H348.118ZM347.415 204.458C347.326 204.297 347.164 203.806 346.992 203.028C346.83 202.295 346.683 201.421 346.584 200.588L344.598 200.821C344.704 201.717 344.862 202.658 345.039 203.46C345.206 204.216 345.417 204.98 345.667 205.43L347.415 204.458ZM346.586 200.605C346.413 198.874 345.967 195.925 345.588 194.031L343.627 194.423C343.994 196.259 344.43 199.143 344.596 200.804L346.586 200.605ZM345.591 194.048C345.254 192.197 344.884 189.775 344.752 188.68L342.766 188.921C342.905 190.064 343.281 192.526 343.623 194.406L345.591 194.048ZM344.754 188.698C344.277 184.072 342.507 172.518 341.844 169.902L339.905 170.394C340.532 172.866 342.291 184.305 342.764 188.903L344.754 188.698ZM341.845 169.905C341.487 168.473 341.052 165.775 340.851 163.935L338.863 164.152C339.069 166.043 339.516 168.839 339.905 170.391L341.845 169.905ZM340.851 163.939C340.335 159.019 338.048 147.769 336.238 141.42L334.314 141.968C336.101 148.235 338.361 159.369 338.862 164.148L340.851 163.939ZM336.239 141.423C334.998 137.013 334.124 134.85 331.962 130.561L330.176 131.461C332.288 135.651 333.111 137.693 334.313 141.965L336.239 141.423ZM331.963 130.564C330.499 127.638 329.041 124.414 328.695 123.344L326.792 123.96C327.192 125.196 328.72 128.551 330.174 131.459L331.963 130.564ZM328.694 123.342C327.596 119.978 325.83 116.889 322.995 113.329L321.43 114.576C324.16 118.002 325.787 120.883 326.793 123.962L328.694 123.342ZM322.99 113.324C322.799 113.087 322.703 112.966 322.645 112.879C322.591 112.797 322.655 112.864 322.664 113.013C322.673 113.171 322.612 113.256 322.648 113.189C322.665 113.158 322.694 113.11 322.744 113.034C322.794 112.958 322.855 112.871 322.933 112.758L321.289 111.62C321.149 111.821 320.997 112.039 320.89 112.236C320.776 112.445 320.645 112.75 320.667 113.128C320.688 113.498 320.847 113.785 320.975 113.979C321.099 114.167 321.27 114.377 321.435 114.581L322.99 113.324ZM322.897 112.807C323.056 112.605 323.216 112.435 323.341 112.327C323.371 112.301 323.395 112.282 323.414 112.268C323.434 112.254 323.443 112.248 323.443 112.249C323.442 112.249 323.438 112.252 323.429 112.256C323.42 112.26 323.406 112.266 323.386 112.273C323.35 112.285 323.272 112.307 323.163 112.307V110.307C322.847 110.307 322.594 110.431 322.458 110.508C322.301 110.597 322.157 110.707 322.034 110.813C321.786 111.027 321.539 111.298 321.325 111.571L322.897 112.807ZM323.163 112.307C323.049 112.307 322.985 112.283 323.06 112.302C323.101 112.313 323.167 112.333 323.262 112.364C323.45 112.426 323.708 112.52 324.022 112.642C324.649 112.885 325.463 113.226 326.314 113.609L327.136 111.786C326.257 111.39 325.409 111.035 324.746 110.778C324.415 110.649 324.122 110.542 323.89 110.465C323.775 110.427 323.664 110.393 323.566 110.367C323.501 110.351 323.336 110.307 323.163 110.307V112.307ZM326.329 113.616C330.928 115.601 334.342 116.372 339.853 116.58L339.928 114.581C334.649 114.382 331.48 113.661 327.122 111.78L326.329 113.616ZM339.847 116.579C343.765 116.751 345.047 116.684 347.775 116.082L347.344 114.129C344.846 114.68 343.753 114.749 339.935 114.581L339.847 116.579ZM347.775 116.082C350.569 115.463 353.719 114.194 356.594 112.641C359.464 111.09 362.13 109.217 363.922 107.354L362.481 105.968C360.88 107.632 358.405 109.388 355.643 110.881C352.885 112.371 349.911 113.561 347.343 114.129L347.775 116.082ZM363.928 107.349L365.726 105.449L364.274 104.074L362.476 105.973L363.928 107.349ZM365.234 90.4952L361.569 89.6135L361.101 91.558L364.766 92.4397L365.234 90.4952ZM361.572 89.6141C356.515 88.3838 348.727 85.0039 345.043 82.4396L343.9 84.081C347.817 86.8072 355.84 90.278 361.099 91.5574L361.572 89.6141ZM345.041 82.4386C343.385 81.2901 340.898 79.5534 339.534 78.6329L338.415 80.2909C339.766 81.2018 342.232 82.9243 343.902 84.082L345.041 82.4386ZM339.551 78.645C334.544 75.1102 329.555 73.3599 323.153 72.7686L322.969 74.7601C329.053 75.322 333.701 76.9631 338.398 80.2789L339.551 78.645ZM323.152 72.7686L320.2 72.4973L320.017 74.4889L322.969 74.7602L323.152 72.7686ZM321.07 73.2182L320.663 71.7938L318.74 72.3435L319.147 73.7679L321.07 73.2182ZM320.658 71.7767C320.004 69.6347 318.525 67.1874 317.066 65.9211L315.755 67.4315C316.875 68.4036 318.177 70.5008 318.745 72.3606L320.658 71.7767ZM317.054 65.911C314.015 63.3554 309.54 62.3742 305.573 63.4022L306.075 65.3382C309.437 64.467 313.241 65.3171 315.767 67.4417L317.054 65.911ZM365.875 105.245L369.186 99.2554L367.435 98.288L364.125 104.278L365.875 105.245ZM365.311 90.5134L365.229 90.4942L364.771 92.4408L364.852 92.46L365.311 90.5134ZM369.186 99.2554C371.108 95.7773 369.179 91.4253 365.311 90.5134L364.852 92.46C367.431 93.068 368.716 95.9693 367.435 98.288L369.186 99.2554Z" vector-effect="non-scaling-stroke" />
</svg>
