<svg viewBox="0 0 512 512" fill="none" xmlns="http://www.w3.org/2000/svg">
	<path d="M320.598 76.9302L356.745 128.324H356.725L357.301 129.118C366.002 141.114 370.355 155.293 370.355 170.026V416.801C360.671 418.174 352.905 420.118 345.865 424.573C338.77 429.063 332.46 436.071 325.646 447.5H215.265C205.55 447.5 196.402 443.172 191.028 435.088L191.023 435.081L191.018 435.074L153.77 382.895C153.769 382.893 153.768 382.892 153.766 382.89C145.608 370.889 141.256 356.706 141.256 341.974V95.1969C150.67 93.8237 158.299 91.8792 165.269 87.4256C172.294 82.9364 178.604 75.9285 185.418 64.5H295.799C305.509 64.5 314.667 68.824 320.595 76.9264C320.596 76.9277 320.597 76.9289 320.598 76.9302ZM321.001 441.904H321.501V441.404V441.396V172.216C321.501 166.629 319.831 161.03 316.476 156.541L262.241 79.0882L262.235 79.0793L262.228 79.0707C256.62 71.7595 247.394 68.993 238.543 68.993H190.609H190.109V69.493V339.773C190.109 345.36 191.78 350.959 195.135 355.448C195.136 355.45 195.138 355.452 195.14 355.454L247.177 429.605L247.179 429.608C252.748 437.425 261.114 441.904 270.597 441.904H321.001Z" vector-effect="non-scaling-stroke" />
	<path d="M297.769 316.156C289.597 305.508 282.471 297.386 275.442 291.8C269.696 287.234 263.994 284.344 257.819 283.155C251.645 281.966 245.035 282.485 237.485 284.676C222.411 289.05 203.487 300.12 176.61 317.761C165.282 325.196 152.53 333.807 138.048 343.585C135.339 345.414 132.57 347.284 129.738 349.195C114.255 359.642 96.8998 371.311 77.3399 384.199C95.764 369.698 112.323 356.898 127.126 345.486C129.446 343.698 131.723 341.943 133.957 340.222C148.269 329.194 160.829 319.516 171.744 310.875C196.968 290.907 213.466 276.434 222.515 263.591C227.047 257.158 229.726 251.114 230.691 244.973C231.657 238.83 230.901 232.629 228.62 225.892C225.827 217.644 220.734 208.56 213.673 197.757C221.617 207.914 228.595 215.648 235.54 220.942C241.214 225.268 246.882 227.98 253.054 229.056C259.224 230.132 265.86 229.566 273.46 227.391C288.636 223.048 307.75 212.255 334.83 195.11C346.56 187.683 359.796 179.056 374.865 169.235C377.199 167.714 379.578 166.164 382.002 164.585C397.568 154.445 415 143.122 434.626 130.618C416.141 144.731 399.508 157.181 384.625 168.283C381.819 170.376 379.075 172.421 376.392 174.421C362.559 184.732 350.36 193.824 339.705 201.984C314.279 221.454 297.585 235.653 288.428 248.47C283.842 254.89 281.132 260.983 280.168 267.235C279.204 273.489 279.993 279.865 282.349 286.841C285.232 295.382 290.477 304.857 297.769 316.156Z" vector-effect="non-scaling-stroke" />
</svg>
