<svg viewBox="0 0 512 512" fill="none" xmlns="http://www.w3.org/2000/svg">
	<mask id="mask0_20_37" style="mask-type:alpha" maskUnits="userSpaceOnUse" x="68" y="63" width="376" height="384">
		<path d="M357.712 127.824L321.005 75.6352C314.978 67.3949 305.665 63 295.803 63H185.134C171.437 86.073 159.932 91.0172 140.757 93.764V340.974C140.757 355.807 145.14 370.09 153.358 382.176L190.613 434.365C196.091 442.605 205.405 447 215.267 447H325.936C339.632 423.927 351.137 418.983 370.861 416.236V169.026C370.861 154.193 366.478 139.91 357.712 127.824ZM321.005 440.408H270.601C261.287 440.408 253.069 436.013 247.591 428.322L195.544 354.159C192.256 349.764 190.613 344.27 190.613 338.777V66.8455H238.825C247.591 66.8455 256.357 71.2404 261.835 78.382L316.074 155.841C319.361 160.236 321.005 165.73 321.005 171.223V440.408Z" fill="black"/>
		<path d="M314.314 338.608C249.877 248.316 256.347 266.583 68 389.931C244.703 250.115 259.026 261.255 197.686 174.393C259.877 260.54 255.09 242.734 444 123.071C266.734 259.203 250.728 247.601 314.314 338.608Z" fill="black"/>
	</mask>
	<g mask="url(#mask0_20_37)">
		<rect x="-59.6605" y="-150" width="631.321" height="633" rx="23.3087" fill="url(#paint0_angular_20_37)"/>
	</g>
	<defs>
		<radialGradient id="paint0_angular_20_37" cx="0" cy="0" r="1" gradientUnits="userSpaceOnUse" gradientTransform="translate(256 166.5) rotate(119.527) scale(441.946 441.344)">
			<stop stop-color="#F1C6DD"/>
			<stop offset="0.139053" stop-color="#C1A4E8"/>
			<stop offset="0.238718" stop-color="#B8E2FB"/>
			<stop offset="0.374927" stop-color="#F2EFE8"/>
			<stop offset="0.477914" stop-color="#F9DCDD"/>
			<stop offset="0.557645" stop-color="#E1C1E5"/>
			<stop offset="0.624089" stop-color="#BDAFE3"/>
			<stop offset="0.720431" stop-color="#C7EDEB"/>
			<stop offset="0.830062" stop-color="#E7F5EB"/>
			<stop offset="0.913116" stop-color="#F2F0E7"/>
			<stop offset="1" stop-color="#DDC1E1"/>
		</radialGradient>
	</defs>
</svg>
