<svg viewBox="0 0 512 512" fill="none" xmlns="http://www.w3.org/2000/svg">
  <path d="M234.739 78.4449c8.898-8.6906 12.799-11.5426 18.296-13.3742 7.087-2.3615 10.759-1.1239 20.232 6.8187 1.654 1.387 4.183 3.4074 5.62 4.49 1.436 1.0835 4.058 3.2946 5.826 4.9138 6.335 5.8046 16.016 12.7595 17.761 12.7595 1.177-.0009 8.23-3.6132 12.242-6.2707 15.3-10.1349 22.345-8.1606 31.097 8.714 1.608 3.1011 3.209 6.061 3.559 6.578.348.517 1.243 2.039 1.986 3.383.743 1.344 2.279 3.602 3.411 5.019 1.133 1.416 2.412 3.531 2.842 4.699.429 1.167 1.191 2.63 1.692 3.25l.911 1.128 9.527-.118c7.303-.089 10.271.017 12.72.456 1.758.315 4.972.839 7.142 1.165 5.763.865 10.923 3.327 12.216 5.828 1.909 3.689 1.489 7.689-1.168 11.14-3.507 4.555-4.907 6.538-7.032 9.959-1.202 1.936-3.715 5.973-5.582 8.971-1.868 2.998-4.162 6.971-5.098 8.829-.996 1.976-2.384 4.051-3.345 4.998-2.084 2.054-1.622 4.967.788 4.967.502 0 8.242 5.106 10.531 6.947.83.667 2.778 2.064 4.328 3.105 1.551 1.04 4.077 3.003 5.614 4.362 1.538 1.359 3.744 2.977 4.905 3.595 2.497 1.332 10.342 8.057 11.598 9.944 5.359 8.055 2.637 15.125-8.814 22.901-3.285 2.23-6.819 4.657-7.852 5.392-.778.552-2.046 1.456-3.178 2.262l-1.052.749c-1.292.922-2.923 1.916-3.624 2.209-7.868 3.287-9.95 6.281-6.657 9.574 2.059 2.059 3.605 4.224 12.086 16.918 6.744 10.094 6.747 10.101 6.747 15.142 0 7.021-1.387 8.919-9.259 12.673-2.66 1.269-7.204 3.461-10.099 4.873-6.137 2.991-6.66 3.197-10.148 3.972-12.411 2.758-14.29 4.956-15.417 18.032-.641 7.44-.609 7.245-2.147 13.293l-1.183 4.646.851 5.503c.467 3.026 1.263 7.362 1.767 9.637 2.29 10.312 3.2 14.11 3.75 15.642.325.907.836 2.905 1.135 4.439.537 2.757 2.157 7.718 2.767 8.473.887 1.098 2.332 7.027 2.519 10.342.546 9.633-1.482 16.93-6.057 21.788-1.471 1.563-3.42 3.749-4.33 4.859-1.51 1.841-4.241 4.127-12.348 10.337-5.427 4.157-11.993 8.21-14.722 9.088-1.137.366-3.928 1.504-6.202 2.529-10.371 4.675-14.53 5.639-24.62 5.708-6.17.041-7.826.178-10.465.858-7.131 1.84-19.848 1.952-31.07.273-1.861-.278-4.821-.615-6.578-.748-5.445-.412-10.01-1.533-13.72-3.369-1.861-.92-4.549-1.936-5.976-2.257-8.256-1.857-19.611-12.931-25.601-24.967-.91-1.826-2.469-4.737-3.465-6.47-4.165-7.24-4.4-8.251-4.126-17.788.243-8.43.858-12.669 2.949-20.302 2.165-7.908 3.041-17.998 2.119-24.423-.569-3.966-.688-4.048-5.18-3.527-1.55.179-4.457.22-6.459.089-4.436-.289-6.227.382-10.08 3.778-11.95 10.531-22.839 8.751-25.765-4.211-.316-1.4-.819-3.176-1.118-3.947-.299-.771-.822-2.626-1.162-4.124-.341-1.497-.911-3.404-1.265-4.238-.355-.832-.864-2.698-1.13-4.145-.265-1.447-.798-3.484-1.183-4.528-.385-1.043-.938-3.158-1.231-4.699-.292-1.54-.885-3.816-1.316-5.057-.432-1.24-.883-3.069-1.001-4.064-.466-3.92-4.111-5.586-13.693-6.26-3.205-.225-6.503-.557-7.33-.736-5.23-1.139-9.928-2.283-10.884-2.649-.612-.235-2.87-.658-5.019-.94-10.623-1.395-12.8493-7.891-6.804-19.857 1.483-2.936 2.995-6.184 3.36-7.217 1.199-3.399 5.267-11.859 7.009-14.575.939-1.466 3.145-5.468 4.901-8.893 1.755-3.425 3.449-6.709 3.762-7.296 1.686-3.162-.034-5.219-11.924-14.261-2.378-1.808-5.517-4.343-6.978-5.632-1.46-1.289-3.821-3.274-5.2488-4.411-7.0553-5.621-8.5241-7.836-8.5974-12.968-.0517-3.603.9848-5.684 3.851-7.73 2.2938-1.637 13.1202-11.549 16.5562-15.157 2.017-2.117 6.713-6.251 9.912-8.725 3.257-2.519 2.928-7.546-.846-12.931-1.223-1.744-2.61-4.805-3.348-7.391-1.137-3.976-2.081-6.355-4.302-10.84-2.486-5.017-2.874-6.35-2.877-9.879-.005-7.053 3.167-8.61 20.86-10.232 2.274-.208 5.403-.551 6.954-.762 1.55-.21 7.047-.398 12.216-.417 12.049-.045 11.867.059 12.398-7.089.147-1.964.515-4.84.821-6.39.305-1.551.776-5.7797 1.048-9.3976 1.103-14.6973 7.738-20.3168 20.314-17.2035 1.447.358 4.446.8091 6.665 1.0027 2.51.218 4.496.5976 5.262 1.0055 4.429 2.3596 13.047 6.174 13.95 6.174.282 0 2.407.9303 4.724 2.0674 6.634 3.2561 5.812 3.6668 19.579-9.7816Z" vector-effect="non-scaling-stroke" />
  <path d="m350 327-.46.197.012.026.014.025L350 327Zm-3.5-11.5.425-.263-.425.263Zm-6.713-11.18-.275.419h.001l.274-.419Zm-2.187-7.892-.413-.282.413.282Zm-.496-11.286-.193.461.193-.461Zm-21.887 14.288-.338-.369.338.369Zm-6.904 5.584-.291-.407.291.407Zm-6.107 4.831.336.371v-.001l-.336-.37Zm-11.354 7.728.194.461-.194-.461Zm-7.101-9.782-.461-.193.461.193Zm14.41-12.323-.275-.417.275.417Zm15.148-15.435-.418-.273.418.273Zm-2.555-15.691-.114.486v.001l.114-.487Zm-2.604-3.477.496.066-.496-.066Zm8.388-17.294.42.272.036-.055.02-.063-.476-.154Zm11.254-17.198-.217-.45h-.001l.218.45Zm11.845-8.651.378.327-.378-.327Zm4.235-4.844-.375-.331.375.331Zm6.261-36.516.479-.143-.479.143Zm-20.768-21.442-.13.483.13-.483Zm-34.35.22-.157-.474.157.474Zm-28.245 21.42-.443-.232.443.232Zm-5.717 19.42h.5-.5Zm19.903 27.447.253-.431-.253.431Zm-10.236 9.707-.099-.491.099.491Zm-8.995 3.421.173.469.026-.009.025-.013-.224-.447Zm-11.574 2.442-.021.499h.009l.008.001.004-.5Zm-25.972 3.901.31.393v-.001l-.31-.392Zm-8.037 3.938-.113-.487.113.487Zm-3.956 8.661.423-.267-.423.267Zm.752 6.578-.392-.31.392.31Zm10.414 13.983-.261.426v.001l.261-.427Zm25.483 15.832-.248.434h.001l.247-.434Zm4.629 2.663.252-.432-.252.432Zm9.612 9.516.447-.224-.447.224ZM251 316.5l-.224.447.224-.447Zm-7-2.5-.169.471L244 314Zm-11-4.315-.259.428.259-.428Zm-9.648-4.698.114-.487-.114.487ZM204 291.89l.356-.351-.356.351Zm-12-9.39-.287.41.287-.41Zm21.529 35.384-.461-.192.461.192ZM210.5 325l.437.244.026-.048.016-.052-.479-.144Zm-3.5 8.5-.489-.103.489.103Zm-9.661-178.171.031.499h.001l-.032-.499Zm-8.457 1.954.182.465-.182-.465Zm-7.33 2.697-.158-.474.158.474Zm-16.45 11.916.395.307-.395-.307Zm-8.385 16.881-.49-.103.49.103Zm-1.136 4.51-.478-.144-.001.001.479.143Zm.587 11.734.494-.078-.494.078Zm25.492 24.921-.08.494.08-.494Zm6.202 1.566.163-.473h-.001l-.162.473Zm29.068-2.115.21.454-.21-.454Zm19.648-19.734-.468-.175.468.175Zm4.225-21.267-.5-.002.5.002Zm-7.966-18.956.367-.338v-.001l-.367.339Zm-25.152-14.106-.06.497h.001l.059-.497Zm96.029 15.781.074.494-.074-.494ZM288.55 181.94l-.444-.23.444.23Zm11.781 24.731.141-.48-.141.48Zm17.13-.049-.166-.471.166.471Zm11.764-15.402.5-.005-.5.005Zm-134.198-15.444.094.491-.094-.491Zm18.851 28.253-.356-.352.356.352ZM280.5 324.5l.026-.499-.013-.001h-.013v.5Zm-14.264 2.612-.203-.457-.014.006-.013.007.23.444Zm-17.065 26.657-.494.078.494-.078Zm21.232 18.813-.056.497.056-.497Zm6.433 7.557-.496.056.496-.056Zm.918 6.355-.492.091.492-.091Zm-4.755 7.407-.331.376.331-.376Zm-17.379 7.54.454-.209-.454.209Zm20.091 12.1-.061.496.061-.496Zm6.4 4.96-.47.169.47-.169Zm12.585-4.166.499.025-.499-.025Zm.144-2.886-.499-.025.499.025Zm5.665-4.568-.213-.453.213.453Zm14.356-26.432.483-.129-.483.129Zm-22.423-20.453-.083.493.083-.493Zm-6.988-9.587-.499.032.499-.032Zm-.877-8.172-.492.089.492-.089Zm7.876-1.963.391-.312-.391.312Zm11.491 3.409.215.451-.215-.451Zm-3.247-14.534-.291.407.291-.407Zm-28.962 9.326.42-.272-.42.272Zm1.777 20.61.315.388-.315-.388Zm-8.417-2.67-.304.397.304-.397Zm-2.485-12.02-.454-.21.454.21Zm32.811 34.119.283-.412-.283.412Zm4.9 16.767.357.35-.357-.35Zm-8.817-2.418-.5.001.5-.001Zm-.754-5.053-.492.09.492-.09Zm-18.512 59.472.074.495h.001l-.075-.495Zm-2.068 0-.075.495h.001l.074-.495ZM299 229.5l.05-.498-.05.498Zm-13.712-3.127-.361.346.092.097.128.037.141-.48Zm71.873 110.663c-1.749-2.32-4.737-6.802-6.727-10.284l-.868.496c2.01 3.518 5.022 8.036 6.796 10.39l.799-.602Zm-6.701-10.233c-.712-1.66-.577-2.774-.776-4.498-.197-1.71-.724-3.78-2.759-7.068l-.85.526c1.965 3.176 2.438 5.107 2.616 6.656.176 1.534.061 2.938.849 4.778l.92-.394Zm-3.535-11.566c-1.237-1.999-2.366-4.409-3.482-6.553-.552-1.061-1.101-2.057-1.65-2.878-.543-.812-1.117-1.5-1.732-1.904l-.548.837c.442.29.925.84 1.449 1.623.517.774 1.045 1.729 1.594 2.784 1.087 2.089 2.256 4.576 3.519 6.617l.85-.526Zm-6.864-11.335c-2.839-1.86-3.605-4.908-2.048-7.193l-.826-.563c-1.949 2.859-.859 6.506 2.325 8.593l.549-.837Zm-2.048-7.193c1.939-2.845 2.93-5.343 2.839-7.406-.046-1.045-.369-1.975-.979-2.762-.607-.784-1.476-1.401-2.577-1.861l-.385.923c.981.41 1.694.934 2.171 1.55.473.611.734 1.338.771 2.194.077 1.736-.766 4.011-2.666 6.799l.826.563Zm-.716-12.029c-.999-.417-1.98-.618-3.132-.423-1.134.192-2.391.759-3.965 1.786-3.139 2.05-7.707 6.046-15.321 13.018l.676.738c7.634-6.992 12.136-10.923 15.192-12.918 1.524-.995 2.646-1.479 3.584-1.638.92-.156 1.706-.005 2.58.36l.386-.923Zm-22.418 14.381c-1.763 1.616-4.854 4.116-6.857 5.546l.582.814c2.034-1.453 5.157-3.979 6.951-5.622l-.676-.738Zm-6.857 5.546c-2.029 1.45-4.794 3.636-6.152 4.868l.672.74c1.321-1.198 4.053-3.359 6.062-4.794l-.582-.814Zm-6.152 4.868c-1.22 1.105-3.493 2.793-5.745 4.326-2.262 1.54-4.437 2.878-5.467 3.312l.388.921c1.137-.478 3.392-1.875 5.642-3.406 2.26-1.538 4.58-3.258 5.854-4.412l-.672-.741Zm-11.212 7.638c-2.707 1.139-4.918.386-6.165-1.331-1.27-1.749-1.616-4.612-.281-7.798l-.922-.386c-1.435 3.423-1.13 6.672.394 8.772 1.548 2.132 4.273 2.965 7.362 1.664l-.388-.921Zm-6.446-9.129c.23-.548.708-1.245 1.457-2.081.743-.83 1.729-1.773 2.945-2.812 2.431-2.079 5.754-4.524 9.822-7.205l-.55-.835c-4.089 2.694-7.449 5.164-9.922 7.28-1.237 1.057-2.258 2.031-3.04 2.905-.777.868-1.341 1.663-1.634 2.362l.922.386Zm14.224-12.098c1.849-1.219 5.037-4.145 8.057-7.222 3.022-3.078 5.94-6.375 7.235-8.357l-.837-.547c-1.236 1.892-4.092 5.127-7.112 8.204-3.022 3.079-6.143 5.933-7.893 7.087l.55.835Zm15.292-15.579c2.728-4.177 3.932-7.82 3.465-10.688-.479-2.941-2.68-4.907-6.324-5.764l-.229.974c3.388.796 5.172 2.531 5.566 4.951.406 2.492-.629 5.868-3.315 9.98l.837.547Zm-2.859-16.452c-1.144-.269-1.709-.568-1.992-.946-.274-.366-.372-.925-.231-1.978l-.991-.133c-.148 1.106-.101 2.013.421 2.71.513.684 1.395 1.045 2.564 1.32l.229-.973Zm-2.223-2.924c.027-.202.124-.554.298-1.053.171-.488.406-1.087.692-1.768.571-1.362 1.339-3.038 2.189-4.79 1.702-3.51 3.72-7.298 5.133-9.477l-.839-.544c-1.448 2.232-3.486 6.064-5.194 9.585-.855 1.762-1.631 3.455-2.211 4.839-.29.692-.533 1.31-.713 1.825-.177.504-.304.939-.346 1.25l.991.133Zm.854-30.431c.202 0 .688.03 1.413.062.708.031 1.611.063 2.599.063 1.962 0 4.305-.124 6.125-.644l-.274-.962c-1.68.48-3.905.606-5.851.606-.967 0-1.854-.031-2.555-.062-.684-.03-1.226-.063-1.457-.063v1Zm10.137-.519c3.531-1.009 6.27-2.141 8.373-3.158l-.436-.9c-2.056.994-4.742 2.105-8.211 3.096l.274.962Zm8.373-3.158c4.692-2.268 9.248-5.59 12.005-8.774l-.756-.654c-2.648 3.058-7.085 6.305-11.684 8.528l.435.9Zm12.005-8.774c1.122-1.295 3.027-3.473 4.232-4.84l-.75-.662c-1.207 1.369-3.114 3.55-4.238 4.848l.756.654Zm4.232-4.84c8.649-9.803 10.756-22.245 6.365-36.99l-.958.286c4.314 14.486 2.219 26.55-6.157 36.042l.75.662Zm6.365-36.99c-.465-1.56-1.694-3.604-3.311-5.785-1.627-2.195-3.683-4.573-5.847-6.808-2.165-2.235-4.446-4.335-6.529-5.969-2.063-1.621-3.988-2.831-5.43-3.219l-.26.965c1.229.331 3.016 1.425 5.073 3.04 2.038 1.601 4.286 3.668 6.427 5.879 2.141 2.21 4.166 4.555 5.763 6.707 1.606 2.167 2.744 4.094 3.156 5.476l.958-.286Zm-21.117-21.781c-5.124-1.38-11.607-2.04-17.882-2-6.271.04-12.382.78-16.755 2.228l.314.949c4.235-1.402 10.23-2.137 16.448-2.177 6.213-.04 12.602.615 17.615 1.965l.26-.965Zm-34.637.228c-5.692 1.884-11.756 5.273-16.921 9.19-5.158 3.912-9.47 8.388-11.61 12.472l.886.464c2.043-3.898 6.224-8.268 11.328-12.139 5.096-3.865 11.064-7.195 16.631-9.038l-.314-.949Zm-28.531 21.662c-4.402 8.405-5.768 13.005-5.774 19.651l1 .001c.006-6.429 1.301-10.867 5.66-19.188l-.886-.464Zm-5.774 19.651c-.009 11.05 6.422 19.818 20.15 27.879l.506-.862c-13.578-7.974-19.665-16.471-19.656-27.016l-1-.001Zm10.068 36.664c-2.962.596-4.801 1.3-9.12 3.465l.448.894c4.283-2.146 6.032-2.807 8.87-3.378l-.198-.981Zm-8.896 3.912-.173-.469h-.001s-.001.001-.002.001c-.001.001-.004.002-.008.003-.007.003-.018.007-.032.012-.028.01-.07.026-.125.045-.109.04-.268.097-.466.168-.397.141-.95.334-1.576.543-1.259.421-2.793.9-3.949 1.154l.214.976c1.212-.266 2.79-.759 4.052-1.181.634-.212 1.193-.408 1.594-.55.2-.071.361-.129.472-.17.056-.02.099-.036.128-.046.015-.006.026-.01.034-.013.003-.001.006-.002.008-.003.001 0 .002 0 .002-.001h.001l-.173-.469Zm-6.332 1.457c-1.146.251-2.453.374-3.484.432-.513.029-.953.042-1.265.048-.155.003-.279.004-.363.005h-.126l-.004.5-.004.5h.139c.088-.001.216-.002.377-.005.321-.006.775-.02 1.303-.05 1.052-.059 2.419-.185 3.641-.454l-.214-.976Zm-5.222.485c-14.853-.602-21.705.374-26.302 4.009l.62.784c4.268-3.373 10.741-4.398 25.641-3.794l.041-.999Zm-26.302 4.009c-2.588 2.045-4.841 3.147-7.84 3.843l.226.974c3.152-.731 5.538-1.902 8.234-4.032l-.62-.785Zm-7.84 3.843c-1.541.357-2.796.775-3.755 1.293-.961.519-1.66 1.157-2.032 1.971-.373.818-.382 1.738-.109 2.75.272 1.005.829 2.132 1.631 3.401l.845-.534c-.777-1.231-1.276-2.261-1.51-3.128-.232-.86-.196-1.528.053-2.074.251-.55.753-1.05 1.597-1.506.847-.458 2.004-.851 3.506-1.199l-.226-.974Zm-4.265 9.415c1.113 1.764 1.63 2.816 1.725 3.643.087.759-.18 1.394-.943 2.358l.784.621c.82-1.036 1.284-1.938 1.152-3.092-.124-1.087-.774-2.324-1.873-4.064l-.845.534Zm.782 6.001c-.834 1.053-1.37 2.088-1.454 3.18-.085 1.105.301 2.182 1.134 3.3.827 1.111 2.115 2.291 3.896 3.626 1.785 1.337 4.09 2.848 6.969 4.613l.523-.852c-2.87-1.76-5.144-3.252-6.892-4.562-1.752-1.313-2.952-2.426-3.694-3.422-.736-.988-1-1.831-.939-2.627.062-.809.466-1.656 1.241-2.635l-.784-.621Zm10.545 14.72c3.883 2.38 10.612 6.579 14.952 9.327l.535-.845c-4.343-2.75-11.077-6.951-14.965-9.335l-.522.853Zm14.952 9.327c4.339 2.749 9.085 5.68 10.544 6.512l.496-.869c-1.436-.818-6.162-3.737-10.505-6.488l-.535.845Zm10.545 6.512c1.446.824 3.528 2.022 4.624 2.661l.504-.864c-1.1-.641-3.185-1.841-4.633-2.666l-.495.869Zm4.624 2.661c1.402.817 3.473 2.571 5.357 4.435.937.928 1.817 1.873 2.534 2.728.723.863 1.258 1.61 1.526 2.145l.894-.448c-.322-.643-.919-1.462-1.653-2.339-.741-.884-1.643-1.852-2.598-2.796-1.898-1.88-4.042-3.706-5.556-4.589l-.504.864Zm9.417 9.308c1.864 3.72 1.121 7.734-1.128 10.276-2.23 2.52-5.98 3.637-10.277 1.484l-.448.894c4.691 2.35 8.935 1.154 11.474-1.715 2.519-2.848 3.32-7.302 1.273-11.387l-.894.448Zm-11.405 11.76c-.967-.484-2.376-.985-3.705-1.426-1.352-.449-2.609-.832-3.35-1.098l-.338.942c.752.269 2.064.671 3.373 1.105 1.333.442 2.678.923 3.572 1.371l.448-.894Zm-7.055-2.524c-3.289-1.181-6.749-1.756-10.91-4.272l-.518.856c4.274 2.583 7.976 3.239 11.09 4.358l.338-.942Zm-10.91-4.272c-2.469-1.493-6.372-3.955-9.793-4.757l-.228.973c3.23.758 6.975 3.111 9.503 4.64l.518-.856Zm-9.793-4.757c-3.535-.829-5.947-1.634-9.005-3.795l-.577.817c3.202 2.263 5.752 3.107 9.354 3.951l.228-.973Zm-9.005-3.795c-.207-.147-.418-.3-.633-.46l-.598.802c.221.165.439.323.654.475l.577-.817Zm-.633-.46c-2.435-1.817-5.33-4.503-9.472-8.706l-.712.702c4.147 4.208 7.086 6.94 9.586 8.806l.598-.802Zm-9.472-8.706c-6.292-6.385-8.178-6.725-12.069-9.449l-.574.82c3.99 2.792 5.725 3.033 11.931 9.331l.712-.702Zm-12.069-9.449c-5.052-3.536-7.978-5.112-10.941-7.951l-.692.722c3.037 2.909 6.111 4.585 11.059 8.049l.574-.82Zm20.962 18.97c.218.148.423.297.616.448l.615-.789c-.211-.165-.435-.327-.67-.487l-.561.828Zm.616.448c1.334 1.041 2.095 2.157 2.471 3.326.378 1.176.38 2.447.126 3.817-.516 2.776-2.038 5.787-3.394 9.041l.923.385c1.31-3.143 2.912-6.328 3.454-9.244.274-1.476.287-2.925-.157-4.305-.445-1.386-1.338-2.661-2.808-3.809l-.615.789Zm-.797 16.184c-1.146 2.749-1.516 3.255-1.785 3.695-.32.525-.515.98-1.262 3.469l.958.288c.753-2.511.916-2.84 1.158-3.236.293-.481.688-1.033 1.854-3.831l-.923-.385Zm-3.005 7.064c-.891 1.596-1.546 2.592-2.077 3.738-.544 1.173-.971 2.521-1.475 4.903l.978.206c.496-2.345.905-3.611 1.404-4.688.512-1.104 1.107-1.994 2.044-3.671l-.874-.488Zm-3.552 8.641c-.259 1.224-.834 3.069-1.378 4.898-.532 1.792-1.045 3.6-1.131 4.665l.996.08c.076-.935.549-2.627 1.094-4.46.533-1.796 1.127-3.701 1.397-4.977l-.978-.206Zm-9.203-178.567c-1.842.116-3.03.23-4.247.511-1.214.28-2.44.723-4.362 1.476l.365.931c1.923-.753 3.087-1.171 4.222-1.433 1.131-.261 2.249-.371 4.084-.487l-.062-.998Zm-8.609 1.987c-2.372.93-5.662 2.141-7.305 2.689l.316.948c1.665-.555 4.972-1.772 7.354-2.706l-.365-.931Zm-7.305 2.689c-2.274.759-5.673 2.793-8.862 5.102-3.19 2.312-6.25 4.957-7.824 6.981l.789.614c1.485-1.91 4.452-4.489 7.622-6.785 3.173-2.299 6.47-4.256 8.591-4.964l-.316-.948Zm-16.686 12.083c-1.388 1.784-3.323 5.187-4.993 8.548-1.665 3.352-3.112 6.755-3.488 8.537l.979.206c.345-1.641 1.735-4.936 3.405-8.298 1.665-3.352 3.563-6.679 4.886-8.379l-.789-.614Zm-8.481 17.085c-.28 1.332-.787 3.348-1.124 4.469l.957.288c.347-1.152.861-3.196 1.146-4.551l-.979-.206Zm-1.125 4.47c-.672 2.244-.509 5.087.572 11.955l.988-.156c-1.089-6.918-1.197-9.525-.602-11.512l-.958-.287Zm.572 11.955c2.147 13.646 11.771 23.041 25.906 25.337l.16-.987c-13.731-2.23-23.002-11.308-25.078-24.506l-.988.156Zm25.906 25.337c1.684.273 4.448.971 6.12 1.545l.324-.946c-1.723-.592-4.542-1.303-6.284-1.586l-.16.987Zm6.12 1.545c3.265 1.121 8.924 1.365 14.565.955 5.648-.411 11.405-1.489 14.875-3.089l-.419-.908c-3.305 1.524-8.918 2.591-14.528 2.999-5.618.409-11.106.149-14.168-.903l-.325.946Zm29.44-2.134c4.065-1.877 8.375-5.113 11.992-8.745 3.613-3.629 6.58-7.698 7.915-11.268l-.937-.35c-1.265 3.383-4.124 7.335-7.687 10.912-3.557 3.573-7.772 6.728-11.702 8.543l.419.908Zm19.907-20.012c.279-.747.682-2.304 1.126-4.223.446-1.932.941-4.266 1.403-6.589.461-2.324.89-4.641 1.205-6.54.312-1.88.519-3.397.522-4.088l-1-.005c-.002.595-.193 2.025-.509 3.93-.312 1.885-.739 4.191-1.199 6.508-.46 2.316-.953 4.639-1.396 6.559-.447 1.932-.836 3.423-1.089 4.097l.937.351Zm4.256-21.44c.005-1.01-.33-2.525-.851-4.234-.525-1.725-1.256-3.699-2.077-5.652-.821-1.953-1.735-3.891-2.628-5.543-.888-1.642-1.774-3.034-2.543-3.868l-.735.677c.681.739 1.518 2.039 2.399 3.667.875 1.618 1.775 3.526 2.585 5.454.811 1.929 1.529 3.871 2.043 5.557.518 1.702.811 3.091.807 3.937l1 .005Zm-8.099-19.298c-2.332-2.529-7.327-5.925-12.375-8.756-2.533-1.421-5.097-2.71-7.373-3.686-2.264-.97-4.283-1.649-5.711-1.821l-.119.993c1.277.153 3.186.783 5.436 1.748 2.236.958 4.768 2.23 7.278 3.638 5.037 2.825 9.912 6.157 12.129 8.562l.735-.678Zm-25.459-14.263c-3.43-.414-3.975-.411-10.437-.004l.063.998c6.445-.406 6.917-.404 10.254-.001l.12-.993Zm95.895 15.783c-6.484.974-12.507 5.276-15.534 11.093l.888.461c2.878-5.533 8.627-9.638 14.794-10.566l-.148-.988Zm-15.534 11.093c-2.773 5.331-2.858 10.796-.669 15.39 2.186 4.588 6.611 8.251 12.753 10.051l.282-.96c-5.916-1.733-10.088-5.23-12.132-9.521-2.042-4.286-1.988-9.42.654-14.499l-.888-.461Zm12.084 25.441c.783.229 2.112.388 3.662.491 1.564.103 3.397.152 5.214.147 1.815-.006 3.621-.064 5.13-.177 1.488-.111 2.748-.277 3.431-.518l-.332-.943c-.54.19-1.671.352-3.173.464-1.48.11-3.261.168-5.059.174-1.799.005-3.608-.043-5.145-.145-1.552-.103-2.781-.258-3.446-.453l-.282.96Zm17.437-.057c4.194-1.48 7.254-3.423 9.25-6.037 2.002-2.62 2.891-5.858 2.848-9.842l-1 .01c.042 3.825-.81 6.827-2.642 9.225-1.837 2.405-4.701 4.259-8.788 5.701l.332.943Zm12.098-15.879c-.078-7.182-2.783-12.922-7.415-16.573-4.628-3.648-11.115-5.162-18.67-4.025l.148.988c7.346-1.104 13.538.382 17.902 3.822 4.36 3.437 6.96 8.872 7.035 15.798l1-.01Zm-134.791-15.93c-4.149.791-8.783 4.025-12.361 7.916-1.796 1.954-3.345 4.092-4.448 6.207-1.099 2.109-1.771 4.227-1.771 6.13h1c0-1.683.599-3.637 1.658-5.667 1.055-2.025 2.55-4.093 4.297-5.993 3.51-3.816 7.963-6.877 11.812-7.611l-.187-.982Zm-18.58 20.253c0 7.728 6.565 12.989 14.44 14.795 7.893 1.81 17.342.226 23.44-5.953l-.712-.703c-5.795 5.874-14.858 7.435-22.504 5.681-7.664-1.757-13.664-6.768-13.664-13.82h-1Zm37.88 8.842c6.516-6.603 6.533-14.83 2.465-20.926-4.057-6.081-12.146-10.005-21.765-8.169l.187.982c9.244-1.764 16.923 2.011 20.747 7.742 3.813 5.716 3.824 13.415-2.346 19.668l.712.703Zm56.585 29.244c.474-.096 1.248-.125 2.28-.091 1.021.034 2.259.13 3.641.269 2.764.28 6.081.733 9.353 1.214 3.272.481 6.485.989 9.053 1.378 1.281.194 2.402.358 3.284.474.869.115 1.54.187 1.901.187v-1c-.283 0-.886-.062-1.77-.178-.872-.115-1.985-.278-3.266-.472-2.557-.387-5.783-.897-9.057-1.378-3.275-.482-6.61-.938-9.397-1.22-1.394-.14-2.656-.238-3.709-.273-1.041-.035-1.915-.011-2.511.109l.198.981Zm29.512 3.431c4.587 0 9.058.239 12.127 1.208 1.536.485 2.646 1.131 3.266 1.952.594.788.789 1.808.338 3.202l.952.308c.53-1.642.335-3.016-.492-4.113-.803-1.064-2.148-1.792-3.763-2.302-3.233-1.021-7.846-1.255-12.428-1.255v1ZM280.5 324c-4.03 0-9.61.502-14.467 2.655l.405.915c4.672-2.072 10.092-2.57 14.062-2.57v-1Zm-14.494 2.668c-6.493 3.36-11.265 7.379-14.196 11.956-2.936 4.587-4.006 9.709-3.133 15.223l.987-.157c-.835-5.275.186-10.149 2.989-14.527 2.808-4.387 7.423-8.301 13.812-11.606l-.459-.889Zm-17.329 27.179c.926 5.847 3.064 10.304 6.649 13.48 3.579 3.171 8.542 5.015 15.021 5.752l.113-.994c-6.36-.723-11.099-2.519-14.471-5.507-3.365-2.982-5.424-7.201-6.325-12.888l-.987.157Zm21.67 19.232c2.477.281 3.722.659 4.488 1.559.388.455.683 1.08.922 1.988.24.909.415 2.068.583 3.569l.993-.111c-.168-1.509-.349-2.729-.609-3.713-.26-.986-.607-1.769-1.127-2.381-1.051-1.234-2.687-1.626-5.137-1.905l-.113.994Zm5.993 7.116c.219 1.954.633 4.826.922 6.39l.983-.181c-.284-1.537-.695-4.384-.912-6.321l-.993.112Zm.922 6.39c.491 2.656.787 4.734.871 6.282.042.774.031 1.401-.031 1.893-.063.499-.173.822-.299 1.018-.113.176-.235.247-.383.269-.175.026-.442-.009-.832-.176-.784-.335-1.856-1.109-3.259-2.345l-.661.751c1.41 1.241 2.584 2.11 3.527 2.514.473.202.939.31 1.373.245.461-.069.824-.324 1.077-.718.24-.374.377-.865.449-1.433.072-.574.082-1.266.038-2.072-.088-1.614-.393-3.742-.887-6.409l-.983.181Zm-3.933 6.941c-5.714-5.033-11.683-6.374-15.58-4.683-1.966.853-3.365 2.467-3.883 4.687-.514 2.204-.15 4.96 1.299 8.119l.909-.417c-1.389-3.028-1.683-5.552-1.234-7.475.445-1.908 1.628-3.269 3.307-3.997 3.389-1.47 8.948-.392 14.521 4.517l.661-.751Zm-18.164 8.123c3.077 6.708 10.581 11.169 20.485 12.388l.122-.993c-9.706-1.194-16.818-5.534-19.698-11.812l-.909.417Zm20.485 12.388c2.201.271 3.302.52 4.054 1.102.747.579 1.219 1.542 1.937 3.531l.94-.339c-.703-1.95-1.254-3.199-2.264-3.982-1.005-.778-2.393-1.04-4.545-1.305l-.122.993Zm5.991 4.633c.712 1.974 1.888 3.294 3.296 3.986 1.405.691 2.99.733 4.477.241 2.971-.984 5.558-4.091 5.781-8.537l-.999-.05c-.204 4.078-2.558 6.797-5.096 7.638-1.269.42-2.58.373-3.722-.189-1.138-.56-2.157-1.657-2.797-3.428l-.94.339Zm13.554-4.31c.057-1.149.123-2.45.145-2.886l-.999-.05c-.022.437-.087 1.735-.145 2.886l.999.05Zm.145-2.886c.022-.435.353-1.017 1.264-1.752.893-.72 2.251-1.513 4.114-2.389l-.426-.905c-1.89.889-3.331 1.722-4.316 2.516-.966.779-1.59 1.599-1.635 2.48l.999.05Zm5.378-4.141c6.159-2.896 10.589-6.769 13.093-11.378 2.507-4.616 3.056-9.926 1.533-15.635l-.966.258c1.464 5.489.926 10.532-1.446 14.9-2.377 4.376-6.619 8.12-12.64 10.95l.426.905Zm14.626-27.013c-1.638-6.137-4.196-10.826-7.943-14.243-3.746-3.417-8.64-5.525-14.881-6.574l-.165.986c6.108 1.027 10.806 3.073 14.373 6.327s6.046 7.753 7.65 13.762l.966-.258Zm-22.824-20.817c-2.932-.493-4.345-.96-5.169-2.091-.419-.574-.714-1.359-.931-2.507-.218-1.148-.351-2.615-.471-4.527l-.998.063c.12 1.914.256 3.436.486 4.651.231 1.215.563 2.165 1.106 2.909 1.097 1.505 2.936 2.005 5.812 2.488l.165-.986Zm-6.571-9.125c-.176-2.8-.573-6.499-.884-8.229l-.984.177c.302 1.677.695 5.333.87 8.115l.998-.063Zm-.884-8.229c-.328-1.825-.314-3.201-.069-4.141.244-.932.688-1.361 1.195-1.487.548-.137 1.348.029 2.386.699 1.025.662 2.208 1.771 3.481 3.366l.782-.624c-1.314-1.646-2.575-2.842-3.72-3.582-1.133-.731-2.229-1.064-3.171-.829-.982.244-1.62 1.057-1.92 2.204-.298 1.138-.288 2.676.052 4.571l.984-.177Zm6.993-1.563c1.728 2.167 3.636 3.591 5.69 4.2 2.064.612 4.221.386 6.407-.652l-.429-.903c-1.996.947-3.899 1.129-5.693.597-1.803-.535-3.551-1.807-5.193-3.866l-.782.624Zm12.097 3.548c1.618-.768 2.799-1.737 3.494-2.889.703-1.163.885-2.471.577-3.85-.607-2.716-3.109-5.702-7.243-8.653l-.581.814c4.082 2.914 6.324 5.714 6.848 8.057.257 1.15.101 2.191-.457 3.115-.564.934-1.565 1.789-3.067 2.503l.429.903Zm-3.172-15.392c-4.789-3.42-10.972-4.242-20.457-4.741l-.052.998c9.515.501 15.408 1.329 19.928 4.557l.581-.814Zm-29.671 10.005c.517.798 1.016 2.35 1.435 4.329.414 1.956.736 4.26.929 6.505.194 2.247.258 4.419.16 6.115-.049.849-.137 1.562-.264 2.1-.064.268-.134.48-.207.637-.075.162-.139.236-.172.264l.63.776c.199-.162.342-.386.45-.62.11-.238.199-.519.272-.827.146-.617.239-1.395.29-2.273.101-1.759.034-3.982-.162-6.258-.197-2.277-.524-4.622-.948-6.626-.419-1.981-.946-3.698-1.574-4.666l-.839.544Zm1.881 19.95c-.599.487-1.512.614-2.848.19-1.334-.423-2.993-1.37-4.95-2.869l-.608.794c1.997 1.529 3.762 2.555 5.255 3.029 1.492.473 2.81.421 3.781-.368l-.63-.776Zm-7.798-2.679c-1.785-1.368-2.879-3.094-3.278-5.025-.4-1.934-.11-4.113.942-6.388l-.907-.42c-1.126 2.432-1.466 4.829-1.014 7.011.451 2.185 1.689 4.115 3.649 5.616l.608-.794Zm-2.336-11.413c1.166-2.519 2.974-4.561 4.66-5.654.846-.549 1.622-.834 2.245-.859.593-.024 1.042.184 1.348.655l.839-.544c-.524-.807-1.33-1.146-2.228-1.11-.869.034-1.82.417-2.748 1.019-1.862 1.207-3.788 3.403-5.023 6.073l.907.42Zm32.075 34.322c3.672 2.521 5.954 5.455 6.778 8.275.817 2.796.217 5.517-1.952 7.729l.714.7c2.429-2.477 3.114-5.575 2.198-8.709-.909-3.109-3.376-6.214-7.172-8.82l-.566.825Zm4.826 16.004c-2.166 2.207-4.187 2.879-5.574 2.499-1.333-.366-2.38-1.805-2.386-4.568l-1 .002c.006 2.965 1.155 4.991 3.121 5.53 1.912.525 4.293-.459 6.553-2.763l-.714-.7Zm-7.96-2.069c-.001-.309-.093-1.051-.228-1.953-.137-.922-.327-2.059-.534-3.189l-.984.18c.206 1.121.393 2.246.529 3.156.139.929.216 1.589.217 1.808l1-.002Zm-.762-5.142c-.447-2.433-.687-4.422-.722-5.982-.036-1.576.139-2.652.467-3.304.159-.317.345-.515.544-.633.198-.117.446-.177.77-.156.673.044 1.608.438 2.837 1.282l.566-.825c-1.266-.869-2.387-1.393-3.338-1.455-.488-.032-.945.057-1.345.294-.398.236-.702.596-.927 1.044-.441.877-.61 2.156-.574 3.776.037 1.634.287 3.681.738 6.139l.984-.18Zm-19.079 59.068c-.519.078-1.399.078-1.918 0l-.149.989c.618.093 1.598.093 2.216 0l-.149-.989Zm-1.917 0c-.064-.01-.1-.017-.116-.021-.008-.002-.001-.001.015.005.003.001.073.027.143.098.039.039.103.118.129.24.029.135-.003.26-.058.353-.085.143-.212.19-.214.191-.044.019-.066.018-.022.012.145-.022.509-.041 1.081-.041v-1c-.565 0-1.002.017-1.231.052-.05.008-.139.023-.222.058-.022.009-.162.066-.252.218-.058.097-.09.227-.06.366.027.126.094.21.138.254.079.08.166.115.192.126.041.016.08.028.111.036.063.016.137.03.215.042l.151-.989Zm.958.837c.572 0 .937.019 1.082.041.043.006.021.007-.023-.012-.002-.001-.129-.048-.214-.191-.055-.093-.087-.218-.058-.353.026-.122.091-.201.13-.24.069-.071.14-.097.142-.098.016-.006.023-.007.015-.005-.016.004-.051.011-.115.021l.15.989c.078-.012.152-.026.215-.042.032-.008.071-.02.111-.036.027-.011.114-.046.192-.126.044-.044.111-.128.138-.254.03-.139-.002-.269-.06-.366-.09-.152-.23-.209-.252-.218-.083-.035-.172-.05-.221-.058-.23-.035-.667-.052-1.232-.052v1Zm27.75-217.627c1.628.162 8.534.502 10.55.502v-1c-1.984 0-8.857-.338-10.45-.498l-.1.996Zm-18.247-6.14c2.298 1.35 3.607 2.218 4.224 2.861l.721-.692c-.731-.763-2.172-1.7-4.439-3.031l-.506.862Zm18.347 5.144c-2.57-.256-2.944-.165-4.232-.445-1.299-.281-3.449-.93-9.39-2.664l-.281.96c5.908 1.725 8.115 2.39 9.459 2.682 1.357.294 1.914.219 4.344.463l.1-.996ZM253.035 65.0707l-.316-.9487h-.001l.317.9487Zm-18.296 13.3742-.698-.7154.698.7154Zm-19.579 9.7816-.441.8976v.0001l.441-.8977Zm-18.674-8.2414.47-.8826v-.0001l-.47.8827Zm-5.262-1.0055-.087.9962.087-.9962Zm-6.665-1.0027-.24.9707.24-.9707Zm-20.314 17.2035.997.0749-.997-.0749Zm-1.869 15.7876-.997-.075v.001l.997.074Zm-12.398 7.089.004 1-.004-1Zm-19.17 1.179.091.996-.091-.996Zm-20.86 10.232 1-.001-1 .001Zm2.877 9.879.896-.444-.896.444Zm4.302 10.84.961-.275-.961.275Zm3.348 7.391.819-.574-.819.574Zm.846 12.931-.612-.791.612.791Zm-9.912 8.725-.724-.69.724.69Zm-16.5562 15.157-.5809-.814h-.0003l.5812.814Zm-3.851 7.73.9999-.014-.9999.014Zm8.5974 12.968-.6231.782.6231-.782Zm12.2268 10.043-.606.796.606-.796Zm11.924 14.261-.883-.471v.001l.883.47Zm-3.762 7.296.89.456-.89-.456Zm-4.901 8.893-.842-.54.842.54Zm-7.009 14.575.943.333v-.001l-.943-.332Zm-3.36 7.217.892.451-.892-.451Zm6.804 19.857-.13.992.13-.992Zm5.019.94-.358.933v.001l.358-.934Zm10.884 2.649-.213.977h.001l.212-.977Zm7.33.736.07-.998-.07.998Zm13.693 6.26-.993.118.993-.118Zm1.001 4.064.944-.328v-.001l-.944.329Zm1.316 5.057.983-.186-.983.186Zm1.231 4.699.939-.346-.001-.001-.938.347Zm2.313 8.673.92-.391v-.001l-.92.392Zm1.265 4.238.975-.222v-.001l-.975.223Zm2.28 8.071-.976.22.976-.22Zm25.765 4.211.662.75-.662-.75Zm10.08-3.778-.065.998.065-.998Zm6.459-.089.115.993-.115-.993Zm5.18 3.527-.99.142.99-.142Zm-2.119 24.423.964.264-.964-.264Zm-2.949 20.302 1 .029-1-.029Zm4.126 17.788.867-.499-.867.499Zm3.465 6.47.895-.446-.895.446Zm25.601 24.967-.219.976.219-.976Zm5.976 2.257.444-.897h-.001l-.443.897Zm13.72 3.369-.076.998h.001l.075-.998Zm6.578.748.148-.989-.148.989Zm31.07-.273-.25-.968.25.968Zm10.465-.858.006 1h.001l-.007-1Zm24.62-5.708.411.912-.411-.912Zm6.202-2.529.306.952h.001l-.307-.952Zm14.722-9.088.608.794-.608-.794Zm12.348-10.337.773.635.001-.001-.774-.634Zm4.33-4.859.729.686-.729-.686Zm6.057-21.788-.999.056.999-.056Zm-2.519-10.342-.778.629.778-.629Zm-2.767-8.473.982-.191-.982.191Zm-1.135-4.439.941-.337v-.001l-.941.338Zm-3.75-15.642-.976.216.976-.216Zm-1.767-9.637.988-.153-.988.153Zm-.851-5.503-.969-.247-.05.198.031.201.988-.152Zm1.183-4.646.969.246-.969-.246Zm2.147-13.293-.996-.086.996.086Zm15.417-18.032.217.976-.217-.976Zm10.148-3.972.439.899-.439-.899Zm10.099-4.873.431.903-.431-.903Zm2.512-27.815-.831.556.831-.556Zm-12.086-16.918-.707.707.707-.707Zm6.657-9.574.385.922h.001l-.386-.922Zm3.624-2.209-.58-.814h-.001l.581.814Zm1.052-.749-.58-.815.58.815Zm3.178-2.262.579.815-.579-.815Zm7.852-5.392.562.828-.562-.828Zm8.814-22.901-.833.554.833-.554Zm-11.598-9.944.47-.882-.47.882Zm-4.905-3.595-.662.749.662-.749Zm-9.942-7.467-.626.779.626-.779Zm-11.319-11.914-.702-.712h-.001l.703.712Zm3.345-4.998.893.45v-.001l-.893-.449Zm5.098-8.829.848.529h.001l-.849-.529Zm5.582-8.971-.85-.527.85.527Zm7.032-9.959.793.61-.793-.61Zm1.168-11.14-.888.459.888-.459Zm-12.216-5.828-.148.989.148-.989Zm-7.142-1.165.177-.984-.177.984Zm-12.72-.456-.013-.999.013.999Zm-9.527.118-.778.628.305.378.485-.006-.012-1Zm-.911-1.128.778-.628-.778.628Zm-1.692-3.25.938-.346-.938.346Zm-2.842-4.699-.781.624v.001l.781-.625Zm-5.397-8.402.829-.559-.001-.001-.828.56Zm-3.559-6.578.888-.4603v-.0001l-.888.4604Zm-31.097-8.714.552.8337-.552-.8337Zm-12.242 6.2707v1-1Zm-17.761-12.7595.676-.7373-.001-.0003-.675.7376Zm-5.826-4.9138.602-.7983v-.0004l-.602.7987Zm-5.62-4.49.643-.7662v-.0001l-.643.7663Zm-20.549-7.7674c-5.728 1.9089-9.768 4.9056-18.677 13.6075l1.397 1.4307c8.886-8.6791 12.649-11.3866 17.913-13.1407l-.633-1.8975Zm-18.677 13.6075c-3.451 3.3708-5.965 5.8504-7.912 7.6385-1.963 1.8017-3.267 2.8208-4.301 3.3373-.956.4776-1.655.5142-2.488.2916-.948-.2535-2.014-.8209-3.74-1.6682l-.881 1.7955c1.591.7808 2.911 1.4857 4.105 1.8048 1.309.3499 2.509.2592 3.898-.4346 1.31-.6548 2.796-1.8511 4.759-3.6531 1.978-1.8154 4.524-4.3277 7.957-7.6811l-1.397-1.4307ZM215.6 87.3288c-1.168-.5736-2.292-1.0968-3.164-1.4785-.435-.1904-.816-.3493-1.112-.4624-.147-.0561-.285-.1054-.404-.1422-.073-.0223-.276-.0866-.484-.0866v2c-.138 0-.213-.0353-.106-.0023.06.0185.153.0508.281.0997.253.0968.602.2416 1.023.426.84.3677 1.937.8781 3.085 1.4416l.881-1.7953Zm-5.164-2.1697c.075 0 .09.0127-.014-.0135-.081-.0203-.197-.0544-.35-.1049-.306-.1005-.714-.2511-1.208-.4453-.986-.3873-2.273-.9317-3.676-1.5529-2.81-1.2434-6.047-2.776-8.232-3.94l-.94 1.7651c2.244 1.1957 5.53 2.7501 8.362 4.0038 1.418.6273 2.732 1.184 3.754 1.5856.51.2002.958.3661 1.314.4834.177.0584.344.1086.49.1453.123.0308.312.0734.5.0734v-2Zm-13.48-6.0567c-.527-.2806-1.345-.4988-2.259-.6735-.948-.1811-2.107-.3344-3.387-.4456l-.173 1.9925c1.231.1069 2.32.2524 3.184.4176.898.1716 1.456.3471 1.695.4743l.94-1.7653Zm-5.646-1.119c-2.189-.1911-5.132-.6361-6.511-.9772l-.48 1.9414c1.516.375 4.57.8321 6.818 1.0282l.173-1.9924Zm-6.511-.9772c-6.443-1.5951-11.631-1.016-15.346 2.1304-3.675 3.1124-5.647 8.5252-6.206 15.969l1.995.1497c.544-7.2535 2.441-11.9992 5.504-14.5925 3.022-2.5594 7.44-3.2335 13.573-1.7152l.48-1.9414Zm-21.552 18.0993c-.271 3.6161-.739 7.7925-1.031 9.2785l1.962.387c.318-1.615.792-5.8959 1.064-9.5157l-1.995-.1498Zm-1.031 9.2785c-.315 1.599-.688 4.515-.837 6.509l1.995.149c.144-1.934.508-4.768.804-6.271l-1.962-.387Zm-.837 6.51c-.136 1.832-.22 3.058-.44 3.951-.204.826-.486 1.204-.939 1.463-.547.313-1.465.522-3.14.63-1.648.105-3.857.108-6.886.119l.008 2c2.995-.011 5.282-.013 7.006-.124 1.696-.108 3.025-.328 4.005-.889 1.074-.614 1.599-1.553 1.887-2.719.272-1.1.364-2.541.494-4.283l-1.995-.148Zm-11.405 6.163c-5.152.019-10.719.205-12.347.426l.269 1.982c1.473-.2 6.901-.389 12.086-.408l-.008-2Zm-12.347.426c-1.531.208-4.645.55-6.911.758l.183 1.991c2.283-.209 5.427-.554 6.997-.767l-.269-1.982Zm-6.91.758c-4.43.406-7.978.81-10.805 1.301-2.817.49-4.982 1.076-6.611 1.876-1.657.812-2.791 1.861-3.481 3.262-.674 1.367-.873 2.969-.872 4.789l2-.002c-.001-1.707.194-2.944.666-3.903.456-.926 1.22-1.69 2.567-2.351 1.375-.674 3.32-1.222 6.074-1.7 2.744-.477 6.227-.876 10.644-1.281l-.182-1.991Zm-21.769 11.228c.002 1.807.101 3.129.547 4.66.436 1.498 1.193 3.159 2.434 5.662l1.792-.888c-1.245-2.513-1.925-4.027-2.305-5.333-.371-1.272-.466-2.381-.468-4.103l-2 .002Zm2.981 10.322c2.199 4.441 3.119 6.764 4.236 10.671l1.923-.55c-1.157-4.044-2.124-6.481-4.367-11.009l-1.792.888Zm4.236 10.671c.762 2.666 2.19 5.834 3.491 7.69l1.638-1.148c-1.145-1.633-2.49-4.586-3.206-7.092l-1.923.55Zm3.491 7.69c1.82 2.597 2.749 5.026 2.88 7.031.13 1.974-.507 3.513-1.827 4.535l1.223 1.582c1.937-1.498 2.765-3.731 2.6-6.247-.162-2.484-1.284-5.261-3.238-8.049l-1.638 1.148Zm1.053 11.566c-3.225 2.494-7.962 6.662-10.024 8.826l1.449 1.38c1.971-2.07 6.626-6.17 9.798-8.624l-1.223-1.582Zm-10.024 8.826c-1.692 1.777-5.235 5.137-8.658 8.27-3.4412 3.151-6.6694 5.988-7.7551 6.763l1.1617 1.628c1.2082-.863 4.54-3.799 7.9444-6.916 3.423-3.133 7.011-6.534 8.756-8.365l-1.449-1.38Zm-16.4134 15.033c-1.517 1.083-2.6268 2.231-3.3336 3.649-.7057 1.417-.9633 3.011-.9361 4.909l1.9998-.028c-.0244-1.706.2104-2.953.7265-3.989.5151-1.034 1.3566-1.95 2.7057-2.914l-1.1623-1.627Zm-4.2697 8.558c.0383 2.68.4468 4.727 1.8469 6.839 1.3555 2.044 3.6044 4.09 7.1273 6.897l1.2459-1.564c-3.5321-2.815-5.5452-4.687-6.7063-6.438-1.1164-1.684-1.479-3.311-1.514-5.762l-1.9998.028Zm8.9742 13.736c1.4129 1.126 3.7619 3.1 5.2109 4.379l1.323-1.5c-1.472-1.299-3.846-3.295-5.288-4.443l-1.2459 1.564Zm5.2109 4.379c1.485 1.311 4.646 3.862 7.033 5.678l1.211-1.592c-2.367-1.8-5.486-4.318-6.921-5.586l-1.323 1.5Zm7.033 5.678c5.975 4.543 9.274 7.246 10.892 9.181.797.953 1.095 1.618 1.168 2.133.069.491-.045.992-.413 1.68l1.765.942c.476-.893.779-1.834.628-2.901-.147-1.043-.705-2.05-1.614-3.137-1.793-2.145-5.3-4.992-11.215-9.49l-1.211 1.592Zm11.647 12.995c-.318.596-2.016 3.889-3.769 7.31l1.78.912c1.757-3.429 3.446-6.703 3.754-7.282l-1.765-.94Zm-3.769 7.31c-1.755 3.422-3.942 7.387-4.853 8.809l1.683 1.079c.968-1.509 3.192-5.547 4.95-8.976l-1.78-.912Zm-4.853 8.809c-.907 1.415-2.383 4.259-3.767 7.138-1.387 2.883-2.724 5.889-3.343 7.644l1.886.665c.58-1.644 1.876-4.567 3.259-7.442 1.385-2.88 2.814-5.624 3.648-6.926l-1.683-1.079Zm-7.11 14.781c-.34.964-1.822 4.155-3.31 7.1l1.785.902c1.478-2.926 3.021-6.231 3.411-7.335l-1.886-.667Zm-3.31 7.1c-3.043 6.024-4.1705 10.965-2.902 14.668 1.312 3.829 5.009 5.914 10.469 6.632l.26-1.983c-5.163-.679-7.891-2.538-8.837-5.298-.988-2.885-.207-7.175 2.795-13.117l-1.785-.902Zm7.567 21.3c1.057.138 2.141.312 3.032.479.929.173 1.553.323 1.759.402l.717-1.867c-.406-.156-1.217-.334-2.108-.501-.928-.174-2.048-.353-3.14-.496l-.26 1.983Zm4.791.882c.552.211 2.04.605 3.961 1.072 1.957.477 4.447 1.049 7.068 1.62l.426-1.954c-2.609-.568-5.083-1.137-7.021-1.609-1.974-.48-3.314-.842-3.718-.997l-.716 1.868Zm11.03 2.692c.912.198 4.291.533 7.472.756l.14-1.995c-3.229-.226-6.447-.554-7.188-.715l-.424 1.954Zm7.471.756c4.78.336 7.929.915 9.92 1.825.978.447 1.631.954 2.065 1.514.429.553.687 1.213.786 2.042l1.986-.236c-.134-1.131-.507-2.149-1.192-3.032-.68-.877-1.623-1.563-2.813-2.107-2.344-1.072-5.809-1.663-10.611-2.001l-.141 1.995Zm12.771 5.381c.129 1.085.6 2.986 1.05 4.276l1.888-.659c-.415-1.191-.844-2.948-.952-3.853l-1.986.236Zm1.049 4.275c.413 1.186.994 3.414 1.279 4.915l1.965-.373c-.3-1.58-.905-3.905-1.355-5.199l-1.889.657Zm1.279 4.914c.299 1.576.865 3.748 1.275 4.859l1.876-.693c-.36-.974-.9-3.031-1.186-4.538l-1.965.372Zm1.275 4.858c.36.977.879 2.957 1.138 4.364l1.967-.361c-.273-1.487-.819-3.583-1.228-4.694l-1.877.691Zm1.138 4.364c.272 1.481.797 3.427 1.193 4.357l1.84-.785c-.314-.736-.806-2.52-1.066-3.933l-1.967.361Zm1.193 4.356c.32.754.874 2.595 1.21 4.068l1.95-.445c-.347-1.521-.932-3.493-1.32-4.406l-1.84.783Zm1.21 4.067c.343 1.513.879 3.425 1.205 4.265l1.865-.724c-.273-.701-.783-2.501-1.12-3.984l-1.95.443Zm1.205 4.265c.272.703.763 2.423 1.074 3.805l1.951-.44c-.32-1.419-.835-3.25-1.16-4.089l-1.865.724Zm1.074 3.805c1.519 6.729 5.196 10.846 10.313 11.682 5.013.82 11.018-1.59 17.09-6.941l-1.323-1.5c-5.878 5.18-11.293 7.146-15.444 6.468-4.047-.662-7.278-3.916-8.685-10.149l-1.951.44Zm27.403 4.741c1.909-1.683 3.206-2.596 4.51-3.085 1.287-.482 2.676-.586 4.843-.445l.13-1.996c-2.269-.148-3.993-.062-5.674.568-1.664.624-3.188 1.744-5.132 3.458l1.323 1.5Zm9.353-3.53c2.046.133 5.015.094 6.639-.094l-.23-1.987c-1.477.171-4.321.213-6.279.085l-.13 1.996Zm6.639-.094c1.14-.132 1.93-.216 2.515-.219.595-.004.795.083.868.133.05.034.169.135.304.6.138.477.243 1.149.388 2.162l1.98-.284c-.139-.971-.262-1.796-.447-2.434-.188-.649-.486-1.28-1.099-1.697-.588-.4-1.297-.484-2.005-.48-.718.004-1.627.104-2.734.232l.23 1.987Zm4.075 2.676c.898 6.258.044 16.208-2.094 24.017l1.929.528c2.192-8.006 3.091-18.238 2.145-24.829l-1.98.284Zm-2.094 24.017c-2.113 7.715-2.739 12.032-2.984 20.537l2 .058c.24-8.356.845-12.515 2.913-20.067l-1.929-.528Zm-2.984 20.537c-.136 4.738-.156 7.511.424 10.01.584 2.517 1.763 4.703 3.836 8.306l1.733-.998c-2.093-3.637-3.114-5.576-3.621-7.76-.51-2.2-.51-4.702-.372-9.5l-2-.058Zm4.259 18.315c.986 1.715 2.536 4.609 3.437 6.418l1.79-.892c-.918-1.843-2.487-4.772-3.493-6.523l-1.734.997Zm3.437 6.417c3.048 6.126 7.453 11.993 12.148 16.572 4.67 4.554 9.734 7.937 14.129 8.926l.439-1.951c-3.862-.869-8.603-3.951-13.172-8.407-4.545-4.433-8.812-10.12-11.754-16.031l-1.79.891Zm26.277 25.498c1.324.297 3.935 1.279 5.752 2.177l.886-1.793c-1.904-.941-4.67-1.992-6.199-2.335l-.439 1.951Zm5.751 2.177c3.856 1.908 8.554 3.051 14.088 3.471l.151-1.995c-5.355-.406-9.787-1.504-13.351-3.269l-.888 1.793Zm14.089 3.471c1.731.13 4.666.465 6.505.739l.296-1.978c-1.883-.281-4.868-.621-6.651-.756l-.15 1.995Zm6.505.739c11.29 1.689 24.156 1.593 31.468-.294l-.5-1.936c-6.95 1.793-19.519 1.921-30.672.252l-.296 1.978Zm31.468-.294c2.509-.647 4.057-.785 10.221-.826l-.013-2c-6.176.041-7.939.176-10.708.89l.5 1.936Zm10.222-.826c5.073-.035 8.721-.294 12.424-1.152 3.695-.857 7.4-2.3 12.6-4.644l-.822-1.824c-5.171 2.331-8.731 3.708-12.23 4.519-3.492.81-6.969 1.067-11.986 1.101l.014 2Zm25.024-5.796c2.268-1.023 5.017-2.141 6.097-2.489l-.612-1.904c-1.193.384-4.027 1.542-6.307 2.569l.822 1.824Zm6.098-2.489c1.492-.48 3.908-1.774 6.567-3.416 2.689-1.659 5.715-3.731 8.456-5.83l-1.216-1.588c-2.687 2.058-5.657 4.091-8.29 5.717-2.662 1.643-4.894 2.815-6.13 3.213l.613 1.904Zm15.023-9.246c8.068-6.18 10.913-8.545 12.513-10.496l-1.546-1.269c-1.419 1.73-4.036 3.937-12.183 10.177l1.216 1.588Zm12.514-10.497c.89-1.085 2.822-3.254 4.285-4.807l-1.457-1.372c-1.48 1.572-3.446 3.777-4.375 4.911l1.547 1.268Zm4.285-4.807c4.833-5.134 6.881-12.747 6.326-22.531l-1.997.113c.538 9.483-1.47 16.463-5.786 21.046l1.457 1.372Zm6.326-22.531c-.098-1.741-.521-4.118-1.024-6.182-.252-1.037-.53-2.017-.807-2.817-.258-.749-.562-1.486-.909-1.915l-1.555 1.258c.097.12.306.535.574 1.31.25.724.511 1.64.754 2.637.488 2.003.882 4.249.97 5.822l1.997-.113Zm-2.74-10.914c.007.009-.006-.006-.038-.062-.03-.051-.067-.122-.112-.214-.09-.184-.195-.427-.313-.721-.236-.588-.505-1.343-.775-2.17-.541-1.659-1.067-3.546-1.324-4.868l-1.964.382c.28 1.435.832 3.407 1.387 5.107.279.852.562 1.651.819 2.292.128.32.253.61.371.853.109.223.242.47.394.659l1.555-1.258Zm-2.562-8.035c-.304-1.558-.826-3.611-1.176-4.585l-1.882.675c.3.839.8 2.781 1.094 4.293l1.964-.383Zm-1.176-4.586c-.522-1.455-1.416-5.167-3.714-15.521l-1.953.433c2.28 10.271 3.207 14.156 3.785 15.764l1.882-.676Zm-3.714-15.521c-.499-2.248-1.291-6.562-1.756-9.573l-1.976.305c.469 3.042 1.269 7.401 1.779 9.701l1.953-.433Zm-1.756-9.573-.85-5.503-1.977.305.851 5.503 1.976-.305Zm-.869-5.104 1.182-4.646-1.939-.493-1.182 4.646 1.939.493Zm1.182-4.646c.765-3.008 1.155-4.52 1.428-6.211.272-1.683.427-3.54.746-7.242l-1.992-.172c-.322 3.739-.471 5.504-.728 7.095-.256 1.583-.619 2.997-1.393 6.037l1.939.493Zm2.174-13.453c.568-6.585 1.318-10.072 3.241-12.321 1.915-2.24 5.151-3.433 11.397-4.821l-.434-1.952c-6.165 1.37-10.074 2.655-12.483 5.473-2.401 2.809-3.154 6.958-3.713 13.449l1.992.172Zm14.638-17.142c1.752-.389 2.818-.648 4.228-1.2 1.38-.54 3.086-1.36 6.142-2.849l-.877-1.798c-3.082 1.502-4.706 2.28-5.994 2.785-1.258.492-2.198.724-3.933 1.11l.434 1.952Zm10.37-4.049c2.892-1.411 7.433-3.602 10.091-4.869l-.861-1.805c-2.663 1.27-7.21 3.463-10.107 4.876l.877 1.798Zm10.091-4.869c3.92-1.87 6.46-3.374 7.958-5.424 1.533-2.098 1.87-4.612 1.87-8.152h-2c0 3.481-.355 5.426-1.485 6.972-1.163 1.592-3.253 2.914-7.204 4.799l.861 1.805Zm9.828-13.576c0-2.515.009-3.974-.931-6.083-.888-1.993-2.642-4.611-5.984-9.614l-1.663 1.111c3.401 5.09 5.021 7.523 5.82 9.317.748 1.679.758 2.744.758 5.269h2Zm-6.915-15.697c-8.451-12.65-10.064-14.923-12.211-17.07l-1.414 1.414c1.97 1.971 3.451 4.027 11.962 16.767l1.663-1.111Zm-12.211-17.07c-.743-.744-1.084-1.374-1.179-1.896-.089-.487.013-1.007.436-1.616.44-.632 1.213-1.333 2.406-2.092 1.186-.753 2.736-1.532 4.672-2.341l-.771-1.845c-1.997.835-3.659 1.663-4.973 2.498-1.307.831-2.324 1.701-2.976 2.639-.669.962-.962 2.013-.761 3.116.194 1.069.829 2.048 1.732 2.951l1.414-1.414Zm6.336-7.945c.809-.338 2.516-1.387 3.819-2.317l-1.162-1.628c-1.281.915-2.837 1.853-3.429 2.1l.772 1.845Zm3.818-2.316 1.052-.75-1.16-1.629-1.052.75 1.16 1.629Zm1.052-.75c1.132-.806 2.4-1.709 3.177-2.261l-1.159-1.63c-.777.552-2.047 1.457-3.178 2.262l1.16 1.629Zm3.177-2.261c1.024-.728 4.548-3.148 7.835-5.379l-1.124-1.655c-3.283 2.229-6.826 4.661-7.87 5.404l1.159 1.63Zm7.835-5.379c5.779-3.925 9.529-7.78 11.082-11.815 1.587-4.122.813-8.243-1.998-12.468l-1.665 1.108c2.548 3.83 3.094 7.272 1.796 10.642-1.331 3.458-4.667 7.027-10.339 10.878l1.124 1.655Zm9.084-24.283c-.383-.575-1.187-1.42-2.129-2.328-.969-.934-2.16-2.006-3.386-3.057-2.417-2.072-5.083-4.161-6.445-4.887l-.941 1.765c1.136.605 3.641 2.545 6.085 4.64 1.204 1.033 2.365 2.079 3.299 2.979.96.925 1.607 1.628 1.852 1.996l1.665-1.108Zm-11.96-10.272c-1.064-.567-3.205-2.13-4.712-3.462l-1.325 1.498c1.567 1.385 3.839 3.059 5.096 3.729l.941-1.765Zm-4.712-3.462c-1.568-1.386-4.129-3.376-5.719-4.444l-1.115 1.661c1.511 1.013 4.002 2.949 5.509 4.281l1.325-1.498Zm-5.719-4.444c-1.542-1.034-3.462-2.413-4.259-3.054l-1.253 1.559c.862.694 2.838 2.11 4.397 3.156l1.115-1.661Zm-4.259-3.053c-1.186-.954-3.729-2.714-6.012-4.22-1.147-.756-2.244-1.459-3.09-1.975-.421-.257-.791-.474-1.077-.629-.141-.076-.277-.146-.396-.199-.059-.026-.128-.055-.202-.08-.049-.016-.198-.065-.381-.065v2c-.089 0-.156-.013-.184-.019-.032-.007-.054-.014-.062-.016-.014-.005-.012-.005.014.006.051.023.135.065.258.131.242.132.578.328.989.579.818.499 1.893 1.187 3.03 1.937 2.285 1.507 4.756 3.221 5.86 4.108l1.253-1.558Zm-11.158-7.168c-.393 0-.631-.114-.775-.24-.149-.13-.27-.335-.316-.63-.096-.605.145-1.537 1.005-2.385l-1.405-1.424c-1.223 1.206-1.792 2.758-1.576 4.123.11.69.426 1.342.977 1.822.555.485 1.278.734 2.09.734v-2Zm-.087-3.255c1.073-1.057 2.519-3.241 3.537-5.26l-1.786-.901c-.975 1.934-2.304 3.899-3.154 4.737l1.403 1.424Zm3.537-5.261c.916-1.818 3.192-5.762 5.053-8.749l-1.697-1.058c-1.875 3.008-4.187 7.011-5.142 8.908l1.786.899Zm5.054-8.749c1.867-2.998 4.38-7.036 5.582-8.972l-1.699-1.055c-1.201 1.935-3.714 5.971-5.581 8.969l1.698 1.058Zm5.582-8.972c2.102-3.384 3.481-5.338 6.976-9.877l-1.585-1.22c-3.52 4.571-4.941 6.583-7.09 10.042l1.699 1.055Zm6.976-9.877c2.878-3.739 3.361-8.155 1.264-12.21l-1.777.919c1.719 3.324 1.362 6.909-1.072 10.071l1.585 1.22Zm1.264-12.21c-.803-1.551-2.669-2.911-4.89-3.97-2.27-1.083-5.097-1.941-8.066-2.386l-.297 1.977c2.794.42 5.428 1.225 7.502 2.214 2.123 1.013 3.483 2.135 3.974 3.084l1.777-.919Zm-12.956-6.356c-2.164-.325-5.368-.848-7.114-1.161l-.353 1.969c1.768.316 4.992.842 7.17 1.169l.297-1.977Zm-7.114-1.161c-2.559-.458-5.621-.561-12.91-.471l.025 1.999c7.318-.089 10.191.021 12.532.441l.353-1.969Zm-12.91-.471-9.526.117.024 2 9.527-.118-.025-1.999Zm-8.736.489-.911-1.128-1.556 1.256.911 1.128 1.556-1.256Zm-.911-1.128c-.405-.502-1.121-1.852-1.532-2.968l-1.877.691c.449 1.219 1.257 2.795 1.853 3.534l1.556-1.257Zm-1.532-2.968c-.48-1.304-1.827-3.512-2.999-4.977l-1.562 1.249c1.093 1.367 2.304 3.387 2.685 4.419l1.876-.691Zm-2.999-4.977c-1.103-1.381-2.605-3.593-3.317-4.879l-1.75.968c.775 1.401 2.344 3.706 3.505 5.159l1.562-1.248Zm-3.317-4.879c-.743-1.344-1.657-2.901-2.032-3.458l-1.658 1.118c.321.477 1.197 1.964 1.94 3.308l1.75-.968Zm-2.033-3.459c-.14-.207-.6-1.021-1.256-2.236-.642-1.1861-1.442-2.6962-2.243-4.2423l-1.776.9206c.806 1.555 1.611 3.0757 2.26 4.2737.633 1.17 1.149 2.094 1.358 2.404l1.657-1.12Zm-3.499-6.4784c-4.375-8.436-8.493-13.5259-13.711-14.9881-5.236-1.4674-11.169.8287-18.826 5.9008l1.104 1.6674c7.643-5.0628 12.884-6.8471 17.182-5.6424 4.318 1.2099 8.099 5.5445 12.475 13.9831l1.776-.9208Zm-32.537-9.0874c-1.966 1.3021-4.698 2.851-7.088 4.0753-1.194.6117-2.289 1.1352-3.15 1.5033-.432.1845-.791.3243-1.068.4162-.315.1046-.416.1098-.385.1097l.001 2c.326-.0002.703-.1082 1.014-.2116.35-.1163.766-.2796 1.224-.4754.918-.3926 2.058-.9384 3.276-1.5621 2.433-1.2464 5.234-2.8325 7.28-4.1879l-1.104-1.6675Zm-11.69 6.1045c.02 0-.144-.018-.591-.2208-.398-.1804-.909-.4546-1.519-.8166-1.218-.7223-2.763-1.7548-4.466-2.9777-3.404-2.4453-7.376-5.6105-10.509-8.4817l-1.351 1.4745c3.201 2.9335 7.237 6.1481 10.693 8.6315 1.728 1.2413 3.326 2.3103 4.612 3.0735.642.3806 1.223.6952 1.713.9178.442.2002.961.3995 1.418.3995v-2Zm-17.086-12.4971c-1.784-1.634-4.431-3.8669-5.899-4.9745l-1.204 1.5965c1.403 1.0594 4.001 3.2488 5.753 4.8531l1.35-1.4751Zm-5.899-4.9749c-1.421-1.0703-3.936-3.0796-5.579-4.4575l-1.285 1.5324c1.665 1.3961 4.207 3.4276 5.66 4.5224l1.204-1.5973Zm-5.579-4.4576c-4.734-3.9689-8.148-6.381-11.334-7.4547-3.271-1.1022-6.2-.7651-9.857.4536l.632 1.8975c3.43-1.1429 5.88-1.3677 8.586-.4558 2.79.9403 5.949 3.1183 10.688 7.092l1.285-1.5326Z" vector-effect="non-scaling-stroke" />
</svg>
